{"glyphs":{"0":{"ha":764,"x_min":0,"x_max":0,"o":"m 725 271 b 661 681 792 433 765 594 b 467 754 610 726 535 750 b 467 722 429 756 396 722 b 635 664 533 722 593 704 b 663 310 710 593 721 468 b 292 -11 599 135 438 -11 b 204 461 76 -11 93 304 b 510 657 283 572 403 657 b 582 625 533 657 565 650 b 592 651 589 614 596 635 b 522 708 586 681 557 706 b 201 568 425 721 276 644 b 288 -49 -11 351 14 -32 b 725 271 482 -58 649 86 z "},"1":{"ha":433,"x_min":0,"x_max":0,"o":"m 382 18 b 215 24 333 25 272 25 b 515 708 257 178 401 483 b 432 732 524 725 453 760 b 333 610 403 690 368 649 b 207 486 293 565 246 519 b 210 464 179 463 190 451 b 376 603 263 499 326 554 b 163 21 299 422 186 129 b 117 18 146 19 131 18 b 40 7 86 14 61 14 b 13 -46 3 -3 -14 -51 b 161 -17 61 -37 111 -25 b 208 -11 169 -31 200 -21 l 208 -10 b 369 -8 264 -4 321 -8 b 382 18 404 -8 403 14 z "},"2":{"ha":811,"x_min":0,"x_max":0,"o":"m 531 24 b 269 89 475 31 367 74 b 718 388 394 156 593 267 b 475 728 972 635 757 783 b 244 538 411 715 197 635 b 264 510 250 525 256 517 b 281 528 283 490 288 513 b 474 679 244 603 431 667 b 642 396 696 736 842 603 b 224 93 521 271 335 158 b 82 -15 146 97 83 75 b 196 49 79 -62 188 39 b 496 -31 225 38 461 -24 b 718 0 575 -44 651 -49 b 778 63 739 17 771 38 b 753 67 786 89 760 89 b 531 24 739 19 611 13 z "},"3":{"ha":779,"x_min":0,"x_max":0,"o":"m 403 375 b 533 392 436 372 482 389 b 651 274 613 371 651 325 b 318 -29 651 107 467 -28 b 168 79 260 -29 174 -1 b 175 122 168 94 169 108 b 124 128 182 146 139 164 b 113 79 117 111 113 96 b 315 -56 114 -39 235 -56 b 732 268 494 -56 732 69 b 606 401 732 347 676 399 b 763 622 731 442 783 544 b 568 733 742 699 660 733 b 308 556 424 733 308 671 b 339 563 308 532 339 547 b 543 690 339 651 472 690 b 688 576 632 688 688 636 b 614 463 688 539 665 496 b 410 431 549 421 468 419 b 403 375 363 440 353 381 z "},"4":{"ha":651,"x_min":0,"x_max":0,"o":"m 354 -51 b 440 232 369 39 401 135 b 647 301 514 232 585 246 b 707 374 668 319 700 347 b 682 375 715 403 689 399 b 467 292 668 326 549 297 b 674 708 533 440 613 583 b 646 750 681 721 665 740 b 589 726 610 771 607 750 b 313 471 538 667 429 556 l 68 294 b 14 211 31 274 14 242 b 75 239 14 193 44 215 b 179 256 99 256 135 261 l 389 235 b 307 -58 340 103 301 -21 b 354 -56 315 -74 346 -64 z m 153 315 b 329 435 208 351 257 379 b 535 603 408 493 514 582 b 411 294 515 561 461 429 b 153 315 342 301 239 322 z "},"5":{"ha":760,"x_min":0,"x_max":0,"o":"m 301 451 b 353 535 313 472 340 517 b 432 651 385 594 418 643 b 794 683 482 681 686 683 b 813 719 840 683 840 715 b 443 722 711 732 529 729 b 376 714 419 721 397 719 b 374 646 335 706 361 669 b 214 400 339 603 267 492 b 217 347 189 357 197 343 b 368 440 246 354 299 417 b 624 325 467 472 624 461 b 235 -25 624 131 410 -24 b 61 100 168 -28 65 6 b 68 149 61 115 63 132 b 8 156 78 178 26 197 b -4 100 0 138 -4 118 b 232 -57 -4 -37 138 -57 b 717 319 440 -57 717 89 b 479 486 717 454 583 486 b 301 451 422 486 343 479 z "},"6":{"ha":717,"x_min":0,"x_max":0,"o":"m 547 235 b 326 -7 533 125 453 -7 b 225 386 117 -7 161 243 b 515 693 294 542 417 671 b 675 549 572 707 696 697 b 704 553 674 539 701 535 b 517 732 732 726 597 749 b 140 399 397 706 225 568 b 299 -43 44 207 49 -43 b 619 242 450 -43 600 89 b 446 417 635 371 538 419 b 297 354 389 417 325 388 b 311 336 274 331 299 325 b 422 389 342 361 378 388 b 547 235 486 392 563 351 z "},"7":{"ha":579,"x_min":0,"x_max":0,"o":"m 735 651 b 736 653 735 651 735 653 b 792 725 767 667 794 697 b 714 700 788 767 731 729 b 397 728 681 707 433 726 b 151 549 260 732 181 706 b 175 551 149 535 168 521 b 361 669 190 611 242 665 b 668 650 465 671 576 665 b 138 -8 565 546 163 67 b 211 -8 135 -28 201 -17 b 735 651 356 239 536 433 z "},"8":{"ha":682,"x_min":0,"x_max":0,"o":"m 461 438 b 649 657 540 476 690 554 b 301 575 604 769 318 736 b 447 443 293 496 382 468 z m 388 378 b 207 264 311 340 271 313 b 100 118 154 226 106 169 b 363 35 89 3 285 10 b 453 354 540 94 646 275 b 388 378 433 364 411 368 z m 492 426 b 618 256 564 393 626 344 b 225 -32 600 90 368 -25 b 49 88 142 -36 36 -21 b 176 278 57 157 118 236 b 354 388 235 319 283 357 b 236 549 286 413 225 450 b 346 706 243 611 288 667 b 538 760 401 743 474 757 b 711 649 651 764 718 721 b 492 426 700 540 583 471 z "},"9":{"ha":690,"x_min":0,"x_max":0,"o":"m 218 464 b 439 707 232 575 313 707 b 540 313 649 707 604 457 b 249 6 471 157 349 28 b 90 151 193 -7 68 3 b 61 149 92 163 64 165 b 249 -32 33 -28 168 -50 b 625 303 368 -8 540 131 b 467 743 721 492 717 743 b 146 458 314 743 165 610 b 319 283 131 331 228 282 b 468 344 376 283 440 313 b 454 365 492 371 467 375 b 343 311 422 339 388 311 b 218 464 279 310 203 350 z "}," ":{"ha":304,"x_min":0,"x_max":0,"o":""},"!":{"ha":225,"x_min":0,"x_max":0,"o":"m 208 208 b 256 200 193 165 250 185 b 450 618 301 344 381 485 b 481 656 458 636 471 638 b 514 747 503 694 514 728 b 447 792 514 774 464 810 b 375 632 433 776 408 711 b 208 208 321 507 253 338 z m 215 38 b 175 53 215 60 222 88 b 131 6 168 47 131 13 b 176 -17 131 -17 158 -17 b 215 38 189 -17 215 25 z "},"\"":{"ha":356,"x_min":0,"x_max":0,"o":"m 169 551 b 154 639 175 574 207 639 b 113 560 93 639 114 604 b 107 426 113 547 114 461 b 132 421 104 401 126 394 b 169 551 146 476 161 514 z m 326 551 b 313 639 332 574 363 639 b 271 560 250 639 271 604 b 264 426 269 547 269 461 b 290 421 260 401 283 394 b 326 551 301 476 318 514 z "},"#":{"ha":1076,"x_min":0,"x_max":0,"o":"m 1014 504 b 965 539 1068 518 1035 538 b 763 542 947 539 867 540 b 854 831 811 692 853 819 l 853 831 b 804 796 856 886 829 861 b 711 542 797 776 757 671 b 426 542 621 542 521 544 b 521 836 478 694 519 825 l 519 838 b 471 803 522 893 494 867 l 376 542 b 131 532 244 542 139 539 b 169 489 104 517 106 485 b 360 492 189 490 263 490 b 265 221 326 401 293 304 b 36 211 142 221 44 218 b 76 167 10 194 13 164 b 250 171 93 169 160 169 b 204 11 221 82 201 19 b 258 33 211 -18 242 -28 l 304 171 l 585 174 b 538 4 556 82 535 14 b 592 28 544 -25 575 -35 l 639 174 b 919 181 788 176 910 178 l 919 183 b 871 218 974 197 940 215 b 654 221 854 218 765 219 l 746 496 b 1014 503 889 497 1003 499 z m 696 496 b 600 221 663 403 628 306 b 319 221 510 221 411 222 l 410 492 z "},"$":{"ha":606,"x_min":0,"x_max":0,"o":"m 565 732 b 508 736 582 753 526 756 b 481 697 503 732 493 715 l 475 697 b 131 482 339 715 135 643 b 239 275 128 400 186 329 b 158 121 208 219 181 165 b 93 138 131 125 107 132 b 85 131 90 139 85 136 b 139 82 83 111 110 96 b 96 -18 114 33 99 -3 b 147 -7 90 -44 135 -35 b 181 68 156 17 168 42 b 214 60 194 63 207 61 b 375 122 260 54 374 61 b 281 269 376 164 329 215 b 513 653 361 415 451 560 b 544 528 593 639 590 590 b 458 436 517 490 479 456 b 465 419 447 426 439 408 b 614 590 529 444 613 513 b 533 685 617 639 576 669 b 565 732 544 704 557 719 z m 267 246 b 325 171 300 213 325 188 b 201 115 322 122 263 111 b 267 246 222 158 244 201 z m 253 301 b 169 442 208 350 168 399 b 457 657 172 561 336 649 b 253 301 403 569 325 431 z "},"%":{"ha":644,"x_min":0,"x_max":0,"o":"m 513 117 b 408 11 499 76 458 11 b 375 122 347 10 363 88 b 482 228 389 163 432 226 b 513 117 543 229 524 150 z m 572 160 b 492 253 582 229 536 253 b 315 82 411 250 328 186 b 404 -18 311 26 335 -21 b 572 160 479 -17 563 68 z m 328 719 b 267 740 311 735 288 740 b 92 568 188 739 104 674 b 179 469 85 514 110 468 b 349 649 253 471 336 556 b 347 688 350 664 349 678 b 517 693 397 672 465 676 b 85 -18 415 533 106 51 b 139 -7 78 -44 125 -35 b 625 732 264 249 540 631 b 547 736 642 754 565 754 b 328 719 499 701 390 693 z m 288 603 b 182 497 274 565 235 499 b 151 610 121 496 139 575 b 257 715 165 649 207 715 b 288 603 318 718 300 638 z "},"&":{"ha":968,"x_min":0,"x_max":0,"o":"m 758 722 b 731 754 781 743 753 760 b 676 715 711 753 693 735 b 565 785 651 747 599 776 b 329 722 506 801 367 775 b 454 379 253 614 368 451 b 218 347 404 372 313 382 b 353 -60 -32 253 -6 -87 b 825 257 533 -46 785 42 b 774 400 833 313 797 375 b 899 565 861 450 925 503 b 885 565 892 576 881 576 b 558 333 918 486 703 419 b 446 239 506 303 467 276 b 465 76 417 181 426 89 b 472 96 492 68 488 82 b 590 299 410 144 542 269 b 756 392 640 329 701 360 b 753 256 765 372 769 308 b 367 -32 696 67 533 -15 b 251 285 106 -58 36 178 b 472 354 299 310 388 344 b 481 401 501 358 507 367 b 486 754 419 479 339 719 b 660 692 550 769 625 729 l 656 685 b 646 563 633 642 635 575 b 667 567 660 547 672 558 b 708 681 644 601 674 649 b 758 722 728 700 750 713 z "},"’":{"ha":326,"x_min":0,"x_max":0,"o":"m 315 781 b 279 825 315 796 301 825 b 242 811 272 825 251 825 b 249 739 238 778 264 785 b 183 632 236 699 211 664 b 153 594 168 615 153 596 b 168 586 153 589 153 575 b 257 679 179 593 218 635 b 315 781 288 718 315 761 z "},"(":{"ha":528,"x_min":0,"x_max":0,"o":"m 632 781 b 107 340 426 736 214 572 b 106 -229 26 163 17 -58 b 168 -196 121 -258 183 -225 b 161 296 103 -64 110 143 b 628 749 239 519 431 685 b 632 781 658 760 663 788 z "},")":{"ha":718,"x_min":0,"x_max":0,"o":"m -29 -229 b 494 211 175 -185 389 -22 b 496 781 576 389 585 608 b 433 747 481 810 418 776 b 440 256 500 615 494 408 b -26 -199 363 32 172 -135 b -29 -229 -56 -208 -60 -236 z "},"*":{"ha":894,"x_min":0,"x_max":0,"o":"m 232 290 b 250 256 229 276 235 261 b 300 285 264 253 281 261 b 403 421 314 303 343 346 b 440 350 413 403 426 375 b 475 282 457 318 471 289 b 519 243 494 249 513 240 b 526 288 529 246 535 263 b 453 449 521 299 481 367 b 668 456 558 450 656 454 b 665 500 717 458 778 497 b 465 500 646 500 550 499 b 589 664 536 589 556 618 b 603 711 600 679 607 700 b 583 715 599 719 590 719 b 556 692 575 713 565 706 b 417 528 543 676 478 600 b 356 671 392 594 361 656 b 297 646 329 726 279 697 b 374 500 307 618 346 544 b 172 492 278 500 186 499 b 149 461 160 485 147 472 b 194 443 151 451 163 442 b 361 447 214 444 283 444 b 274 344 326 403 297 368 b 232 290 250 315 235 297 z "},"+":{"ha":854,"x_min":0,"x_max":0,"o":"m 528 469 b 433 269 514 444 475 361 l 172 269 b 160 219 144 269 96 218 b 413 225 182 221 293 221 l 307 -4 b 360 -15 279 -64 349 -42 l 464 225 b 725 232 582 226 694 228 b 724 271 772 235 781 271 l 482 271 l 563 451 b 528 469 586 506 550 511 z "},",":{"ha":249,"x_min":0,"x_max":0,"o":"m 210 13 b 174 58 210 28 196 58 b 135 44 167 58 140 61 b 140 -29 125 11 156 18 b 78 -135 128 -71 104 -104 b 47 -174 61 -154 47 -171 b 63 -182 47 -178 47 -192 b 149 -87 72 -175 113 -135 b 210 13 181 -50 210 -7 z "},"-":{"ha":524,"x_min":0,"x_max":0,"o":"m 451 232 b 526 254 464 233 526 236 b 450 271 526 263 494 271 b 244 269 392 271 274 269 b 231 219 215 269 167 215 b 451 232 278 221 388 226 z "},".":{"ha":251,"x_min":0,"x_max":0,"o":"m 215 38 b 175 53 215 60 222 88 b 131 6 168 47 131 13 b 176 -17 131 -17 158 -17 b 215 38 189 -17 215 25 z "},"/":{"ha":649,"x_min":0,"x_max":0,"o":"m 625 732 b 571 736 644 754 592 756 b 28 -18 508 676 56 60 b 82 -7 19 -44 65 -35 b 625 732 228 249 531 629 z "},":":{"ha":224,"x_min":0,"x_max":0,"o":"m 215 38 b 175 53 215 60 222 88 b 131 6 168 47 131 13 b 176 -17 131 -17 158 -17 b 215 38 189 -17 215 25 z m 286 256 b 246 271 286 278 293 308 b 201 226 239 267 201 232 b 249 204 201 204 229 204 b 286 256 260 204 286 243 z "},";":{"ha":231,"x_min":0,"x_max":0,"o":"m 210 13 b 174 58 210 28 196 58 b 135 44 167 58 140 61 b 140 -29 125 11 156 18 b 78 -135 128 -71 104 -104 b 47 -174 61 -154 47 -171 b 63 -182 47 -178 47 -192 b 149 -87 72 -175 113 -135 b 210 13 181 -50 210 -7 z m 286 256 b 246 271 286 278 293 308 b 201 226 239 267 201 232 b 249 204 201 204 229 204 b 286 256 260 204 286 243 z "},"<":{"ha":526,"x_min":0,"x_max":0,"o":"m 142 317 b 132 239 106 282 93 276 b 290 46 193 179 244 117 b 322 79 318 0 342 26 b 208 304 307 117 265 197 b 499 597 354 443 454 546 b 501 650 542 649 519 665 b 142 317 376 546 260 428 z "},"=":{"ha":749,"x_min":0,"x_max":0,"o":"m 674 329 b 749 351 686 331 749 333 b 674 368 749 360 718 368 b 269 367 617 368 299 367 b 257 317 239 367 193 313 b 674 329 304 318 610 324 z m 638 131 b 710 151 647 132 711 135 b 635 169 710 163 681 169 l 231 169 b 218 117 203 169 154 114 b 638 131 265 121 571 125 z "},">":{"ha":551,"x_min":0,"x_max":0,"o":"m 494 365 b 506 442 531 399 544 401 b 349 635 444 503 394 563 b 315 603 321 679 294 653 b 429 375 332 563 371 483 b 139 82 283 236 182 135 b 135 31 96 32 118 17 b 494 365 260 135 376 253 z "},"?":{"ha":656,"x_min":0,"x_max":0,"o":"m 313 757 b 264 739 299 750 279 740 b 183 678 214 732 193 700 b 169 604 176 658 169 629 b 276 681 167 511 232 639 b 447 769 321 722 383 769 b 544 653 508 769 544 718 b 382 367 544 511 481 451 b 244 199 318 311 251 254 b 274 194 242 176 271 178 b 408 336 285 246 346 292 b 631 678 515 410 665 524 b 313 757 597 826 411 808 z m 215 38 b 176 -17 215 25 189 -17 b 131 6 158 -17 131 -17 b 175 53 131 13 168 47 b 215 38 222 88 215 60 z "},"@":{"ha":1044,"x_min":0,"x_max":0,"o":"m 683 206 b 665 278 668 215 660 243 b 753 492 669 325 700 415 b 694 526 765 517 708 526 b 551 381 682 526 572 403 b 411 253 514 340 450 283 b 300 213 390 235 321 183 b 417 456 257 275 375 417 b 668 582 492 524 592 582 b 739 554 694 582 724 579 b 750 561 746 549 750 551 b 724 601 750 576 738 590 b 579 614 686 628 621 625 b 249 226 471 583 142 365 b 340 178 271 197 311 178 b 619 394 457 178 593 382 b 596 215 600 343 583 254 b 672 160 610 174 639 160 b 871 288 758 158 822 218 b 989 574 926 364 989 478 b 654 832 989 728 863 833 b 17 250 333 831 17 554 b 418 -69 17 82 146 -67 b 925 122 578 -71 814 7 b 985 422 1044 243 1042 368 b 968 413 972 435 957 422 b 874 153 1006 378 988 275 b 422 -44 776 49 564 -46 b 89 239 182 -42 89 86 b 646 788 89 528 371 785 b 938 568 822 789 938 700 b 832 289 938 469 894 365 b 683 206 808 261 724 174 z "},"A":{"ha":1179,"x_min":0,"x_max":0,"o":"m 15 17 b 72 -97 15 -35 35 -71 b 197 -132 104 -119 146 -132 b 425 -50 276 -132 353 -104 b 746 282 522 21 635 144 b 911 263 801 275 856 268 b 888 121 899 213 890 165 b 968 -35 878 32 910 -35 b 1104 14 996 -35 1051 -28 b 1269 194 1203 93 1265 185 b 1253 207 1276 211 1258 213 b 1099 49 1217 158 1163 97 b 950 97 1003 -24 938 -43 b 975 257 953 151 964 206 b 1013 256 988 257 1000 256 b 1121 269 1051 254 1092 257 b 1175 310 1146 278 1165 292 b 1160 325 1183 324 1168 339 b 1118 294 1153 313 1138 301 b 1017 281 1090 282 1054 278 b 982 282 1006 281 994 282 l 986 292 b 1193 789 1033 468 1099 632 b 1200 804 1196 796 1200 801 b 1186 818 1200 813 1194 818 b 1114 799 1174 818 1133 810 b 1107 794 1111 797 1110 797 l 1106 794 b 1104 790 1106 792 1104 790 b 725 324 1015 679 871 492 b 468 368 639 340 550 360 b 169 218 328 385 183 386 b 183 132 167 185 172 151 b 208 144 196 114 218 125 b 207 197 200 158 200 178 b 461 311 246 304 364 317 b 694 288 538 306 617 297 b 396 -3 585 163 478 53 b 169 -78 325 -50 243 -78 b 85 -57 135 -78 106 -71 b 43 17 57 -39 43 -17 b 15 17 43 75 15 46 z m 1044 664 b 918 289 1001 554 951 419 l 772 313 b 1051 679 874 438 971 569 b 1044 664 1049 674 1047 669 z "},"B":{"ha":908,"x_min":0,"x_max":0,"o":"m 793 11 b 604 436 958 207 764 339 b 1015 669 735 442 1014 499 b 871 810 1015 732 961 789 b 225 707 708 846 374 788 b 21 493 146 664 29 581 b 24 471 21 489 24 475 b 160 336 13 386 113 339 b 168 354 181 333 189 344 b 64 451 138 371 56 382 b 875 756 89 679 690 790 b 947 610 993 735 992 665 b 603 461 890 538 689 461 b 543 414 582 461 540 440 b 704 246 549 375 644 313 b 529 -79 863 72 728 -81 b 389 19 446 -79 401 -36 b 350 81 383 42 389 81 b 299 33 339 82 319 58 b 253 69 267 -4 221 -10 b 647 617 307 199 521 617 b 663 625 654 617 669 603 b 585 672 654 658 599 672 b 406 507 513 672 413 553 b 396 450 408 499 413 485 b 181 -36 356 368 168 53 b 235 -53 182 -46 228 -53 b 322 32 267 -53 301 -1 b 325 24 322 28 322 26 b 519 -101 336 -62 413 -101 b 793 11 632 -101 738 -57 z "},"C":{"ha":743,"x_min":0,"x_max":0,"o":"m 715 810 b 42 246 443 851 113 535 b 288 -81 -12 21 118 -79 b 842 201 467 -83 697 3 b 822 214 849 213 832 228 b 288 -46 693 32 453 -51 b 110 221 140 -44 50 39 b 714 776 211 539 568 799 b 751 622 790 764 785 686 b 404 401 683 492 549 414 b 397 358 367 399 353 354 b 826 694 536 371 821 533 b 715 810 828 750 792 799 z "},"D":{"ha":1207,"x_min":0,"x_max":0,"o":"m 160 410 b 854 768 160 604 554 775 b 1079 207 1228 757 1285 456 b 444 44 940 39 646 -104 b 839 597 503 169 710 597 b 856 601 849 597 857 583 b 774 651 849 638 790 651 b 554 436 701 651 563 482 b 544 379 557 429 563 415 b 403 72 507 301 426 131 b 307 178 397 74 307 146 b 318 222 307 204 307 199 b 321 253 326 242 326 249 b 263 239 311 260 276 249 b 253 211 256 232 250 222 b 264 172 258 197 265 185 b 251 24 257 125 251 83 b 333 -106 251 3 263 -106 b 432 19 371 -106 425 10 b 683 -51 496 -29 589 -51 b 1260 468 965 -51 1260 171 b 1151 701 1260 556 1228 639 b 110 451 919 888 110 790 b 113 429 110 444 113 433 b 267 297 100 344 218 301 b 276 317 286 296 294 308 b 160 410 244 332 160 340 z m 385 40 b 311 -36 378 24 328 -122 b 300 125 299 28 300 107 b 385 40 325 103 364 58 z "},"E":{"ha":996,"x_min":0,"x_max":0,"o":"m 628 818 b 417 743 568 832 451 803 b 501 385 356 639 425 472 b 33 108 350 378 33 340 b 349 -104 33 -60 194 -104 b 819 7 478 -104 704 -58 b 985 288 906 56 1058 181 b 968 285 981 292 967 292 b 746 35 989 199 821 74 b 300 -69 656 -11 450 -69 b 93 67 144 -69 92 -8 b 515 340 97 233 376 338 b 640 325 549 333 613 310 b 617 381 667 340 667 375 b 543 394 600 382 551 385 b 564 781 481 476 419 721 b 682 750 614 799 661 769 b 765 631 718 719 743 678 b 808 518 783 594 786 546 b 843 639 850 468 863 593 b 808 704 835 660 825 690 b 783 711 801 708 790 707 b 743 740 767 715 753 729 b 628 818 711 769 676 806 z "},"F":{"ha":736,"x_min":0,"x_max":0,"o":"m 328 33 b 283 69 297 -4 250 -10 b 389 285 301 115 340 197 b 715 338 507 297 669 322 b 717 367 772 358 736 367 b 513 346 651 367 579 354 b 417 333 479 340 447 336 b 676 617 500 476 603 617 b 694 610 682 617 689 614 b 613 672 700 653 631 672 b 433 507 540 672 443 553 b 425 450 438 499 443 485 b 361 332 413 426 389 382 l 357 332 b 319 358 347 332 342 358 b 242 313 300 358 242 340 b 278 276 242 290 263 276 b 333 281 288 276 311 278 b 210 -36 271 160 201 18 b 264 -53 211 -46 256 -53 b 361 44 301 -53 339 14 b 378 81 363 46 388 74 b 328 33 367 82 347 58 z m 899 538 b 954 688 868 583 910 644 b 1021 742 979 713 1007 728 b 982 785 1049 769 1014 792 b 919 742 971 783 944 769 b 397 790 732 747 611 804 b 21 574 218 778 50 713 b 19 551 19 567 19 553 b 125 392 -11 469 78 406 b 138 408 142 386 154 396 b 54 524 110 429 38 456 b 394 735 79 639 228 713 b 903 721 569 761 731 714 b 883 692 896 713 890 701 b 874 532 854 636 857 549 b 899 538 890 511 906 526 z "},"G":{"ha":1110,"x_min":0,"x_max":0,"o":"m 369 -246 b 890 17 78 -578 583 -764 b 1031 60 903 49 1010 69 b 1036 79 1042 54 1047 72 b 908 65 1021 88 972 81 b 979 267 933 132 957 200 b 1106 407 1006 344 1049 410 b 1111 426 1124 406 1132 422 b 915 331 1090 428 968 465 b 561 88 797 218 717 135 b 138 235 340 21 138 46 b 843 789 138 514 640 789 b 985 697 906 789 981 771 b 1015 726 988 663 1026 667 b 815 819 1003 806 860 819 b 294 629 619 819 443 761 b 103 240 168 513 103 382 b 468 -4 103 33 297 -37 b 899 263 603 19 753 125 b 832 44 878 188 856 115 b 369 -246 651 -14 494 -101 z m 822 18 b 603 -386 771 -125 697 -268 b 438 -239 424 -604 253 -467 b 822 18 538 -114 669 -32 z "},"H":{"ha":1043,"x_min":0,"x_max":0,"o":"m 342 593 b 340 569 321 590 319 568 b 521 646 397 575 467 597 b 440 407 499 575 472 492 b 356 419 413 413 383 417 b 57 268 217 436 72 436 b 71 183 54 235 61 201 b 96 194 83 164 107 176 b 96 249 86 208 86 228 b 349 361 133 354 251 367 l 422 357 b 43 -160 332 125 207 -108 b -50 -160 14 -169 -28 -164 b -103 -108 -76 -153 -94 -136 b -126 -115 -117 -57 -133 -92 b -50 -196 -115 -157 -89 -183 b 65 -190 -18 -206 21 -206 b 475 350 229 -140 368 107 b 819 304 590 336 703 315 b 790 233 808 281 799 257 b 835 -35 765 164 701 -35 b 971 14 863 -35 917 -28 b 1135 194 1068 93 1131 185 b 1118 207 1142 211 1124 213 b 965 49 1082 158 1028 97 b 878 301 729 -132 822 171 b 1010 319 922 301 972 304 b 1063 360 1033 329 1051 343 b 1049 375 1072 375 1057 389 b 1007 344 1040 364 1026 351 b 889 325 974 331 929 325 b 1181 740 929 415 1079 740 b 1197 733 1186 740 1193 735 b 1113 794 1201 776 1131 794 b 946 629 1040 794 950 674 b 939 572 950 621 954 608 b 829 331 906 490 867 410 b 494 396 722 343 607 374 b 649 785 561 549 613 697 b 561 785 654 811 565 806 b 342 593 517 686 422 601 z "},"I":{"ha":597,"x_min":0,"x_max":0,"o":"m 333 94 b 97 54 251 -14 153 13 b 19 31 82 67 33 63 b 51 -29 0 -17 15 -28 b 556 -10 117 -31 531 -22 b 554 24 564 -4 600 26 b 307 18 496 19 408 17 b 360 72 325 32 342 51 b 639 728 482 228 583 558 b 799 708 703 728 763 721 b 807 749 882 681 828 739 b 658 785 771 767 718 781 b 665 803 660 792 663 797 b 589 803 668 826 593 822 b 585 789 586 797 585 794 b 239 596 415 789 231 736 b 243 579 239 590 243 581 b 353 463 244 514 319 469 b 356 476 367 458 371 465 b 272 560 333 490 276 507 b 569 726 267 664 419 714 b 333 94 526 558 443 240 z "},"J":{"ha":797,"x_min":0,"x_max":0,"o":"m 818 818 b 744 778 792 818 767 803 b 274 596 561 811 264 774 b 278 579 274 590 278 581 b 388 463 279 514 354 469 b 390 476 401 458 406 465 b 307 560 368 490 311 507 b 710 728 300 690 540 735 b 593 415 654 631 617 482 b 132 128 413 358 257 271 b 653 388 -160 -206 367 -399 b 793 431 665 422 772 442 b 799 450 804 426 808 443 b 665 436 783 458 729 451 b 751 725 690 524 718 644 b 833 708 785 721 813 715 b 842 749 917 681 863 739 b 778 771 825 757 801 764 b 818 796 792 783 807 792 b 818 818 835 799 840 818 z m 585 389 b 364 -14 533 247 460 103 b 200 132 183 -232 15 -94 b 585 389 300 257 432 339 z "},"K":{"ha":776,"x_min":0,"x_max":0,"o":"m 335 646 b 135 132 283 472 221 294 b -143 -160 58 -8 -33 -125 b -236 -160 -172 -169 -214 -164 b -289 -108 -262 -153 -279 -136 b -312 -115 -303 -57 -319 -92 b -236 -196 -300 -157 -275 -183 b -119 -190 -203 -206 -165 -206 b 154 82 -19 -160 72 -51 b 368 344 203 149 288 250 b 658 -62 401 163 482 -62 b 765 21 693 -62 764 -36 b 735 94 765 46 744 83 b 708 86 718 110 689 115 b 696 -25 731 53 764 -25 b 571 58 660 -25 613 7 b 406 392 475 176 446 246 b 656 590 433 422 531 506 b 938 756 771 667 917 746 b 857 808 999 785 972 861 b 399 426 814 788 443 476 l 397 422 b 394 443 396 429 394 436 b 364 435 388 478 368 450 b 363 381 363 419 361 401 b 238 239 313 326 272 282 b 464 785 325 415 389 603 b 375 785 468 811 381 806 b 154 593 332 686 235 601 b 154 569 133 590 133 568 b 335 646 211 575 281 597 z "},"L":{"ha":714,"x_min":0,"x_max":0,"o":"m 294 117 b 297 96 276 111 267 90 b 314 100 301 96 308 97 b 267 -22 300 56 283 17 l 193 24 b 144 47 181 31 158 42 b 208 63 156 53 196 56 b 200 75 232 79 208 79 b 50 75 138 51 71 82 b 38 7 3 61 7 18 b 126 25 50 4 92 11 b 257 -44 168 11 211 -14 b 154 -174 224 -118 188 -171 b 154 -192 144 -174 139 -189 b 290 -67 196 -199 244 -146 b 863 -315 444 -178 625 -335 b 1038 -176 972 -307 1036 -243 b 1017 -65 1040 -142 1036 -106 b 989 -71 1006 -43 978 -46 b 833 -243 1047 -178 918 -236 b 304 -44 632 -260 454 -142 b 383 118 333 6 360 63 b 882 660 613 199 882 417 b 550 713 882 824 710 893 b 401 372 493 649 447 519 b 325 125 389 333 361 232 z m 465 333 b 746 792 501 447 582 792 b 819 632 821 792 835 714 b 399 157 778 414 599 247 b 465 333 431 232 453 299 z "},"M":{"ha":1522,"x_min":0,"x_max":0,"o":"m 1288 683 b 1033 351 1200 589 1107 465 b 896 128 982 274 943 200 b 892 150 867 81 888 136 b 964 449 924 246 954 365 b 760 715 979 579 943 726 b 489 551 700 713 597 643 l 585 789 b 494 789 590 815 501 810 b 276 596 453 690 356 604 b 274 574 256 594 253 572 b 454 650 332 579 403 601 l 401 471 b 21 46 319 396 106 179 b 201 -32 -81 -115 71 -197 b 450 450 314 110 415 368 b 793 678 585 574 721 678 b 826 76 953 678 890 242 b 883 39 819 61 856 -22 b 1050 318 917 108 981 215 b 1313 638 1139 449 1238 574 b 1376 596 1368 686 1401 657 b 1242 38 1336 492 1201 181 b 1432 4 1265 -56 1371 -42 b 1614 194 1488 44 1578 138 b 1597 206 1624 206 1604 215 b 1450 54 1558 153 1499 94 b 1307 142 1357 -18 1292 -17 b 1454 615 1326 332 1411 438 b 1288 683 1489 754 1375 774 z m 79 54 b 374 382 131 124 269 283 b 158 -17 339 288 225 54 b 79 54 50 -128 -11 -65 z "},"N":{"ha":1090,"x_min":0,"x_max":0,"o":"m 369 614 b 186 125 318 440 267 281 b -78 -154 113 -10 26 -122 b -167 -154 -106 -164 -144 -161 b -215 -107 -193 -147 -208 -132 b -237 -112 -229 -57 -244 -90 b -167 -190 -228 -154 -203 -178 b -56 -185 -136 -199 -99 -199 b 228 118 49 -153 144 -29 b 411 532 301 254 354 382 b 683 -93 411 285 464 -93 b 1043 650 881 -93 1061 403 b 1103 610 1061 635 1079 621 b 1132 601 1111 604 1121 601 b 1163 629 1146 603 1163 614 b 1147 643 1161 638 1158 643 b 1131 639 1140 643 1135 639 b 1096 656 1119 639 1111 642 b 960 824 1049 699 1019 824 b 933 797 953 822 931 804 b 971 676 947 757 961 726 b 694 -46 1000 506 874 -46 b 485 656 513 -46 465 525 b 500 754 488 681 492 733 b 410 754 506 781 417 775 b 190 561 368 656 271 569 b 189 538 169 558 168 535 b 369 614 246 542 315 565 z "},"O":{"ha":981,"x_min":0,"x_max":0,"o":"m 996 468 b 611 819 996 693 833 819 b 281 708 503 818 374 775 b 64 340 153 617 63 479 b 89 319 64 315 86 288 b 322 681 99 451 197 593 b 607 785 396 733 501 778 b 926 518 797 799 922 708 b 519 -74 932 276 708 -31 b 550 608 42 -185 144 513 b 638 601 575 614 610 611 b 660 590 646 597 654 590 b 649 617 665 590 668 596 b 474 649 604 663 528 660 b 535 -106 -15 533 51 -218 b 996 468 751 -56 996 176 z "},"P":{"ha":749,"x_min":0,"x_max":0,"o":"m 279 292 b 274 269 242 296 258 271 b 299 268 281 268 290 268 b 181 -36 236 150 174 17 b 235 -53 182 -46 228 -53 b 332 44 272 -53 311 14 b 350 81 333 46 357 74 b 299 33 339 82 319 58 b 253 69 267 -4 221 -10 b 350 267 271 111 306 186 b 614 296 426 268 526 276 b 999 576 792 336 986 424 b 835 774 1006 657 943 736 b 249 739 639 836 389 806 b 44 540 172 700 61 628 b 47 518 44 533 47 519 b 163 372 29 433 119 379 b 172 392 181 368 189 379 b 82 493 144 408 71 426 b 839 725 119 719 614 788 b 917 492 979 683 999 576 b 363 290 797 368 549 299 b 647 617 451 447 565 617 b 665 625 654 617 669 603 b 585 672 654 658 599 672 b 406 507 513 672 413 553 b 396 450 408 499 413 485 b 308 290 381 421 346 360 b 279 292 299 290 288 290 z "},"Q":{"ha":931,"x_min":0,"x_max":0,"o":"m 440 40 b 785 274 563 61 690 129 b 524 822 953 533 874 900 b 63 268 308 774 63 551 b 450 -72 63 51 225 -74 b 561 -57 488 -72 524 -67 b 1146 -314 717 -167 901 -335 b 1322 -175 1257 -306 1319 -240 b 1300 -64 1322 -140 1321 -104 b 1274 -69 1290 -42 1260 -44 b 1117 -240 1329 -176 1201 -233 b 592 -46 918 -258 742 -142 b 1021 549 822 39 1008 317 b 843 818 1028 686 978 799 b 836 796 818 822 797 799 b 953 454 972 783 994 621 b 551 -21 901 246 749 42 l 478 25 b 440 40 471 28 450 35 z m 521 -29 b 453 -39 499 -35 475 -37 b 132 219 264 -53 138 35 b 542 792 126 451 350 749 b 426 68 1008 899 818 183 b 325 76 385 68 340 76 b 321 10 274 74 274 14 b 413 26 343 7 392 21 b 521 -29 447 14 485 -4 z "},"R":{"ha":749,"x_min":0,"x_max":0,"o":"m 389 268 b 614 296 458 271 542 281 b 999 576 792 336 986 424 b 835 774 1006 657 943 736 b 249 739 639 836 389 806 b 44 540 172 700 61 628 b 47 518 44 533 47 519 b 163 372 29 433 119 379 b 172 392 181 368 189 379 b 82 493 144 408 71 426 b 839 725 119 719 614 788 b 917 492 979 683 999 576 b 429 296 811 382 604 315 b 369 301 403 292 382 296 b 647 617 457 454 568 617 b 663 625 654 617 669 603 b 585 672 654 658 599 672 b 406 507 513 672 413 553 b 396 450 408 499 413 485 b 326 319 383 424 356 375 b 293 332 318 326 301 332 b 264 269 246 332 236 288 b 294 261 269 267 281 263 b 181 -36 236 146 174 17 b 235 -53 182 -46 228 -53 b 332 44 272 -53 311 14 b 350 81 333 46 357 74 b 299 33 339 82 319 58 b 253 69 267 -4 221 -10 b 347 261 271 110 306 183 b 357 260 347 261 353 267 b 940 -265 474 107 625 -204 b 1176 -178 1049 -286 1156 -243 b 1186 -67 1188 -147 1194 -111 b 1158 -65 1181 -43 1153 -37 b 964 -197 1183 -183 1049 -212 b 389 268 693 -147 547 74 z "},"S":{"ha":822,"x_min":0,"x_max":0,"o":"m 896 733 b 743 810 896 785 846 810 b 297 575 621 810 297 728 b 756 194 297 396 896 408 b 496 40 715 132 597 74 b 251 0 454 26 346 0 b 165 232 71 0 42 121 b 385 325 228 289 318 325 b 388 346 417 325 431 346 b 154 269 314 346 225 318 b 19 61 76 219 19 146 b 225 -64 19 -21 96 -64 b 758 153 389 -64 626 26 b 822 274 800 194 822 235 b 417 542 822 419 550 479 b 460 686 332 582 349 625 b 742 761 561 742 690 761 b 860 701 811 761 860 742 b 799 614 860 664 799 621 b 871 663 799 586 850 624 b 896 733 889 692 896 708 z "},"T":{"ha":467,"x_min":0,"x_max":0,"o":"m 328 33 b 283 69 297 -4 250 -10 b 676 617 336 199 549 617 b 694 610 682 617 689 614 b 613 672 700 653 631 672 b 433 507 540 672 443 553 b 425 450 438 499 443 485 b 210 -36 385 368 197 53 b 264 -53 211 -46 256 -53 b 361 44 301 -53 339 14 b 378 81 363 46 388 74 b 328 33 367 82 347 58 z m 922 507 b 982 676 889 558 933 628 b 1054 735 1010 704 1040 721 b 1014 785 1085 768 1049 792 b 957 742 1000 783 982 769 b 397 790 853 743 611 804 b 21 574 218 778 50 713 b 19 551 19 567 19 553 b 125 392 -11 469 78 406 b 138 408 142 386 154 396 b 54 524 110 429 38 456 b 394 735 79 639 228 713 b 939 721 569 761 758 725 b 906 679 931 713 913 692 b 894 500 875 617 876 519 b 922 507 913 478 931 496 z "},"U":{"ha":731,"x_min":0,"x_max":0,"o":"m 661 672 b 540 219 617 581 568 399 b 204 4 446 128 301 4 b 142 171 154 4 121 49 b 413 746 176 361 382 694 b 325 746 422 771 332 767 b 33 525 300 700 113 533 b 29 503 13 524 8 500 b 218 600 86 507 156 547 b 251 600 250 625 263 624 b 63 46 186 438 40 211 b 158 -44 72 -21 111 -44 b 533 169 290 -44 426 67 b 521 -143 515 49 510 -64 b 624 -279 533 -218 561 -278 b 711 -251 651 -281 696 -271 b 729 -225 721 -243 725 -232 b 710 -215 735 -206 724 -201 b 693 -236 703 -222 697 -229 b 625 -231 672 -260 644 -251 b 579 -28 593 -192 578 -122 b 604 221 582 40 590 149 b 926 686 704 351 878 524 b 850 825 946 750 938 819 b 661 672 767 832 707 768 z m 626 310 b 813 757 661 489 710 643 b 883 708 874 824 903 783 b 626 310 847 575 724 401 z "},"V":{"ha":853,"x_min":0,"x_max":0,"o":"m 419 804 b 426 788 424 799 425 794 b 28 596 246 799 19 750 b 33 579 28 590 33 581 b 142 463 35 514 110 469 b 146 476 156 458 161 465 b 63 560 124 490 65 507 b 424 728 56 679 258 728 b 321 447 408 653 361 542 b 181 103 274 333 218 213 b 285 -99 146 -1 147 -97 b 529 4 367 -100 447 -60 b 832 326 633 86 736 206 b 1243 799 1014 561 1163 799 b 1258 797 1246 799 1253 797 b 1258 813 1263 797 1271 806 b 1031 721 1182 854 1075 775 b 801 371 943 614 878 492 b 510 35 718 239 638 131 b 257 31 389 -57 242 -126 b 389 429 269 149 332 296 b 465 728 432 528 461 649 b 589 708 515 726 558 719 b 596 749 672 681 618 739 b 464 783 563 764 515 776 l 457 803 b 419 804 438 836 408 824 z "},"W":{"ha":1403,"x_min":0,"x_max":0,"o":"m 850 414 b 892 632 889 492 894 575 b 793 610 888 754 799 644 b 786 406 783 551 783 461 b 383 7 679 254 538 114 b 128 10 231 -94 69 -161 b 367 424 169 132 272 285 b 526 722 433 524 499 643 b 589 708 550 719 571 714 b 596 749 672 681 618 739 b 540 768 579 756 561 763 b 542 804 543 783 543 796 b 506 808 529 838 496 826 b 506 776 508 801 508 790 b 28 596 322 813 19 775 b 33 579 28 590 33 581 b 142 463 35 514 110 469 b 146 476 156 458 161 465 b 63 560 124 490 65 507 b 485 726 56 694 314 739 b 300 442 446 650 367 538 b 68 86 222 324 133 199 b 125 -126 3 -24 -18 -122 b 418 -11 225 -128 325 -81 b 783 333 542 75 694 222 b 1038 -57 769 118 894 -57 b 1265 729 1325 -60 1499 579 b 1015 706 1197 775 1104 769 b 1036 686 1000 694 1021 676 b 1097 711 1056 700 1076 708 b 1236 665 1154 719 1203 700 b 1082 -4 1397 493 1290 -1 b 850 414 957 -8 847 199 z "},"X":{"ha":944,"x_min":0,"x_max":0,"o":"m 583 725 b 592 764 667 694 613 753 l 563 776 b 540 810 563 794 556 811 b 510 790 529 808 519 801 b 24 610 328 826 15 792 b 29 593 24 604 29 594 b 139 476 29 531 106 485 b 153 492 153 475 168 483 b 58 574 131 507 61 521 b 488 740 51 713 318 754 b 481 708 485 729 482 718 b 519 260 465 561 474 401 b -226 -136 350 81 -33 -258 b -264 -65 -251 -119 -265 -97 b -292 -64 -262 -4 -292 -36 b -240 -176 -293 -114 -276 -150 b 535 213 -7 -337 360 21 b 619 53 556 156 583 101 b 869 14 689 -42 757 -69 b 1035 194 933 61 1019 163 b 1017 206 1042 208 1024 215 b 908 89 999 178 954 131 b 676 115 793 -17 743 6 b 600 289 647 164 621 222 b 972 788 738 447 868 629 b 944 808 986 811 958 825 b 586 336 849 686 728 503 b 556 732 554 463 540 604 z "},"Y":{"ha":731,"x_min":0,"x_max":0,"o":"m 964 767 b 828 763 947 768 888 788 b 783 726 811 756 794 746 b 764 697 776 721 771 711 b 728 617 751 674 742 646 b 204 4 606 358 363 4 b 142 171 154 4 121 49 b 413 746 176 360 382 694 b 325 746 422 771 332 767 b 33 525 300 700 113 533 b 29 503 13 524 8 500 b 218 600 86 507 156 547 b 251 600 250 625 263 624 b 63 46 186 438 40 211 b 158 -44 72 -21 111 -44 b 658 396 315 -44 513 174 b 558 44 614 246 576 90 b 97 -246 378 -14 224 -101 b 618 17 -193 -578 311 -764 b 758 60 631 49 739 69 b 765 79 769 54 774 72 b 638 65 750 88 700 81 b 804 583 661 132 769 493 b 958 739 843 690 885 746 b 964 767 978 739 989 761 z m 550 18 b 329 -386 499 -125 426 -268 b 165 -239 151 -604 -19 -467 b 550 18 267 -114 399 -32 z "},"Z":{"ha":728,"x_min":0,"x_max":0,"o":"m 874 753 b 307 788 708 794 471 843 b 201 596 228 761 144 669 b 218 610 221 572 231 583 b 332 733 196 651 257 714 b 825 693 467 769 690 735 b 481 367 738 649 611 506 b 399 367 454 365 426 365 b 360 394 388 368 382 394 b 283 353 342 396 283 381 b 319 315 283 331 304 315 b 436 318 339 313 383 315 b 128 54 321 194 208 82 b 43 67 90 58 56 72 b 44 -15 0 47 10 -3 b 131 6 57 -21 97 -11 b 842 -294 332 -65 563 -322 b 971 -154 936 -286 979 -219 b 932 -43 965 -121 957 -83 b 910 -49 919 -21 896 -24 b 804 -222 978 -156 876 -212 b 208 7 590 -244 401 -94 b 201 49 194 17 182 32 b 451 254 286 97 382 183 l 517 324 b 757 353 617 331 722 343 b 757 382 814 371 778 381 b 561 372 693 386 625 378 b 874 679 669 496 778 625 b 1024 789 929 667 1031 714 b 874 753 1019 854 901 781 z "},"[":{"ha":621,"x_min":0,"x_max":0,"o":"m 703 714 b 722 747 722 715 756 747 l 563 747 b 519 725 538 747 533 743 b 103 0 447 624 153 124 b 126 -36 96 -18 92 -36 b 278 -29 174 -36 214 -36 b 297 4 299 -28 329 4 l 153 4 b 568 707 257 243 478 582 b 703 714 607 707 646 708 z "},"\\":{"ha":444,"x_min":0,"x_max":0,"o":"m 58 732 b 371 -7 119 629 306 249 b 422 -18 378 -35 424 -44 b 117 736 418 60 160 678 b 58 732 103 757 47 753 z "},"]":{"ha":621,"x_min":0,"x_max":0,"o":"m 121 -1 b 103 -36 100 -3 69 -36 l 263 -36 b 306 -14 286 -36 292 -32 b 722 711 378 88 672 588 b 697 747 729 729 732 747 b 547 742 651 747 611 747 b 528 707 526 740 494 707 l 672 707 b 257 4 568 469 347 129 b 121 -1 217 4 179 3 z "},"^":{"ha":813,"x_min":0,"x_max":0,"o":"m 633 754 b 500 893 599 785 544 881 b 267 768 458 892 306 790 b 271 726 242 753 204 693 b 474 824 342 763 403 790 b 592 718 501 803 564 740 b 633 754 635 683 649 740 z "},"_":{"ha":876,"x_min":0,"x_max":0,"o":"m 0 -92 l 876 -92 l 876 -53 l 0 -53 z "},"‘":{"ha":200,"x_min":0,"x_max":0,"o":"m 197 817 b 182 825 197 822 196 836 b 93 732 169 818 131 776 b 33 631 63 693 33 650 b 69 586 33 615 47 586 b 107 600 76 586 97 586 b 103 672 111 632 86 625 b 165 778 114 713 139 747 b 197 817 182 796 197 813 z "},"a":{"ha":635,"x_min":0,"x_max":0,"o":"m 125 -15 b 392 190 236 -15 368 179 b 369 21 374 142 357 58 b 544 4 397 -62 500 -29 b 725 194 614 54 700 146 b 708 206 732 207 715 215 b 501 13 651 125 547 38 b 438 81 457 -11 429 21 b 521 282 443 125 471 211 b 465 315 533 304 479 315 b 328 178 453 315 347 199 b 193 56 292 139 229 86 b 86 18 174 40 106 -10 b 197 247 43 79 158 211 b 439 367 269 311 367 367 b 508 340 465 367 493 364 b 517 347 515 338 517 338 b 493 385 517 361 507 375 b 354 396 457 410 396 407 b 36 32 250 371 -67 163 b 125 -15 57 4 96 -15 z "},"b":{"ha":542,"x_min":0,"x_max":0,"o":"m 582 663 b 564 803 611 719 618 771 l 536 813 b 318 676 440 839 364 749 b 147 317 256 579 175 394 b 21 142 135 289 89 226 b 36 122 8 125 22 107 b 104 213 79 169 86 192 b 93 35 92 164 75 61 b 149 51 131 -17 154 39 b 281 260 139 114 239 225 b 444 347 321 294 388 347 b 460 253 486 347 468 275 b 311 68 436 176 367 107 b 92 -32 257 28 161 -32 b 111 -56 -32 -32 68 -56 b 346 25 196 -56 276 -22 b 543 299 422 75 557 193 b 444 375 538 333 475 375 b 276 296 385 375 336 347 b 151 157 239 264 186 208 b 194 288 160 201 175 253 b 582 663 326 379 529 556 z m 544 679 b 210 343 478 569 336 426 b 488 756 281 503 369 665 b 544 679 571 822 583 742 z "},"c":{"ha":438,"x_min":0,"x_max":0,"o":"m 526 188 b 526 208 529 193 533 206 b 510 206 524 208 517 214 b 238 4 431 104 363 40 b 110 93 158 -18 78 -10 b 390 361 147 219 319 361 b 411 333 404 361 411 346 b 404 306 411 325 406 315 b 410 290 403 301 404 294 b 444 338 419 278 443 329 b 408 400 454 374 433 392 b 47 158 304 435 89 253 b 218 -32 -15 14 85 -56 b 526 188 356 -8 447 81 z "},"d":{"ha":521,"x_min":0,"x_max":0,"o":"m 125 -15 b 440 243 208 -15 356 144 b 429 -169 404 153 290 -147 b 521 -156 454 -174 501 -169 b 542 -132 529 -147 536 -139 b 526 -121 550 -115 543 -111 b 506 -136 517 -126 513 -132 b 443 -125 479 -157 454 -147 b 444 67 419 -86 422 -21 b 521 292 461 129 493 226 b 929 683 646 400 847 539 b 889 819 961 740 968 804 b 499 381 729 851 592 596 l 493 385 b 354 396 458 410 396 407 b 36 32 250 371 -67 163 b 125 -15 57 4 96 -15 z m 488 358 l 468 311 b 193 56 385 222 286 132 b 86 18 174 40 106 -10 b 197 247 43 79 158 211 b 439 367 269 311 367 367 b 488 358 457 367 474 365 z m 563 372 b 839 763 635 532 714 667 b 894 708 908 815 929 775 b 563 372 832 590 674 444 z "},"e":{"ha":443,"x_min":0,"x_max":0,"o":"m 431 271 b 408 400 457 310 465 381 b 47 158 304 435 89 253 b 290 -17 -29 -17 149 -74 b 531 192 388 24 475 100 b 529 208 536 199 536 206 b 514 204 526 211 519 211 b 272 11 464 128 375 53 b 110 93 182 -25 75 -24 b 342 347 140 194 260 310 b 413 339 361 357 411 378 b 350 249 415 308 374 267 b 176 158 299 207 221 163 b 186 139 156 157 165 138 b 431 271 249 144 381 197 z "},"f":{"ha":397,"x_min":0,"x_max":0,"o":"m 207 317 l 167 214 l 163 214 b 124 236 151 214 146 236 b 40 197 103 236 40 221 b 78 165 40 178 61 165 b 149 171 89 165 117 167 b -108 -469 63 -50 -92 -439 b -25 -465 -129 -511 -46 -476 b 33 -344 -4 -453 0 -431 b 64 -204 49 -307 22 -322 b 207 178 104 -93 168 79 b 415 211 293 190 392 204 b 415 235 474 228 438 235 b 267 225 367 235 315 229 b 642 650 406 336 590 540 b 624 803 672 714 679 771 l 596 813 b 376 676 501 839 424 749 b 207 317 315 579 235 394 z m 235 243 b 349 486 239 256 288 371 b 547 756 403 583 493 714 b 603 669 632 822 644 740 b 224 221 528 539 363 324 b 235 243 228 229 231 239 z "},"g":{"ha":578,"x_min":0,"x_max":0,"o":"m 382 -69 b 661 178 436 -39 600 108 b 654 211 697 219 690 253 b 410 -8 568 111 446 11 b 547 281 461 101 513 204 b 454 301 554 296 467 333 b 225 75 403 239 313 143 b 89 18 169 32 104 -4 b 200 247 44 79 158 211 b 440 367 271 311 368 367 b 508 340 467 367 494 364 b 519 347 515 338 519 338 b 494 385 519 361 508 375 b 356 396 458 410 396 407 b 38 32 251 371 -64 163 b 126 -15 58 4 97 -15 b 328 124 196 -15 276 67 b 439 254 349 146 401 208 b 300 -69 418 190 364 61 b -4 -306 210 -129 65 -225 b -32 -518 -78 -392 -119 -475 b -4 -528 -25 -522 -14 -525 b 224 -375 90 -544 172 -451 b 382 -69 267 -307 322 -192 z m 274 -122 b 49 -467 215 -240 154 -379 b -18 -490 15 -493 -6 -497 b 28 -328 -62 -467 -28 -383 b 274 -122 100 -254 201 -176 z "},"h":{"ha":633,"x_min":0,"x_max":0,"o":"m 186 360 b 168 324 158 375 142 338 b 57 185 138 282 97 236 b 58 150 44 167 44 135 b 172 282 96 190 153 257 b 61 -25 132 179 69 -4 b 135 -11 47 -51 121 -18 b 357 260 161 4 278 188 b 440 269 458 347 465 315 b 367 88 413 218 374 146 b 368 21 363 61 363 38 b 544 4 396 -62 500 -29 b 724 194 613 54 697 146 b 707 206 731 207 715 215 b 500 13 649 125 544 38 b 436 81 454 -11 426 21 b 481 218 439 111 454 164 b 543 365 501 257 547 319 b 425 357 540 408 489 406 b 169 94 349 297 228 167 b 250 310 183 138 207 214 b 644 683 381 415 571 554 b 604 819 676 740 683 804 b 214 392 422 857 238 442 b 193 357 208 381 201 368 z m 278 372 b 554 763 350 532 429 667 b 610 708 624 815 644 775 b 278 372 547 590 389 444 z "},"i":{"ha":314,"x_min":0,"x_max":0,"o":"m 128 285 b 21 142 107 253 69 201 b 36 122 8 125 22 107 b 90 192 65 156 78 176 b 49 21 61 128 38 53 b 224 4 76 -62 179 -29 b 404 194 293 54 378 146 b 388 206 411 207 394 215 b 181 13 329 125 225 38 b 117 81 135 -11 107 21 b 200 282 121 125 158 199 b 228 368 221 325 236 351 b 179 385 221 382 197 386 b 131 303 160 381 146 346 b 128 285 126 294 126 289 z m 288 525 b 265 556 288 553 322 601 b 182 486 257 549 182 493 b 242 457 182 457 217 457 b 288 525 256 457 288 510 z "},"j":{"ha":299,"x_min":0,"x_max":0,"o":"m -56 -375 b 103 -69 -12 -307 43 -192 b 382 178 156 -39 321 108 b 375 211 418 219 411 253 b 131 -10 288 111 167 10 b 281 329 182 101 232 215 b 189 357 288 344 214 388 b 64 193 163 324 110 250 b 79 178 50 178 65 158 b 168 285 104 208 149 260 b 21 -69 128 160 78 49 b -283 -306 -69 -129 -214 -225 b -311 -518 -358 -392 -400 -475 b -283 -528 -304 -522 -293 -525 b -56 -375 -189 -544 -108 -451 z m -6 -122 b -231 -467 -64 -240 -125 -379 b -297 -490 -264 -493 -285 -497 b -251 -328 -342 -467 -307 -383 b -6 -122 -179 -254 -78 -176 z m 367 525 b 343 556 367 553 401 601 b 260 486 335 549 260 493 b 319 457 260 457 294 457 b 367 525 333 457 367 510 z "},"k":{"ha":478,"x_min":0,"x_max":0,"o":"m 189 401 b 182 357 165 415 144 378 b 64 194 154 319 103 242 b 78 174 40 164 69 163 b 153 269 110 219 133 249 b 43 -25 107 153 51 -10 b 119 -11 31 -51 106 -18 b 250 176 139 0 186 86 b 540 -232 283 -7 403 -232 b 647 -149 575 -232 646 -206 b 617 -74 647 -125 626 -85 b 590 -83 599 -60 571 -53 b 578 -194 613 -118 646 -194 b 453 -112 542 -194 494 -162 b 286 222 357 6 328 75 b 488 347 342 281 444 326 b 433 401 554 381 499 433 b 279 254 388 379 314 294 l 274 274 b 246 264 269 308 249 282 b 244 213 243 249 243 232 l 154 94 b 250 344 168 138 207 249 b 533 553 328 378 444 458 b 619 808 572 596 714 757 b 589 819 611 813 600 818 b 200 399 413 854 267 575 b 189 401 196 399 193 400 z m 267 392 b 538 763 340 551 413 667 b 603 783 569 788 592 792 b 501 572 642 753 522 596 b 267 392 431 490 346 428 z "},"l":{"ha":326,"x_min":0,"x_max":0,"o":"m 183 329 b 267 490 215 392 251 463 b 482 763 326 597 397 697 b 538 708 543 808 575 776 b 144 233 464 567 281 326 b 183 329 156 264 168 297 z m 124 178 b 575 683 297 322 461 485 b 517 822 625 774 579 822 b 307 671 422 822 360 739 b 40 81 217 551 49 219 b 146 -31 38 17 63 -31 b 232 0 172 -31 204 -21 b 417 192 301 51 389 143 b 401 206 425 207 408 215 b 197 17 354 139 251 46 b 106 114 117 -29 97 46 b 124 178 107 128 114 150 z "},"m":{"ha":811,"x_min":0,"x_max":0,"o":"m 114 222 b 26 -25 79 122 35 -7 b 100 -11 13 -51 86 -18 b 322 260 126 4 243 188 b 411 274 424 347 436 318 b 328 100 399 250 356 167 b 397 100 307 47 381 60 b 607 274 439 143 522 240 b 568 190 593 253 578 215 b 544 21 549 142 533 58 b 721 4 572 -62 675 -29 b 901 194 790 54 875 146 b 883 206 908 207 890 215 b 676 13 826 125 722 38 b 613 81 632 -11 604 21 b 700 294 618 125 651 221 b 625 313 738 351 640 318 b 433 178 563 289 482 222 b 486 288 446 200 472 261 b 390 357 544 403 481 426 b 135 94 314 297 193 167 b 231 339 151 139 196 263 b 221 379 242 361 243 374 b 149 324 158 396 153 347 b 57 185 125 278 114 260 b 58 150 44 167 44 135 b 114 222 75 167 96 194 z "},"n":{"ha":568,"x_min":0,"x_max":0,"o":"m 369 268 b 367 -31 335 204 221 -17 b 478 4 406 -35 451 -15 b 658 194 547 54 632 146 b 640 206 665 207 647 215 b 433 13 583 125 478 38 b 369 81 389 -11 361 21 b 401 186 374 107 383 144 b 467 324 419 233 451 276 b 356 357 494 407 436 417 b 100 94 279 297 158 167 b 196 339 117 139 161 263 b 186 379 207 361 208 374 b 113 317 114 399 119 333 b -8 -25 85 240 3 3 b 65 -11 -22 -51 51 -18 b 288 260 92 4 208 188 b 369 268 389 347 394 313 z "},"o":{"ha":488,"x_min":0,"x_max":0,"o":"m 313 100 b 168 -8 271 38 211 -8 b 110 93 117 -8 100 39 b 326 361 132 219 265 361 b 353 324 353 361 356 339 b 376 333 353 313 374 311 b 336 400 382 368 361 392 b 181 347 294 415 232 393 b 58 165 118 292 72 218 b 96 -14 33 79 50 14 b 279 14 142 -43 217 -39 b 333 68 297 31 315 49 b 390 33 343 47 367 33 b 531 131 444 33 500 93 b 578 194 551 156 569 178 b 561 206 585 207 568 215 b 513 146 547 186 529 165 b 394 65 485 117 439 65 b 360 103 376 65 361 76 b 419 289 390 146 439 232 b 363 274 408 326 347 313 b 343 153 369 257 381 228 b 308 108 319 160 300 138 b 313 100 308 104 311 103 z "},"p":{"ha":514,"x_min":0,"x_max":0,"o":"m 489 310 b 429 372 485 340 460 361 b 250 326 360 396 304 371 b 119 167 200 288 163 226 b 200 336 144 226 165 282 b 181 433 236 393 242 433 b 138 417 161 433 138 431 b -1 -1 135 343 64 171 b -192 -462 -76 -196 -157 -392 b -94 -454 -219 -522 -103 -474 b -54 -351 -78 -424 -67 -389 b -40 -261 -42 -315 -53 -299 b 44 -24 -12 -176 21 -79 b 322 54 126 -49 257 13 b 489 310 392 101 503 204 z m 57 -1 b 328 339 128 142 179 261 b 394 232 431 393 440 311 b 57 -1 332 125 175 -1 z "},"q":{"ha":635,"x_min":0,"x_max":0,"o":"m 424 26 b 589 400 474 181 536 358 b 535 463 710 497 564 496 l 499 381 l 493 385 b 336 399 458 410 376 408 b 36 32 232 371 -67 163 b 125 -15 57 4 96 -15 b 440 243 208 -15 356 144 b 304 -108 431 215 339 -10 b 250 -482 271 -204 189 -390 b 471 -364 311 -574 451 -562 b 438 -31 475 -300 460 -132 b 543 4 475 -32 519 -15 b 724 194 613 54 697 146 b 707 206 731 207 714 215 b 500 13 649 125 544 38 b 424 26 468 -4 438 0 z m 488 358 l 468 311 b 193 56 385 222 286 132 b 86 18 174 40 106 -10 b 197 247 43 79 158 211 b 439 367 269 311 367 367 b 488 358 457 367 474 365 z m 401 -39 b 411 -43 406 -25 411 -36 b 436 -244 419 -93 432 -185 b 336 -501 440 -315 444 -501 b 292 -442 314 -501 294 -483 b 401 -39 279 -314 354 -161 z "},"r":{"ha":438,"x_min":0,"x_max":0,"o":"m 64 157 b 217 368 119 225 167 297 b 279 361 238 368 257 365 b 290 261 375 346 311 285 b 172 17 239 208 147 107 b 239 -35 182 -22 208 -35 b 347 4 278 -35 322 -15 b 528 194 417 54 501 146 b 510 206 535 207 517 215 b 304 13 453 125 349 38 b 260 90 258 -11 238 28 b 385 297 276 135 322 225 b 383 396 433 353 467 400 b 238 399 333 393 285 396 l 292 485 b 260 519 329 553 300 538 b 147 401 218 500 160 443 b 176 368 142 385 156 371 b 47 172 140 299 97 233 b 64 157 26 146 50 139 z "},"s":{"ha":411,"x_min":0,"x_max":0,"o":"m 107 17 b 104 31 117 21 114 33 b 38 -10 78 19 51 4 b 19 -65 22 -28 10 -51 b 119 -81 35 -94 93 -86 b 314 21 188 -65 267 -32 b 204 225 417 136 299 169 b 189 317 165 249 160 276 b 308 417 224 365 263 394 b 460 461 342 433 417 464 b 458 386 499 457 481 408 b 465 365 440 368 458 360 b 508 413 485 378 500 393 b 422 507 540 478 485 507 b 126 308 322 507 140 417 b 51 178 117 281 92 233 b 71 165 42 163 58 150 b 133 261 96 201 118 235 b 181 211 142 240 160 225 b 285 125 207 193 285 164 b 113 -56 285 44 182 -35 b 69 -14 61 -69 49 -42 b 107 17 78 -3 92 10 z "},"t":{"ha":314,"x_min":0,"x_max":0,"o":"m 408 399 b 278 389 356 400 321 393 l 260 388 l 326 504 b 356 533 335 521 349 519 b 368 590 364 546 381 574 b 313 604 360 603 333 607 b 256 528 293 601 290 588 l 186 399 b 181 396 183 399 182 399 b 107 371 154 394 118 394 b 126 340 99 353 113 340 b 158 343 133 340 144 340 b 128 285 140 310 128 288 b 21 142 107 253 69 201 b 36 122 8 125 22 107 b 90 192 65 156 78 176 b 49 21 61 128 38 53 b 224 4 76 -62 179 -29 b 404 194 293 54 378 146 b 388 206 411 207 394 215 b 181 13 329 125 225 38 b 117 81 135 -11 107 21 b 200 282 121 125 158 199 b 239 351 204 294 221 318 b 396 375 304 358 375 368 b 408 399 454 389 425 399 z "},"u":{"ha":618,"x_min":0,"x_max":0,"o":"m 708 194 b 690 206 715 207 697 215 b 485 13 633 125 529 38 b 419 81 439 -11 411 21 b 464 218 426 131 443 178 b 550 368 482 254 533 340 b 478 406 564 393 496 406 b 388 253 460 378 413 289 b 225 56 336 178 276 97 b 110 128 128 -22 65 10 b 246 322 144 221 215 294 b 249 350 256 329 265 343 b 174 350 229 357 197 357 b 107 264 161 346 126 294 b 58 32 57 188 26 83 b 156 -15 76 3 128 -15 b 376 200 269 -15 356 186 b 353 21 357 151 340 58 b 528 4 381 -62 482 -29 b 708 194 597 54 682 146 z "},"v":{"ha":438,"x_min":0,"x_max":0,"o":"m 642 458 b 547 479 631 479 586 496 b 406 378 492 456 450 419 b 125 44 300 278 214 160 b 163 201 121 76 146 151 b 215 343 168 219 214 324 b 201 385 217 358 211 374 b 128 403 183 406 154 403 b 71 392 111 401 79 399 b 71 374 63 382 58 371 b 128 310 117 386 128 353 b 51 178 118 282 93 235 b 71 165 42 163 58 150 b 117 233 89 190 104 213 b 100 172 111 207 104 185 b 56 6 85 117 64 60 b 99 -60 51 -24 64 -60 b 117 -49 104 -60 117 -58 b 364 290 125 11 251 174 b 578 440 410 336 521 440 b 625 433 593 440 614 443 b 642 458 647 415 651 447 z "},"w":{"ha":764,"x_min":0,"x_max":0,"o":"m 756 324 b 676 169 744 275 714 218 b 510 24 625 104 568 53 b 436 157 394 -39 419 100 b 496 297 450 206 468 253 b 413 324 514 324 424 343 b 215 56 363 235 290 118 b 118 129 117 -22 75 11 b 281 358 153 222 250 332 b 276 385 292 367 292 379 b 201 386 257 393 225 393 b 107 264 188 381 126 294 b 146 -15 56 188 -14 -15 b 367 200 258 -15 346 169 b 363 32 347 151 350 68 b 554 14 390 -51 508 -18 b 711 160 596 44 661 100 b 806 436 788 253 840 361 b 675 471 785 483 710 478 b 679 454 665 468 668 450 b 717 451 693 456 707 456 b 756 324 763 435 764 364 z "},"x":{"ha":569,"x_min":0,"x_max":0,"o":"m 269 138 b 388 -24 286 88 326 -10 b 531 33 426 -32 467 -25 b 658 192 585 86 642 167 b 642 206 668 207 651 215 b 528 65 621 179 572 114 b 381 60 475 11 422 -18 b 329 193 353 110 329 172 b 429 271 329 193 417 263 b 561 350 458 296 493 324 b 593 367 571 353 593 347 b 531 396 593 393 558 410 b 322 228 451 346 390 294 b 229 367 299 296 297 367 b 65 194 183 367 99 236 b 83 181 51 178 65 160 b 225 260 149 257 188 326 b 253 179 244 226 253 197 b -42 -268 253 160 -42 -99 b -19 -268 -42 -286 -21 -294 b 269 138 -14 -156 186 53 z "},"y":{"ha":578,"x_min":0,"x_max":0,"o":"m 382 -69 b 669 190 458 -28 614 115 b 658 214 686 213 675 235 b 410 -8 575 111 444 10 b 578 364 461 101 543 288 b 486 385 585 379 499 417 b 217 65 396 275 321 164 b 103 26 176 26 128 7 b 142 194 65 53 119 165 b 263 313 183 249 231 294 b 168 333 281 326 229 392 b 56 188 124 294 86 249 b 126 -15 15 110 3 -15 b 465 304 253 -15 390 218 b 300 -69 444 240 364 61 b -4 -306 210 -129 65 -225 b -32 -518 -78 -392 -119 -475 b -4 -528 -25 -522 -14 -525 b 224 -375 90 -544 172 -451 b 382 -69 267 -307 322 -192 z m 274 -122 b 63 -468 215 -240 168 -383 b 28 -328 -42 -551 -78 -433 b 274 -122 100 -254 201 -176 z "},"z":{"ha":586,"x_min":0,"x_max":0,"o":"m 154 318 l 61 190 b 63 167 54 179 57 171 b 90 188 69 160 83 179 b 176 285 114 221 146 257 b 300 324 208 315 242 331 b 419 294 340 318 374 308 b 204 93 363 239 279 157 b 161 56 201 89 183 74 b 72 60 131 65 99 68 b 22 -35 14 40 3 -24 b 132 10 44 -46 90 -22 b 186 -17 153 3 172 -8 b 396 -62 258 -62 322 -87 b 461 -28 408 -58 429 -51 b 683 200 531 24 654 150 b 660 206 690 213 667 215 b 432 -10 607 132 489 24 b 222 28 363 -49 299 -18 l 181 49 b 217 81 196 61 208 74 b 457 285 293 149 392 232 b 576 364 494 276 579 315 b 468 339 572 406 488 357 l 361 364 b 154 318 288 381 221 414 z "},"{":{"ha":575,"x_min":0,"x_max":0,"o":"m 557 733 b 557 760 575 733 575 760 b 444 754 519 760 482 761 b 326 692 394 746 354 722 b 271 497 264 622 278 563 b 93 399 260 403 172 399 b 92 371 76 399 75 374 b 147 229 197 354 207 315 b 64 21 106 171 56 97 b 258 -81 75 -81 207 -92 b 263 -57 276 -78 279 -53 b 121 32 218 -67 131 -46 b 201 221 113 100 165 167 b 165 379 238 274 242 339 b 308 490 244 393 279 403 b 374 658 329 554 336 601 b 557 733 425 736 475 733 z "},"|":{"ha":357,"x_min":0,"x_max":0,"o":"m 225 -85 l 225 794 l 179 794 l 179 -85 z "},"}":{"ha":647,"x_min":0,"x_max":0,"o":"m 438 733 b 558 658 519 733 572 736 b 481 490 549 601 514 554 b 531 379 436 403 461 393 b 363 221 419 339 369 274 b 283 32 354 167 347 100 b 65 -57 208 -46 103 -67 b 50 -81 51 -53 36 -78 b 332 21 93 -92 235 -81 b 424 229 404 97 415 171 b 597 371 436 315 479 354 b 618 399 618 374 635 399 b 524 497 540 399 457 403 b 632 692 572 563 638 622 b 568 754 631 722 610 746 b 460 760 536 761 499 760 b 438 733 443 760 419 733 z "},"~":{"ha":568,"x_min":0,"x_max":0,"o":"m 558 563 b 535 567 563 569 540 575 b 451 525 519 524 493 513 b 339 576 413 538 367 567 b 186 476 274 600 228 535 b 207 471 182 471 201 464 b 276 519 222 496 246 513 b 431 479 328 531 378 499 b 558 563 482 463 535 507 z "},"¡":{"ha":397,"x_min":0,"x_max":0,"o":"m 283 343 b 236 351 299 385 242 365 b 43 -67 189 207 113 67 b 13 -104 35 -85 22 -86 b -21 -196 -11 -143 -21 -176 b 44 -240 -21 -222 29 -258 b 118 -81 57 -225 85 -160 b 283 343 172 44 238 214 z m 278 514 b 315 499 278 492 271 463 b 361 544 322 504 361 539 b 314 568 361 568 333 568 b 278 514 304 568 278 526 z "},"¢":{"ha":640,"x_min":0,"x_max":0,"o":"m 599 711 b 569 736 617 733 586 756 b 526 674 561 728 544 706 b 83 260 354 660 83 435 b 190 100 83 176 125 122 b 138 -18 161 42 140 -1 b 201 -7 132 -44 189 -35 b 243 88 214 24 229 54 b 336 93 272 86 304 88 b 599 219 440 110 526 157 b 592 247 624 242 631 278 b 374 135 533 197 465 160 b 260 122 339 124 297 118 b 542 625 346 303 464 504 b 568 628 550 625 558 628 b 586 553 610 628 606 593 b 613 535 579 540 590 504 b 638 583 625 553 635 579 b 589 669 653 632 624 657 l 572 672 z m 210 135 b 154 263 161 151 132 192 b 486 611 218 463 374 572 b 210 135 404 479 285 275 z "},"£":{"ha":763,"x_min":0,"x_max":0,"o":"m 425 382 b 281 372 378 382 329 378 b 528 739 354 518 454 688 b 711 686 597 785 707 801 b 697 628 711 667 708 646 b 721 608 681 596 703 586 b 749 688 738 632 746 664 b 665 801 750 746 714 782 b 426 728 579 832 488 794 b 217 365 346 636 274 499 b 174 361 203 364 188 361 b 133 385 161 360 156 385 b 50 344 113 385 50 368 b 89 311 50 325 71 311 b 200 324 104 311 147 317 b 114 104 167 242 138 165 b 107 103 111 104 110 103 b 22 -11 63 88 24 40 b 57 -14 22 -29 38 -25 b 69 -8 61 -14 65 -11 b 107 24 72 -11 90 -1 l 140 54 b 447 -28 169 42 411 -21 b 672 4 526 -43 604 -46 b 853 194 742 54 826 146 b 835 206 860 207 842 215 b 710 72 801 160 756 108 b 482 26 642 19 563 17 b 204 93 394 39 278 68 b 154 107 188 97 172 103 b 263 331 188 178 228 260 b 425 358 335 340 406 353 b 425 382 486 378 447 382 z "},"⁄":{"ha":621,"x_min":0,"x_max":0,"o":"m 583 732 b 528 736 599 753 544 757 b 96 -18 474 678 113 60 b 149 -7 90 -44 138 -35 b 583 732 257 249 506 629 z "},"¥":{"ha":707,"x_min":0,"x_max":0,"o":"m 647 343 b 658 419 683 375 697 379 b 438 600 597 479 519 528 b 389 567 390 642 343 608 b 582 353 429 528 524 461 b 243 111 436 214 301 163 b 239 60 186 61 215 44 b 647 343 336 121 529 229 z m 606 -57 b 604 -17 654 -51 663 -17 b 124 -18 547 -17 153 -18 b 111 -69 93 -18 47 -72 b 606 -57 158 -67 542 -62 z "},"ƒ":{"ha":397,"x_min":0,"x_max":0,"o":"m 415 233 b 208 215 347 233 278 222 b 593 775 332 504 478 768 b 635 729 618 775 635 757 b 632 701 635 721 632 708 b 647 681 632 686 639 681 b 683 722 665 681 683 700 b 564 811 683 781 617 811 b 294 531 436 811 340 631 b 167 213 250 431 204 315 l 163 213 b 124 235 151 213 146 235 b 40 194 103 235 40 219 b 78 164 40 176 61 164 b 151 167 97 164 124 165 b -46 -315 99 32 1 -187 b -254 -586 -76 -397 -150 -586 b -325 -493 -319 -586 -296 -493 b -354 -531 -340 -493 -354 -511 b -224 -625 -349 -592 -279 -625 b 6 -342 -94 -625 -26 -442 b 190 172 47 -206 113 -15 b 447 225 307 186 447 215 b 415 233 447 229 429 233 z "},"§":{"ha":739,"x_min":0,"x_max":0,"o":"m 294 413 b 507 350 356 375 444 367 b 604 121 683 297 683 199 b 556 81 596 111 572 94 b 375 160 513 121 443 143 b 174 281 293 183 174 200 b 294 413 174 332 229 385 z m 575 61 b 715 261 640 101 715 186 b 492 438 715 367 599 408 b 290 556 410 458 290 476 b 515 701 290 636 417 685 b 772 656 558 711 774 739 b 799 643 772 636 788 618 b 804 678 801 656 804 665 b 508 757 806 789 572 774 b 228 532 411 733 229 656 b 272 428 225 483 244 450 b 111 256 190 388 113 336 b 392 74 110 107 288 104 b 536 -39 494 44 536 3 b 342 -210 536 -106 446 -175 b 3 -114 265 -233 -61 -285 b -12 -101 10 -94 -4 -85 b -35 -185 -26 -126 -35 -154 b 356 -247 -35 -333 274 -278 b 600 -15 479 -203 600 -114 b 575 61 600 14 590 39 z "},"¤":{"ha":2083,"x_min":0,"x_max":0,"o":""},"'":{"ha":201,"x_min":0,"x_max":0,"o":"m 169 551 b 154 639 175 574 207 639 b 113 560 93 639 114 604 b 107 426 113 547 114 461 b 132 421 104 401 126 394 b 169 551 146 476 161 514 z "},"“":{"ha":231,"x_min":0,"x_max":0,"o":"m 197 817 b 182 825 197 822 196 836 b 93 732 169 818 131 776 b 33 631 63 693 33 650 b 69 586 33 615 47 586 b 107 600 76 586 97 586 b 103 672 111 632 86 625 b 165 778 114 713 139 747 b 197 817 182 796 197 813 z m 342 817 b 326 825 342 822 342 836 b 239 732 315 818 276 776 b 179 631 207 693 179 650 b 215 586 179 615 193 586 b 253 600 222 586 243 586 b 249 672 257 632 232 625 b 311 778 260 713 283 747 b 342 817 326 796 342 813 z "},"«":{"ha":526,"x_min":0,"x_max":0,"o":"m 321 301 b 314 247 297 276 286 275 b 422 114 356 207 390 164 b 446 136 440 82 460 101 b 367 294 433 164 406 219 b 510 443 467 389 481 408 b 513 479 542 479 524 490 b 321 301 425 407 404 378 z m 139 301 b 132 247 114 278 104 275 b 242 114 174 206 210 164 b 264 136 260 82 278 101 b 186 294 253 164 224 219 b 328 443 286 389 299 408 b 332 479 360 479 343 490 b 139 301 244 407 222 379 z "},"‹":{"ha":410,"x_min":0,"x_max":0,"o":"m 139 301 b 132 247 114 278 104 275 b 242 114 174 206 210 164 b 264 136 260 82 278 101 b 186 294 253 164 224 219 b 328 443 286 389 299 408 b 332 479 360 479 343 490 b 139 301 244 407 222 379 z "},"›":{"ha":396,"x_min":0,"x_max":0,"o":"m 325 292 b 332 346 349 317 357 319 b 222 479 290 388 253 429 b 200 457 203 511 186 493 b 278 301 210 431 239 375 b 135 150 176 204 167 186 b 132 114 106 115 119 104 b 325 292 218 186 242 215 z "},"ﬁ":{"ha":638,"x_min":0,"x_max":0,"o":"m 682 701 b 617 804 683 743 654 790 b 294 532 460 861 347 644 b 167 214 250 433 203 317 l 163 214 b 124 236 151 214 146 236 b 40 197 103 236 40 221 b 78 165 40 178 61 165 b 151 172 90 165 118 167 l 107 49 b -108 -469 43 -129 -22 -301 b -25 -465 -129 -511 -46 -476 b 33 -344 -4 -453 0 -431 b 64 -204 49 -307 22 -322 b 208 181 104 -93 169 82 b 368 211 276 192 347 204 b 369 235 429 228 390 235 b 224 219 307 235 271 226 b 235 243 228 229 231 236 b 353 493 260 301 301 396 b 440 649 381 547 411 601 b 599 776 503 743 563 778 b 576 614 686 769 599 646 b 533 525 557 583 506 542 b 682 701 610 476 679 635 z m 728 194 b 710 206 735 207 717 215 b 503 13 653 125 549 38 b 439 81 458 -11 431 21 b 522 282 444 125 481 199 b 550 368 543 325 558 351 b 501 385 543 382 521 386 b 453 303 482 381 468 346 b 397 157 443 274 418 214 b 440 -31 376 96 333 -25 b 547 4 479 -32 522 -15 b 728 194 617 54 701 146 z "},"ﬂ":{"ha":725,"x_min":0,"x_max":0,"o":"m 683 721 b 617 804 686 763 654 790 b 294 532 460 861 347 644 b 167 214 250 433 203 317 l 163 214 b 124 236 151 214 146 236 b 40 197 103 236 40 221 b 78 165 40 178 61 165 l 149 165 l 107 49 b -108 -469 43 -129 -22 -301 b -25 -465 -129 -511 -46 -476 b 33 -344 -4 -453 0 -431 b 64 -204 49 -307 22 -322 b 203 165 103 -99 163 65 b 468 208 283 169 375 178 b 438 81 451 158 439 114 b 543 -31 436 17 460 -31 b 631 0 569 -31 603 -21 b 814 192 700 51 786 143 b 799 206 822 207 806 215 b 596 17 751 139 649 46 b 503 114 514 -29 494 46 b 544 240 506 125 517 183 b 619 282 569 253 596 267 b 757 394 661 308 710 346 b 972 683 839 482 913 579 b 915 822 1022 774 978 822 b 704 671 819 822 757 739 b 479 239 640 586 536 393 b 221 213 388 214 297 213 b 235 243 225 226 231 236 b 353 493 260 301 301 396 b 440 649 381 547 411 601 b 617 674 569 846 679 782 b 618 628 593 636 593 618 b 683 721 660 642 682 686 z m 582 329 b 665 490 613 392 649 463 b 881 763 724 597 794 697 b 936 708 940 808 972 776 b 736 421 894 629 819 519 b 565 271 675 350 619 303 l 556 267 b 582 329 568 297 565 297 z "},"–":{"ha":522,"x_min":0,"x_max":0,"o":"m 649 232 b 724 254 661 233 724 236 b 647 271 722 263 693 271 b 244 269 590 271 274 269 b 231 219 215 269 167 215 b 649 232 278 221 585 226 z "},"†":{"ha":349,"x_min":0,"x_max":0,"o":"m 439 664 b 374 700 450 685 388 715 b 263 463 360 683 314 586 b 142 440 215 458 169 451 b 119 400 125 431 119 414 b 165 392 124 365 151 386 b 242 413 190 400 215 407 b 56 -118 153 194 51 -71 b 92 -119 61 -136 83 -126 b 315 424 142 47 229 246 b 468 431 367 429 418 431 b 475 451 492 431 489 449 b 335 464 450 457 394 463 b 439 664 371 535 406 603 z "},"‡":{"ha":349,"x_min":0,"x_max":0,"o":"m 403 269 b 249 282 374 276 313 282 l 315 424 b 468 431 367 429 418 431 b 475 451 492 431 489 449 b 335 464 450 457 394 463 b 439 664 371 535 406 603 b 374 700 450 685 388 715 b 263 463 360 683 314 586 b 142 440 215 458 169 451 b 119 400 125 431 119 414 b 165 392 124 365 151 386 b 242 413 190 400 215 407 l 189 281 b 69 260 140 278 97 271 b 47 218 51 250 44 233 b 92 208 50 185 78 204 b 169 232 117 218 142 225 b 56 -118 106 68 54 -83 b 92 -119 61 -136 83 -126 b 231 242 125 -8 175 117 b 396 249 286 249 342 249 b 403 269 417 249 415 267 z "},"·":{"ha":288,"x_min":0,"x_max":0,"o":"m 246 256 b 208 271 246 276 253 306 b 163 225 201 264 163 232 b 210 201 163 201 190 201 b 246 256 222 201 246 242 z "},"¶":{"ha":735,"x_min":0,"x_max":0,"o":"m 586 747 b 585 761 590 753 589 757 b 665 754 611 761 638 757 b 501 357 635 700 565 531 b 394 344 467 350 431 346 b 586 747 457 486 526 625 z m 378 311 b 485 310 415 308 450 308 b 367 -83 419 131 363 -42 b 401 -94 371 -104 392 -104 b 739 747 451 183 617 500 b 696 775 749 763 718 775 b 229 732 561 815 353 789 b 242 336 21 632 14 401 b 333 317 272 326 301 319 b 214 -83 267 135 210 -42 b 249 -94 218 -104 239 -104 b 378 311 272 35 321 174 z m 346 346 b 288 353 326 347 307 350 b 515 760 -39 415 167 729 b 346 346 488 711 413 531 z "},"•":{"ha":579,"x_min":0,"x_max":0,"o":"m 278 139 b 542 360 436 139 542 260 b 367 492 542 444 481 492 b 96 276 193 492 96 375 b 278 139 96 197 147 139 z "},"‚":{"ha":267,"x_min":0,"x_max":0,"o":"m 189 21 b 174 110 194 44 225 110 b 132 31 113 110 133 75 b 126 -104 132 18 133 -69 b 153 -108 124 -128 146 -135 b 189 21 165 -53 181 -15 z "},"„":{"ha":432,"x_min":0,"x_max":0,"o":"m 343 21 b 329 110 349 44 381 110 b 288 31 269 110 290 75 b 281 -104 288 18 286 -69 b 307 -108 278 -128 300 -135 b 343 21 321 -53 335 -15 z m 189 21 b 174 110 194 44 225 110 b 132 31 113 110 133 75 b 126 -104 132 18 133 -69 b 153 -108 124 -128 146 -135 b 189 21 165 -53 181 -15 z "},"”":{"ha":422,"x_min":0,"x_max":0,"o":"m 315 781 b 279 825 315 796 301 825 b 242 811 272 825 251 825 b 249 739 238 778 264 785 b 183 632 236 699 211 664 b 153 594 168 615 153 596 b 168 586 153 589 153 575 b 257 679 179 593 218 635 b 315 781 288 718 315 761 z m 461 781 b 425 825 461 796 447 825 b 388 811 418 825 397 825 b 392 739 383 778 408 785 b 329 632 381 699 356 664 b 297 594 313 615 297 596 b 313 586 297 589 299 575 b 401 679 325 593 364 635 b 461 781 432 718 461 761 z "},"»":{"ha":526,"x_min":0,"x_max":0,"o":"m 325 292 b 332 346 349 317 357 319 b 222 479 290 388 253 429 b 200 457 203 511 186 493 b 278 301 210 431 239 375 b 135 150 176 204 167 186 b 132 114 106 115 119 104 b 325 292 218 186 242 215 z m 506 292 b 513 346 531 317 540 319 b 403 479 471 388 433 429 b 381 457 383 511 367 493 b 460 301 390 431 419 375 b 315 150 357 204 347 186 b 314 114 286 115 301 104 b 506 292 399 186 424 215 z "},"…":{"ha":626,"x_min":0,"x_max":0,"o":"m 174 38 b 135 53 174 60 181 88 b 90 6 128 47 90 13 b 138 -17 90 -17 118 -17 b 174 38 149 -17 174 25 z m 394 38 b 354 53 394 60 401 88 b 308 6 347 47 308 13 b 356 -17 308 -17 336 -17 b 394 38 368 -17 394 25 z m 606 38 b 568 53 606 60 613 88 b 522 6 561 47 522 13 b 569 -17 522 -17 550 -17 b 606 38 579 -17 606 25 z "},"‰":{"ha":903,"x_min":0,"x_max":0,"o":"m 818 117 b 711 11 804 76 763 11 b 681 122 651 10 668 88 b 786 228 694 163 736 226 b 818 117 847 229 829 150 z m 878 160 b 794 253 888 229 842 253 b 621 82 717 250 633 186 b 708 -18 614 26 639 -21 b 878 160 783 -17 868 68 z m 513 117 b 408 11 499 76 458 11 b 375 122 347 10 363 88 b 482 228 389 163 432 226 b 513 117 543 229 524 150 z m 572 160 b 492 253 582 229 536 253 b 315 82 411 250 328 186 b 404 -18 311 26 335 -21 b 572 160 479 -17 563 68 z m 328 719 b 267 740 311 735 288 740 b 92 568 188 739 104 674 b 179 469 85 514 110 468 b 349 649 253 471 336 556 b 347 688 350 664 349 678 b 517 693 397 672 465 676 b 85 -18 415 533 106 51 b 139 -7 78 -44 125 -35 b 625 732 264 249 540 631 b 547 736 642 754 565 754 b 328 719 499 701 390 693 z m 288 603 b 182 497 274 565 235 499 b 151 610 121 496 139 575 b 257 715 165 649 207 715 b 288 603 318 718 300 638 z "},"¿":{"ha":568,"x_min":0,"x_max":0,"o":"m 453 514 b 492 499 453 492 446 463 b 536 544 499 504 536 539 b 489 568 536 568 508 568 b 453 514 478 568 453 526 z m 354 -206 b 36 -126 256 -257 69 -275 b 260 215 3 28 151 142 b 392 357 321 260 382 304 b 422 353 396 374 425 375 b 285 185 415 297 349 240 b 121 -101 186 100 121 40 b 221 -218 121 -167 158 -218 b 390 -129 283 -218 347 -171 b 496 -53 433 -87 499 40 b 485 -126 496 -78 492 -107 b 403 -187 475 -149 453 -181 b 354 -206 388 -189 368 -199 z "},"`":{"ha":475,"x_min":0,"x_max":0,"o":"m 326 475 b 186 581 279 510 232 544 b 106 611 156 601 131 621 b 135 542 56 594 117 553 b 321 458 194 510 301 458 b 326 475 339 458 333 471 z "},"´":{"ha":251,"x_min":0,"x_max":0,"o":"m 450 507 b 440 553 460 517 460 540 b 401 558 433 554 417 565 b 297 469 375 524 333 500 b 221 415 281 457 222 419 b 225 400 215 410 208 400 b 447 506 250 401 418 482 z "},"ˆ":{"ha":635,"x_min":0,"x_max":0,"o":"m 561 485 b 450 614 536 524 475 603 b 294 492 422 611 319 511 b 307 471 281 479 265 444 b 432 565 350 500 388 538 b 547 464 447 547 531 482 b 561 485 569 444 569 472 z "},"˜":{"ha":568,"x_min":0,"x_max":0,"o":"m 558 563 b 535 567 563 569 540 575 b 451 525 519 524 493 513 b 339 576 413 538 367 567 b 186 476 274 600 228 535 b 207 471 182 471 201 464 b 276 519 222 496 246 513 b 431 479 328 531 378 499 b 558 563 482 463 535 507 z "},"¯":{"ha":524,"x_min":0,"x_max":0,"o":"m 436 500 b 510 524 446 503 510 506 b 433 540 508 532 479 540 b 228 539 376 540 258 539 b 215 489 200 539 151 485 b 436 500 263 490 369 496 z "},"˘":{"ha":438,"x_min":0,"x_max":0,"o":"m 465 674 b 454 672 464 676 457 679 b 165 651 390 471 161 493 b 117 646 165 674 124 690 b 474 658 82 414 424 454 b 465 674 474 663 472 671 z "},"˙":{"ha":318,"x_min":0,"x_max":0,"o":"m 300 635 b 260 650 300 657 307 686 b 215 604 253 644 215 610 b 263 581 215 581 243 581 b 300 635 274 581 300 622 z "},"¨":{"ha":544,"x_min":0,"x_max":0,"o":"m 333 519 b 315 544 333 540 361 581 b 250 489 308 539 250 496 b 297 465 250 465 278 465 b 333 519 308 465 333 506 z m 554 519 b 536 544 554 540 582 581 b 471 489 529 539 471 496 b 517 465 471 465 496 465 b 554 519 528 465 554 506 z "},"˚":{"ha":492,"x_min":0,"x_max":0,"o":"m 313 725 b 224 658 304 700 271 658 b 174 694 190 658 175 676 b 271 796 169 732 218 796 b 313 725 326 796 321 746 z m 350 754 b 272 813 350 797 311 813 b 190 792 242 813 207 804 b 138 721 158 771 140 740 b 181 649 132 685 151 660 b 290 658 211 636 257 638 b 350 754 325 683 350 718 z "},"¸":{"ha":649,"x_min":0,"x_max":0,"o":"m 72 -336 b 451 -218 147 -461 451 -358 b 276 -126 451 -154 389 -104 b 354 -17 286 -111 347 -32 b 307 -17 363 0 314 -1 b 238 -140 297 -43 256 -118 b 297 -156 211 -175 246 -167 b 388 -218 353 -143 388 -175 b 92 -326 388 -333 158 -426 b 72 -336 76 -303 56 -306 z "},"˝":{"ha":432,"x_min":0,"x_max":0,"o":"m 432 657 b 446 746 444 678 496 746 b 378 664 383 746 394 711 b 329 532 374 653 346 567 b 353 526 318 507 336 499 b 432 657 383 582 411 621 z m 276 657 b 290 746 288 678 342 746 b 222 664 229 746 238 711 b 174 532 218 653 190 567 b 197 526 161 507 182 499 b 276 657 229 582 256 621 z "},"˛":{"ha":2083,"x_min":0,"x_max":0,"o":"m 489 -240 b 236 -399 458 -265 269 -447 b 347 -169 193 -337 307 -206 b 550 -21 418 -106 496 -74 b 503 -21 558 -11 519 -10 b 278 -168 454 -53 357 -112 b 186 -385 189 -229 133 -321 b 274 -432 207 -412 244 -432 b 507 -258 385 -432 486 -282 b 489 -240 526 -237 519 -212 z "},"ˇ":{"ha":635,"x_min":0,"x_max":0,"o":"m 294 593 b 408 464 321 554 381 475 b 561 586 433 465 536 567 b 550 607 576 597 590 632 b 425 514 506 576 471 542 b 308 614 410 532 326 597 b 294 593 288 635 286 607 z "},"—":{"ha":1007,"x_min":0,"x_max":0,"o":"m 929 232 b 1003 254 940 233 1003 236 b 926 271 1001 263 972 271 b 244 269 869 271 274 269 b 231 219 215 269 167 215 b 929 232 278 221 864 226 z "},"Æ":{"ha":1186,"x_min":0,"x_max":0,"o":"m 911 322 b 882 338 917 336 894 338 b 607 339 832 338 724 338 b 804 669 647 421 771 650 b 1083 715 849 694 978 713 b 1043 665 1065 700 1051 679 b 1033 531 1019 617 1021 544 b 1056 535 1049 513 1061 525 b 1103 663 1031 574 1064 625 b 1158 707 1124 683 1147 697 b 1126 743 1182 732 1153 749 b 1118 742 1124 743 1119 742 b 814 742 1019 750 896 749 b 729 729 783 740 753 736 b 646 763 721 754 663 763 b 147 344 481 763 221 457 b 106 340 139 343 124 340 b 90 290 50 338 50 290 l 117 290 b 1 -81 69 215 -14 14 b 31 -115 3 -90 21 -115 b 38 -104 36 -115 36 -107 b 174 296 44 -1 107 186 b 406 296 189 297 299 296 b 411 296 408 297 410 296 b 526 297 432 297 474 297 b 676 -50 467 142 447 -50 b 1182 172 917 -50 1100 74 b 1169 194 1190 183 1182 208 b 717 -4 1068 75 874 -4 b 590 299 528 -4 550 188 b 821 306 675 299 767 303 b 911 322 878 310 908 310 z m 196 340 b 653 740 307 503 464 688 b 683 672 665 733 688 721 b 543 339 676 546 593 450 b 264 340 444 339 342 340 z "},"Ł":{"ha":654,"x_min":0,"x_max":0,"o":"m 572 86 b 294 -3 500 39 426 -3 b 201 374 78 -3 114 188 b 281 400 229 382 258 392 b 349 440 293 406 354 422 b 271 438 346 449 314 449 l 228 428 b 399 707 293 554 374 669 b 376 742 419 736 417 736 b 307 665 301 736 281 713 b 138 403 271 621 190 499 b 71 386 107 394 83 388 b 72 333 43 379 10 315 l 107 344 l 96 317 b 243 -31 29 157 6 -31 b 524 -7 353 -31 467 -22 b 572 86 606 17 628 121 z "},"Ø":{"ha":853,"x_min":0,"x_max":0,"o":"m 790 732 l 751 686 l 753 685 b 822 269 864 596 896 433 b 349 -51 742 83 561 -62 b 238 -25 306 -50 269 -39 l 214 -64 b 160 -76 197 -92 151 -101 b 201 -3 165 -64 179 -37 b 139 338 106 68 89 207 b 90 399 114 347 97 368 b 297 708 61 533 183 663 b 714 711 417 760 592 776 b 736 736 722 722 731 733 b 790 732 756 756 811 753 z m 736 667 b 253 3 617 521 389 221 b 342 -11 278 -7 307 -11 b 772 310 510 -11 697 135 b 742 664 839 468 833 601 z m 218 24 b 606 572 308 163 485 407 b 551 583 590 581 568 583 b 239 413 443 583 319 511 b 200 351 224 393 211 372 b 211 350 203 350 208 350 b 211 333 229 347 231 339 b 189 331 204 332 196 331 b 218 24 140 221 133 86 z m 626 600 l 696 692 b 139 414 499 788 119 656 b 154 374 140 399 144 385 b 251 510 176 422 210 469 b 564 629 322 576 465 639 b 626 600 590 628 614 617 z "},"Œ":{"ha":2083,"x_min":0,"x_max":0,"o":""},"æ":{"ha":785,"x_min":0,"x_max":0,"o":"m 871 192 b 869 208 876 199 876 206 b 856 204 868 211 861 211 b 613 11 801 131 715 53 b 450 93 524 -25 415 -24 b 682 347 481 194 600 310 b 753 339 701 357 751 378 b 690 249 756 308 714 267 b 517 158 639 207 563 163 b 526 139 496 157 506 138 b 771 271 590 144 721 197 b 749 400 797 310 806 381 b 513 303 688 421 590 368 b 465 315 499 311 474 315 b 328 178 453 315 347 199 b 193 56 292 139 229 86 b 86 18 174 40 106 -10 b 197 247 43 79 158 211 b 439 367 269 311 367 367 b 508 340 465 367 493 364 b 517 347 515 338 517 338 b 493 385 517 361 507 375 b 354 396 457 410 396 407 b 36 32 250 371 -67 163 b 125 -15 57 4 96 -15 b 392 190 236 -15 368 179 b 432 -18 364 117 349 24 b 631 -17 485 -46 563 -44 b 871 192 728 24 818 100 z "},"ı":{"ha":314,"x_min":0,"x_max":0,"o":"m 404 194 b 388 206 411 207 394 215 b 181 13 329 125 225 38 b 117 81 135 -11 107 21 b 200 282 121 125 158 199 b 228 368 221 325 236 351 b 179 385 221 382 197 386 b 131 303 160 381 146 346 b 128 285 126 294 126 289 b 21 142 107 253 69 201 b 36 122 8 125 22 107 b 90 192 65 156 78 176 b 49 21 61 128 38 53 b 224 4 76 -62 179 -29 b 404 194 293 54 378 146 z "},"ł":{"ha":326,"x_min":0,"x_max":0,"o":"m 124 178 b 307 344 186 229 249 285 b 406 371 350 353 388 364 b 474 408 417 374 478 393 b 396 407 471 417 439 419 l 361 399 b 575 683 443 485 515 579 b 517 822 625 774 579 822 b 307 671 422 822 360 739 b 131 354 258 607 186 479 l 50 339 b 50 288 22 332 -11 268 b 106 301 58 290 79 294 b 40 81 69 214 43 132 b 146 -31 38 17 63 -31 b 232 0 172 -31 204 -21 b 417 192 301 51 389 143 b 401 206 425 207 408 215 b 197 17 354 139 251 46 b 106 114 117 -29 97 46 b 124 178 107 128 114 150 z m 203 368 l 267 490 b 482 763 326 597 397 697 b 538 708 543 808 575 776 b 311 388 492 621 403 493 z m 258 332 b 144 233 218 292 181 257 b 176 315 154 260 163 289 b 258 332 203 322 231 326 z "},"ø":{"ha":488,"x_min":0,"x_max":0,"o":"m 481 465 b 440 469 494 482 454 483 b 367 379 429 461 403 426 b 336 400 360 389 349 396 b 181 347 294 415 232 393 b 58 165 118 292 75 218 b 89 -8 36 83 49 21 b 47 -78 65 -43 50 -67 b 85 -71 40 -97 75 -90 l 114 -22 b 279 14 160 -42 225 -32 b 333 68 297 31 315 49 b 390 33 343 47 367 33 b 531 131 444 33 500 93 b 578 194 551 156 569 178 b 561 206 585 207 568 215 b 513 146 547 186 529 165 b 394 65 485 117 439 65 b 360 103 376 65 361 76 b 419 289 390 146 439 232 b 363 274 408 326 347 313 b 343 153 369 257 381 228 b 308 108 319 160 300 138 b 313 100 308 104 311 103 b 168 -8 271 38 211 -8 b 131 4 153 -8 140 -3 b 357 317 196 107 285 225 b 376 333 363 313 374 318 l 376 343 b 481 465 422 399 458 442 z m 113 28 b 110 93 106 46 106 68 b 326 361 132 219 265 361 b 347 353 336 361 343 358 b 113 28 274 257 176 124 z "},"œ":{"ha":728,"x_min":0,"x_max":0,"o":"m 285 65 b 168 -8 246 21 203 -8 b 110 93 117 -8 100 39 b 326 361 132 219 265 361 b 361 271 383 361 364 297 b 381 264 360 257 376 263 b 383 364 397 276 403 331 b 336 400 368 389 347 396 b 181 347 294 415 232 393 b 58 165 118 292 72 218 b 96 -14 33 79 50 14 b 279 14 142 -43 217 -39 b 315 51 290 25 304 38 b 575 -17 339 -37 467 -60 b 728 83 631 6 682 40 b 815 192 763 115 792 151 b 814 208 821 199 821 206 b 799 204 811 211 804 211 b 557 11 749 128 660 53 b 394 93 467 -25 360 -24 b 626 347 425 194 544 310 b 697 339 646 357 696 378 b 635 249 700 308 658 267 b 461 158 583 207 506 163 b 471 139 440 157 450 138 b 715 271 533 144 665 197 b 693 400 742 310 750 381 b 332 158 589 435 374 253 b 314 104 322 139 318 122 b 285 65 304 88 293 72 z "},"ß":{"ha":728,"x_min":0,"x_max":0,"o":"m 472 310 b 535 438 401 365 493 414 b 669 551 583 465 631 493 b 679 708 710 607 710 671 b 558 753 654 740 611 754 b 272 454 415 750 311 560 l 243 374 l 231 374 b 151 365 204 371 176 367 b 119 382 142 365 138 382 b 56 351 104 382 56 371 b 85 326 56 338 71 326 b 229 344 104 326 168 333 l 232 344 b -1 -176 165 149 93 -51 b -108 -246 -32 -217 -68 -246 b -161 -185 -140 -246 -164 -222 b -210 -190 -158 -128 -214 -157 b -132 -275 -206 -233 -172 -261 b 42 -222 -60 -300 -1 -271 b 453 660 210 -31 242 469 b 571 715 499 700 547 715 b 647 565 663 718 696 642 b 446 421 603 492 521 456 b 383 367 413 406 383 388 b 576 110 383 269 576 213 b 286 -46 576 -35 347 -94 b 265 -51 272 -36 260 -39 b 517 -65 294 -108 481 -81 b 646 151 599 -31 711 54 b 472 310 614 200 524 269 z "},"¬":{"ha":1035,"x_min":0,"x_max":0,"o":"m 993 360 b 946 382 993 379 971 382 b 90 329 661 375 375 340 b 79 289 26 325 51 288 b 926 346 363 304 644 325 b 896 54 903 253 899 151 b 910 38 897 44 903 39 b 929 47 917 35 924 39 b 979 289 939 128 964 208 b 993 360 982 311 993 338 z "},"µ":{"ha":618,"x_min":0,"x_max":0,"o":"m 64 25 b 156 -15 85 -1 131 -15 b 376 200 269 -15 356 186 b 353 21 357 151 340 58 b 528 4 381 -62 482 -29 b 708 194 597 54 682 146 b 690 206 715 207 697 215 b 485 13 633 125 529 38 b 419 81 439 -11 411 21 b 464 218 426 131 443 178 b 550 368 482 254 533 340 b 478 406 564 393 496 406 b 388 253 460 378 413 289 b 225 56 336 178 276 97 b 110 128 128 -22 65 10 b 231 322 144 221 201 294 b 229 350 238 329 246 343 b 154 350 210 357 179 357 b 107 274 142 346 124 303 b 63 172 90 243 76 207 l 57 160 b -193 -469 -18 -15 -108 -301 b -110 -465 -214 -511 -131 -476 b -53 -344 -89 -453 -85 -431 b -21 -204 -36 -307 -64 -322 b 64 25 1 -140 35 -56 z "},"™":{"ha":1190,"x_min":0,"x_max":0,"o":"m 631 451 b 894 371 663 221 774 246 b 979 464 922 399 951 431 b 939 254 944 371 924 290 b 1071 239 965 190 1043 218 b 1033 260 1118 274 1068 276 b 1000 299 1000 242 996 268 b 1008 357 1000 318 1006 339 l 1019 393 b 1071 569 1036 461 1057 539 b 1158 711 1110 621 1147 688 b 1144 747 1172 739 1160 750 b 1092 708 1131 746 1111 729 b 1040 604 1071 685 1050 635 b 871 403 992 540 931 461 b 697 465 757 289 718 288 b 694 579 694 500 693 540 l 746 672 b 703 708 753 686 724 707 l 707 729 b 693 746 708 736 703 743 b 669 743 686 747 676 746 b 632 693 653 736 635 722 b 625 572 628 663 625 618 b 506 236 569 447 503 274 b 557 233 510 219 547 225 b 631 454 571 313 599 385 z m 190 233 b 354 674 224 358 288 563 b 360 690 360 681 360 686 b 600 697 439 697 521 697 b 631 708 621 697 631 706 b 611 728 633 715 626 726 b 158 721 531 739 264 747 b 121 683 132 714 118 699 b 156 660 125 663 142 660 b 175 664 163 663 169 664 l 193 669 b 326 686 236 676 281 683 l 322 685 b 126 239 290 646 128 278 b 190 233 131 219 181 222 z "},"Ð":{"ha":788,"x_min":0,"x_max":0,"o":"m 369 628 b 294 657 381 649 311 672 b 147 326 274 631 207 479 l 76 326 b 64 275 47 326 0 271 b 128 278 79 275 103 276 b 57 75 100 201 75 129 l 42 94 b 24 61 26 114 14 88 b 44 28 28 49 35 39 b 42 -8 42 13 40 -1 b 96 -8 44 -28 86 -17 l 96 -3 b 253 -32 140 -21 197 -31 b 828 442 515 -36 828 150 b 618 722 828 558 765 667 b 332 757 531 754 429 764 b 153 728 250 753 203 749 b 179 672 103 707 151 665 b 603 693 322 714 485 735 b 763 464 721 651 763 563 b 104 38 763 135 326 -99 b 189 282 125 128 154 206 l 285 289 b 357 310 294 289 360 292 b 283 326 357 319 328 326 l 211 326 b 369 628 260 424 315 519 z "},"±":{"ha":854,"x_min":0,"x_max":0,"o":"m 606 -57 b 604 -17 654 -51 663 -17 b 124 -18 547 -17 153 -18 b 111 -69 93 -18 47 -72 b 606 -57 158 -67 542 -62 z m 550 539 b 457 340 536 514 499 431 l 231 340 b 218 289 201 340 154 285 b 436 294 239 290 318 292 b 332 65 389 188 342 86 b 383 56 301 7 371 28 l 486 296 b 714 303 604 297 683 299 b 711 340 763 306 769 340 l 507 340 l 585 524 b 550 539 607 575 572 582 z "},"Þ":{"ha":631,"x_min":0,"x_max":0,"o":"m 575 242 b 561 638 781 339 790 572 b 367 664 499 656 431 664 l 431 790 b 356 822 440 811 369 836 b 279 658 343 808 315 743 b 17 524 126 643 7 583 b 35 519 19 511 29 517 b 257 607 85 546 163 582 b 42 -8 161 378 38 46 b 96 -8 44 -28 86 -17 b 343 622 131 181 243 421 b 515 618 399 629 457 629 b 322 207 861 553 585 235 b 222 211 281 204 246 206 b 221 186 207 214 200 193 b 575 242 306 158 492 201 z "},"÷":{"ha":651,"x_min":0,"x_max":0,"o":"m 579 232 b 653 254 590 233 654 236 b 578 271 653 263 624 271 b 174 269 521 271 204 269 b 161 219 146 269 97 215 b 579 232 208 221 514 226 z m 381 114 b 342 129 381 135 388 164 b 297 82 335 122 297 88 b 343 60 297 60 325 60 b 381 114 354 60 381 100 z m 481 401 b 443 417 481 422 488 451 b 397 371 436 410 397 378 b 444 347 397 347 425 347 b 481 401 454 347 481 388 z "},"°":{"ha":492,"x_min":0,"x_max":0,"o":"m 368 761 b 228 806 356 704 228 732 b 269 864 228 826 244 861 b 368 761 335 865 383 831 z m 418 774 b 253 913 426 889 339 928 b 168 810 207 903 168 854 b 418 774 168 681 408 624 z "},"þ":{"ha":488,"x_min":0,"x_max":0,"o":"m 394 232 b 57 -1 332 125 175 -1 b 328 339 128 142 179 261 b 394 232 431 393 440 311 z m 489 310 b 429 372 485 340 460 361 b 250 326 360 396 304 371 b 119 167 200 288 163 226 b 322 646 144 226 288 593 b 304 743 361 706 364 743 b 260 728 285 743 260 742 b 93 249 260 692 118 319 b -1 -1 68 174 33 86 b -192 -462 -76 -196 -157 -392 b -94 -454 -219 -522 -103 -474 b -54 -351 -78 -424 -67 -389 b -40 -261 -42 -315 -53 -299 b 44 -24 -12 -176 21 -79 b 322 54 126 -49 257 11 b 489 310 392 100 503 204 z "},"®":{"ha":1022,"x_min":0,"x_max":0,"o":"m 22 361 b 450 -93 -12 110 179 -93 b 999 361 718 -93 964 110 b 571 817 1031 614 840 817 b 22 361 300 817 56 614 z m 86 414 b 596 764 133 636 361 792 b 936 310 829 736 982 533 b 425 -42 889 88 660 -69 b 86 414 193 -14 40 190 z m 508 576 b 451 601 515 593 461 611 b 257 93 419 561 253 151 b 299 90 260 76 292 86 b 371 315 313 174 340 247 l 382 310 b 425 313 392 306 417 311 b 679 72 454 269 625 65 b 693 96 694 74 707 83 b 489 322 617 164 536 228 b 785 549 603 346 774 408 b 649 678 790 615 738 658 b 381 658 550 700 422 669 b 374 603 321 643 363 600 b 653 653 404 611 558 676 b 640 417 792 621 757 496 b 382 339 556 360 450 340 b 508 576 419 417 465 492 z "},"−":{"ha":749,"x_min":0,"x_max":0,"o":"m 647 200 b 722 222 660 201 722 206 b 646 240 722 232 690 240 b 243 239 589 240 272 239 b 231 188 214 239 167 185 b 647 200 278 190 583 194 z "},"ð":{"ha":600,"x_min":0,"x_max":0,"o":"m 113 -29 b 439 93 243 -65 367 7 b 600 526 538 207 597 385 l 658 547 b 724 586 668 551 729 569 b 646 583 721 594 690 594 l 599 572 b 586 651 597 601 593 628 b 332 794 542 804 401 838 b 368 742 267 754 307 669 b 544 636 425 810 529 778 b 547 560 547 611 549 586 l 446 532 b 447 479 418 525 385 461 l 544 510 b 496 292 538 433 521 354 b 390 111 474 233 438 169 b 125 4 346 54 218 -53 b 110 93 104 18 96 46 b 390 361 147 219 319 361 b 425 336 404 361 425 347 b 444 338 425 331 432 317 b 408 400 454 374 433 392 b 47 158 304 435 89 253 b 113 -29 3 58 40 -8 z "},"×":{"ha":649,"x_min":0,"x_max":0,"o":"m 514 -1 b 578 7 529 -28 589 -18 b 376 278 558 49 471 165 b 647 472 485 365 575 426 b 610 507 675 492 638 521 b 353 306 571 486 465 401 b 156 510 272 403 193 489 b 118 483 128 525 93 504 b 319 278 201 408 267 340 b 35 7 190 169 64 53 b 78 -3 15 -22 51 -31 b 343 250 174 100 263 183 b 514 -1 424 151 472 68 z "},"©":{"ha":1022,"x_min":0,"x_max":0,"o":"m 404 49 b 765 242 543 49 683 135 b 771 269 772 249 774 263 b 739 267 765 289 746 276 b 579 135 697 213 638 165 b 318 375 347 10 197 135 b 621 639 385 511 519 642 b 693 586 656 639 693 621 b 668 532 693 567 683 546 b 674 492 626 496 638 479 b 749 589 697 499 749 531 b 628 678 749 667 672 678 b 246 393 479 678 322 539 b 244 115 186 276 189 176 b 404 49 286 68 346 49 z m 936 310 b 425 -42 889 88 660 -69 b 86 414 193 -14 40 190 b 596 764 133 636 361 792 b 936 310 829 736 982 533 z m 999 361 b 571 817 1031 614 840 817 b 22 361 300 817 56 614 b 450 -93 -12 110 179 -93 b 999 361 718 -93 964 110 z "},"Á":{"ha":1179,"x_min":0,"x_max":0,"o":"m 15 17 b 72 -97 15 -35 35 -71 b 197 -132 104 -119 146 -132 b 425 -50 276 -132 353 -104 b 746 282 522 21 635 144 b 911 263 801 275 856 268 b 888 121 899 213 890 165 b 968 -35 878 32 910 -35 b 1104 14 996 -35 1051 -28 b 1269 194 1203 93 1265 185 b 1253 207 1276 211 1258 213 b 1099 49 1217 158 1163 97 b 950 97 1003 -24 938 -43 b 975 257 953 151 964 206 b 1013 256 988 257 1000 256 b 1121 269 1051 254 1092 257 b 1175 310 1146 278 1165 292 b 1160 325 1183 324 1168 339 b 1118 294 1153 313 1138 301 b 1017 281 1090 282 1054 278 b 982 282 1006 281 994 282 l 986 292 b 1193 789 1033 468 1099 632 b 1200 804 1196 796 1200 801 b 1186 818 1200 813 1194 818 b 1114 799 1174 818 1133 810 b 1104 790 1111 797 1107 794 b 725 324 1015 679 871 492 b 468 368 639 340 550 360 b 169 218 328 385 183 386 b 183 132 167 185 172 151 b 208 144 196 114 218 125 b 207 197 200 158 200 178 b 461 311 246 304 364 317 b 694 288 538 306 617 297 b 396 -3 585 163 478 53 b 169 -78 325 -50 243 -78 b 85 -57 135 -78 106 -71 b 43 17 57 -39 43 -17 b 15 17 43 75 15 46 z m 1044 664 b 918 289 1001 554 951 419 l 772 313 b 1051 679 874 438 971 569 b 1044 664 1049 674 1047 669 z m 1417 1019 b 1408 1065 1426 1028 1426 1053 b 1368 1069 1401 1067 1383 1076 b 1264 982 1342 1035 1300 1013 b 1188 928 1249 969 1189 931 b 1193 913 1182 922 1175 913 b 1415 1018 1217 914 1385 993 z "},"Â":{"ha":653,"x_min":0,"x_max":0,"o":"m 1175 310 b 1121 269 1165 292 1146 278 b 1013 256 1092 257 1051 254 b 978 257 1000 256 988 257 b 950 97 964 206 953 151 b 1099 49 938 -43 1003 -24 b 1253 207 1163 97 1217 158 b 1269 194 1258 213 1276 211 b 1104 14 1265 185 1203 93 b 968 -35 1051 -28 996 -35 b 888 121 910 -35 878 32 b 911 263 890 165 899 213 b 746 281 856 268 801 274 b 425 -50 635 144 522 21 b 197 -132 353 -104 276 -132 b 72 -97 146 -132 104 -119 b 15 17 35 -71 15 -35 b 43 17 15 46 43 75 b 85 -57 43 -17 57 -39 b 169 -78 106 -71 135 -78 b 396 -3 243 -78 325 -50 b 694 288 478 53 585 163 b 461 311 617 297 538 306 b 207 197 364 317 246 304 b 208 144 200 178 200 158 b 183 132 218 125 196 114 b 169 218 172 151 167 185 b 468 368 183 386 328 385 b 725 324 550 360 639 340 b 1104 790 871 492 1015 679 b 1114 799 1107 794 1111 797 b 1186 818 1133 810 1174 818 b 1200 804 1194 818 1200 813 b 1193 789 1200 801 1196 796 b 986 292 1099 632 1033 468 l 982 282 b 1017 281 994 282 1006 281 b 1118 294 1054 278 1090 282 b 1160 325 1138 301 1153 313 b 1175 310 1168 339 1183 324 z m 1044 664 b 1051 679 1047 669 1049 674 b 772 313 971 569 874 438 l 918 289 b 1044 664 951 419 1001 554 z m 1349 903 b 1238 1032 1325 942 1264 1021 b 1083 910 1210 1031 1107 929 b 1096 889 1069 899 1054 864 b 1221 983 1139 919 1175 956 b 1335 882 1236 965 1319 900 b 1349 903 1357 864 1357 892 z "},"Ä":{"ha":653,"x_min":0,"x_max":0,"o":"m 1175 310 b 1121 269 1165 292 1146 278 b 1013 256 1092 257 1051 254 b 978 257 1000 256 988 257 b 950 97 964 206 953 151 b 1099 49 938 -43 1003 -24 b 1253 207 1163 97 1217 158 b 1269 194 1258 213 1276 211 b 1104 14 1265 185 1203 93 b 968 -35 1051 -28 996 -35 b 888 121 910 -35 878 32 b 911 263 890 165 899 213 b 746 281 856 268 801 274 b 425 -50 635 144 522 21 b 197 -132 353 -104 276 -132 b 72 -97 146 -132 104 -119 b 15 17 35 -71 15 -35 b 43 17 15 46 43 75 b 85 -57 43 -17 57 -39 b 169 -78 106 -71 135 -78 b 396 -3 243 -78 325 -50 b 694 288 478 53 585 163 b 461 311 617 297 538 306 b 207 197 364 317 246 304 b 208 144 200 178 200 158 b 183 132 218 125 196 114 b 169 218 172 151 167 185 b 468 368 183 386 328 385 b 725 324 550 360 639 340 b 1104 790 871 492 1015 679 b 1106 794 1104 792 1106 792 l 1107 794 l 1114 799 b 1186 818 1133 810 1174 818 b 1200 804 1194 818 1200 813 b 1193 789 1200 801 1196 796 b 986 292 1099 632 1033 468 l 982 282 b 1017 281 994 282 1006 281 b 1118 294 1054 278 1090 282 b 1160 325 1138 301 1153 313 b 1175 310 1168 339 1183 324 z m 1044 664 b 1051 679 1047 669 1049 674 b 772 313 971 569 874 438 l 918 289 b 1044 664 951 419 1001 554 z m 1124 954 b 1106 978 1124 975 1151 1014 b 1040 922 1099 972 1040 929 b 1086 900 1040 900 1068 900 b 1124 954 1099 900 1124 940 z m 1343 954 b 1326 978 1343 975 1371 1014 b 1260 922 1319 972 1260 929 b 1307 900 1260 900 1286 900 b 1343 954 1318 900 1343 940 z "},"À":{"ha":653,"x_min":0,"x_max":0,"o":"m 1175 310 b 1121 269 1165 292 1146 278 b 1013 256 1092 257 1051 254 b 978 257 1000 256 988 257 b 950 97 964 206 953 151 b 1099 49 938 -43 1003 -24 b 1253 207 1163 97 1217 158 b 1269 194 1258 213 1276 211 b 1104 14 1265 185 1203 93 b 968 -35 1051 -28 996 -35 b 888 121 910 -35 878 32 b 911 263 890 165 899 213 b 746 281 856 268 801 274 b 425 -50 635 144 522 21 b 197 -132 353 -104 276 -132 b 72 -97 146 -132 104 -119 b 15 17 35 -71 15 -35 b 43 17 15 46 43 75 b 85 -57 43 -17 57 -39 b 169 -78 106 -71 135 -78 b 396 -3 243 -78 325 -50 b 694 288 478 53 585 163 b 461 311 617 297 538 306 b 207 197 364 317 246 304 b 208 144 200 178 200 158 b 183 132 218 125 196 114 b 169 218 172 151 167 185 b 468 368 183 386 328 385 b 725 324 550 360 639 340 b 1104 790 871 492 1015 679 b 1114 799 1107 794 1111 797 b 1186 818 1133 810 1174 818 b 1200 804 1194 818 1200 813 b 1193 789 1200 801 1196 796 b 986 292 1099 632 1033 468 l 982 282 b 1017 281 994 282 1006 281 b 1118 294 1054 278 1090 282 b 1160 325 1138 301 1153 313 b 1175 310 1168 339 1183 324 z m 1044 664 b 1051 679 1047 669 1049 674 b 772 313 971 569 874 438 l 918 289 b 1044 664 951 419 1001 554 z m 1290 914 b 1149 1019 1243 949 1196 983 b 1069 1051 1119 1040 1093 1060 b 1099 982 1019 1033 1079 992 b 1285 899 1158 949 1265 899 b 1290 914 1301 899 1297 910 z "},"Å":{"ha":653,"x_min":0,"x_max":0,"o":"m 1175 310 b 1121 269 1165 292 1146 278 b 1013 256 1092 257 1051 254 b 978 257 1000 256 988 257 b 950 97 964 206 953 151 b 1099 49 938 -43 1003 -24 b 1253 207 1163 97 1217 158 b 1269 194 1258 213 1276 211 b 1104 14 1265 185 1203 93 b 968 -35 1051 -28 996 -35 b 888 121 910 -35 878 32 b 911 263 890 165 899 213 b 746 281 856 268 801 274 b 425 -50 635 144 522 21 b 197 -132 353 -104 276 -132 b 72 -97 146 -132 104 -119 b 15 17 35 -71 15 -35 b 43 17 15 46 43 75 b 85 -57 43 -17 57 -39 b 169 -78 106 -71 135 -78 b 396 -3 243 -78 325 -50 b 694 288 478 53 585 163 b 461 311 617 297 538 306 b 207 197 364 317 246 304 b 208 144 200 178 200 158 b 183 132 218 125 196 114 b 169 218 172 151 167 185 b 468 368 183 386 328 385 b 725 324 550 360 639 340 b 1104 790 871 492 1015 679 b 1106 794 1104 792 1106 792 l 1107 794 l 1114 799 b 1186 818 1133 810 1174 818 b 1200 804 1194 818 1200 813 b 1193 789 1200 801 1196 796 b 986 292 1099 632 1033 468 l 982 282 b 1017 281 994 282 1006 281 b 1118 294 1054 278 1090 282 b 1160 325 1138 301 1153 313 b 1175 310 1168 339 1183 324 z m 1319 935 b 1242 993 1319 978 1279 993 b 1160 972 1210 993 1175 985 b 1106 901 1126 951 1110 921 b 1149 829 1100 865 1119 840 b 1258 839 1181 817 1225 818 b 1319 935 1293 864 1319 899 z m 1044 664 b 1051 679 1047 669 1049 674 b 772 313 971 569 874 438 l 918 289 b 1044 664 951 419 1001 554 z m 1281 906 b 1193 839 1272 881 1239 839 b 1142 875 1160 839 1144 857 b 1239 976 1139 913 1188 976 b 1281 906 1294 976 1290 926 z "},"Ã":{"ha":653,"x_min":0,"x_max":0,"o":"m 1175 310 b 1121 269 1165 292 1146 278 b 1013 256 1092 257 1051 254 b 978 257 1000 256 988 257 b 950 97 964 206 953 151 b 1099 49 938 -43 1003 -24 b 1253 207 1163 97 1217 158 b 1269 194 1258 213 1276 211 b 1104 14 1265 185 1203 93 b 968 -35 1051 -28 996 -35 b 888 121 910 -35 878 32 b 911 263 890 165 899 213 b 746 281 856 268 801 274 b 425 -50 635 144 522 21 b 197 -132 353 -104 276 -132 b 72 -97 146 -132 104 -119 b 15 17 35 -71 15 -35 b 43 17 15 46 43 75 b 85 -57 43 -17 57 -39 b 169 -78 106 -71 135 -78 b 396 -3 243 -78 325 -50 b 694 288 478 53 585 163 b 461 311 617 297 538 306 b 207 197 364 317 246 304 b 208 144 200 178 200 158 b 183 132 218 125 196 114 b 169 218 172 151 167 185 b 468 368 183 386 328 385 b 725 324 550 360 639 340 b 1104 790 871 492 1015 679 b 1106 794 1104 792 1106 792 l 1107 794 l 1114 799 b 1186 818 1133 810 1174 818 b 1200 804 1194 818 1200 813 b 1193 789 1200 801 1196 796 b 986 292 1099 632 1033 468 l 982 282 b 1017 281 994 282 1006 281 b 1118 294 1054 278 1090 282 b 1160 325 1138 301 1153 313 b 1175 310 1168 339 1183 324 z m 1044 664 b 1051 679 1047 669 1049 674 b 772 313 971 569 874 438 l 918 289 b 1044 664 951 419 1001 554 z m 1385 985 b 1361 989 1389 992 1367 997 b 1278 947 1346 944 1319 935 b 1165 999 1239 958 1193 989 b 1013 899 1100 1021 1054 957 b 1033 893 1008 893 1028 886 b 1103 942 1049 917 1072 935 b 1257 901 1154 951 1204 921 b 1385 985 1308 885 1361 929 z "},"Ç":{"ha":667,"x_min":0,"x_max":0,"o":"m 1 -379 b 381 -261 76 -504 381 -403 b 204 -169 381 -197 318 -147 b 269 -81 211 -157 249 -111 l 288 -81 b 842 201 467 -83 697 3 b 822 214 849 213 832 228 b 288 -46 693 32 453 -51 b 110 221 140 -44 50 39 b 714 776 211 539 568 799 b 751 622 790 764 785 686 b 404 401 683 492 549 414 b 397 358 367 399 353 354 b 826 694 536 371 821 533 b 715 810 828 750 792 799 b 42 246 443 851 113 535 b 229 -76 -6 47 89 -53 b 167 -183 214 -108 181 -164 b 225 -199 140 -218 175 -210 b 315 -261 281 -187 315 -218 b 21 -369 315 -376 86 -469 b 1 -379 6 -347 -15 -349 z "},"É":{"ha":729,"x_min":0,"x_max":0,"o":"m 628 818 b 743 740 676 806 711 769 b 783 711 753 729 767 715 b 808 704 790 707 801 708 b 843 639 825 690 835 660 b 808 518 863 593 850 468 b 765 631 786 546 783 594 b 682 750 743 678 718 719 b 564 781 661 769 614 799 b 543 394 419 721 481 476 b 617 381 551 385 600 382 b 640 325 667 375 667 340 b 515 340 613 310 549 333 b 93 67 376 338 97 233 b 300 -69 92 -8 144 -69 b 746 35 450 -69 656 -11 b 968 285 821 74 989 199 b 985 288 967 292 981 292 b 819 7 1058 181 906 56 b 349 -104 704 -58 478 -104 b 33 108 194 -104 33 -60 b 501 385 33 340 350 378 b 417 743 425 472 356 639 b 628 818 451 803 568 832 z m 857 999 b 849 1044 868 1007 868 1032 b 808 1049 842 1046 825 1056 b 704 961 783 1014 742 992 b 628 907 689 949 631 910 b 633 892 624 901 617 892 b 856 997 658 893 826 972 z "},"Ê":{"ha":729,"x_min":0,"x_max":0,"o":"m 628 818 b 743 740 676 806 711 769 b 783 711 753 729 767 715 b 808 704 790 707 801 708 b 843 639 825 690 835 660 b 808 518 863 593 850 468 b 765 631 786 546 783 594 b 682 750 743 678 718 719 b 564 781 661 769 614 799 b 543 394 419 721 481 476 b 617 381 551 385 600 382 b 640 325 667 375 667 340 b 515 340 613 310 549 333 b 93 67 376 338 97 233 b 300 -69 92 -8 144 -69 b 746 35 450 -69 656 -11 b 968 285 821 74 989 199 b 985 288 967 292 981 292 b 819 7 1058 181 906 56 b 349 -104 704 -58 478 -104 b 33 108 194 -104 33 -60 b 501 385 33 340 350 378 b 417 743 425 472 356 639 b 628 818 451 803 568 832 z m 819 892 b 708 1019 794 929 735 1010 b 554 899 681 1018 578 917 b 565 878 540 886 524 851 b 690 971 610 907 646 943 b 806 871 707 954 790 888 b 819 892 828 851 828 879 z "},"Ë":{"ha":729,"x_min":0,"x_max":0,"o":"m 628 818 b 743 740 676 806 711 769 b 783 711 753 729 767 715 b 808 704 790 707 801 708 b 843 639 825 690 835 660 b 808 518 863 593 850 468 b 765 631 786 546 783 594 b 682 750 743 678 718 719 b 564 781 661 769 614 799 b 543 394 419 721 481 476 b 617 381 551 385 600 382 b 640 325 667 375 667 340 b 515 340 613 310 549 333 b 93 67 376 338 97 233 b 300 -69 92 -8 144 -69 b 746 35 450 -69 656 -11 b 968 285 821 74 989 199 b 985 288 967 292 981 292 b 819 7 1058 181 906 56 b 349 -104 704 -58 478 -104 b 33 108 194 -104 33 -60 b 501 385 33 340 350 378 b 417 743 425 472 356 639 b 628 818 451 803 568 832 z m 631 936 b 613 961 631 957 658 997 b 547 906 606 956 547 913 b 593 882 547 882 575 882 b 631 936 606 882 631 922 z m 850 936 b 833 961 850 957 878 997 b 767 906 826 956 767 913 b 814 882 767 882 793 882 b 850 936 825 882 850 922 z "},"È":{"ha":729,"x_min":0,"x_max":0,"o":"m 628 818 b 743 740 676 806 711 769 b 783 711 753 729 767 715 b 808 704 790 707 801 708 b 843 639 825 690 835 660 b 808 518 863 593 850 468 b 765 631 786 546 783 594 b 682 750 743 678 718 719 b 564 781 661 769 614 799 b 543 394 419 721 481 476 b 617 381 551 385 600 382 b 640 325 667 375 667 340 b 515 340 613 310 549 333 b 93 67 376 338 97 233 b 300 -69 92 -8 144 -69 b 746 35 450 -69 656 -11 b 968 285 821 74 989 199 b 985 288 967 292 981 292 b 819 7 1058 181 906 56 b 349 -104 704 -58 478 -104 b 33 108 194 -104 33 -60 b 501 385 33 340 350 378 b 417 743 425 472 356 639 b 628 818 451 803 568 832 z m 779 888 b 639 993 732 922 686 957 b 558 1025 610 1014 583 1033 b 589 956 508 1007 569 965 b 774 872 647 922 756 872 b 779 888 792 872 786 885 z "},"Í":{"ha":433,"x_min":0,"x_max":0,"o":"m 799 708 b 639 728 763 721 703 728 b 360 72 583 558 482 228 b 307 18 342 51 325 32 b 554 24 408 17 496 19 b 556 -10 600 26 564 -4 b 51 -29 531 -22 117 -31 b 19 31 15 -28 0 -17 b 97 54 33 63 82 67 b 333 94 153 13 251 -14 b 569 726 443 240 526 558 b 272 560 419 714 267 664 b 356 476 276 507 333 490 b 353 463 371 465 367 458 b 243 579 319 469 244 514 b 239 596 243 581 239 590 b 585 789 231 736 415 789 b 589 803 585 792 586 797 b 665 803 593 822 668 826 b 658 785 663 797 660 792 b 807 749 718 781 771 767 b 799 708 828 739 882 681 z m 836 992 b 828 1038 847 1000 847 1025 b 788 1042 821 1039 804 1049 b 683 954 763 1007 721 985 b 607 900 668 942 610 903 b 613 885 603 894 596 885 b 835 990 638 886 806 965 z "},"Î":{"ha":433,"x_min":0,"x_max":0,"o":"m 799 708 b 639 728 763 721 703 728 b 360 72 583 558 482 228 b 307 18 342 51 325 32 b 554 24 408 17 496 19 b 556 -10 600 26 564 -4 b 51 -29 531 -22 117 -31 b 19 31 15 -28 0 -17 b 97 54 33 63 82 67 b 333 94 153 13 251 -14 b 569 726 443 240 526 558 b 272 560 419 714 267 664 b 356 476 276 507 333 490 b 353 463 371 465 367 458 b 243 579 319 469 244 514 b 239 596 243 581 239 590 b 585 789 231 736 415 789 b 589 803 585 792 586 797 b 665 803 593 822 668 826 b 658 785 663 797 660 792 b 807 749 718 781 771 767 b 799 708 828 739 882 681 z m 772 896 b 661 1025 749 935 688 1014 b 507 903 633 1024 531 922 b 519 882 493 892 478 857 b 644 976 563 913 599 949 b 758 875 660 958 743 893 b 772 896 781 857 781 885 z "},"Ï":{"ha":433,"x_min":0,"x_max":0,"o":"m 799 708 b 639 728 763 721 703 728 b 360 72 583 558 482 228 b 307 18 342 51 325 32 b 554 24 408 17 496 19 b 556 -10 600 26 564 -4 b 51 -29 531 -22 117 -31 b 19 31 15 -28 0 -17 b 97 54 33 63 82 67 b 333 94 153 13 251 -14 b 569 726 443 240 526 558 b 272 560 419 714 267 664 b 356 476 276 507 333 490 b 353 463 371 465 367 458 b 243 579 319 469 244 514 b 239 596 243 581 239 590 b 585 789 231 736 415 789 b 589 803 585 792 586 797 b 665 803 593 822 668 826 b 658 785 663 797 660 792 b 807 749 718 781 771 767 b 799 708 828 739 882 681 z m 585 949 b 568 972 585 969 613 1010 b 501 917 561 968 501 924 b 549 894 501 894 529 894 b 585 949 561 894 585 935 z m 806 949 b 788 972 806 969 833 1010 b 722 917 781 968 722 924 b 769 894 722 894 749 894 b 806 949 779 894 806 935 z "},"Ì":{"ha":433,"x_min":0,"x_max":0,"o":"m 799 708 b 639 728 763 721 703 728 b 360 72 583 558 482 228 b 307 18 342 51 325 32 b 554 24 408 17 496 19 b 556 -10 600 26 564 -4 b 51 -29 531 -22 117 -31 b 19 31 15 -28 0 -17 b 97 54 33 63 82 67 b 333 94 153 13 251 -14 b 569 726 443 240 526 558 b 272 560 419 714 267 664 b 356 476 276 507 333 490 b 353 463 371 465 367 458 b 243 579 319 469 244 514 b 239 596 243 581 239 590 b 585 789 231 736 415 789 b 589 803 585 792 586 797 b 665 803 593 822 668 826 b 658 785 663 797 660 792 b 807 749 718 781 771 767 b 799 708 828 739 882 681 z m 750 900 b 610 1006 703 935 656 969 b 529 1038 579 1026 554 1046 b 558 968 479 1019 540 978 b 744 885 618 935 725 885 b 750 900 763 885 757 896 z "},"Ñ":{"ha":722,"x_min":0,"x_max":0,"o":"m 369 614 b 189 538 315 565 246 542 b 190 561 168 535 169 558 b 410 754 271 569 368 656 b 500 754 417 775 506 781 b 485 656 492 733 488 681 b 694 -46 465 525 513 -46 b 971 676 874 -46 1000 506 b 933 797 961 726 947 757 b 960 824 931 804 953 822 b 1096 656 1019 824 1049 699 b 1131 639 1111 642 1119 639 b 1147 643 1135 639 1140 643 b 1163 629 1158 643 1161 638 b 1132 601 1163 614 1146 603 b 1103 610 1121 601 1111 604 b 1043 650 1079 621 1061 635 b 683 -93 1061 403 881 -93 b 411 532 464 -93 411 285 b 228 118 354 382 301 254 b -56 -185 144 -29 49 -153 b -167 -190 -99 -199 -136 -199 b -237 -112 -203 -178 -228 -154 b -215 -107 -244 -90 -229 -57 b -167 -154 -208 -132 -193 -147 b -78 -154 -144 -161 -106 -164 b 186 125 26 -122 113 -10 b 369 614 267 281 318 440 z m 967 990 b 943 993 971 997 947 1003 b 860 951 926 950 901 940 b 746 1004 821 964 774 993 b 593 903 682 1026 635 963 b 614 899 590 899 610 892 b 683 947 631 922 654 940 b 839 907 736 957 786 926 b 967 990 890 889 943 935 z "},"Ó":{"ha":853,"x_min":0,"x_max":0,"o":"m 996 468 b 535 -106 996 176 751 -56 b 474 649 51 -218 -15 533 b 649 617 528 660 604 663 b 660 590 668 596 665 590 b 638 601 654 590 646 597 b 550 608 610 611 575 614 b 519 -74 144 513 42 -185 b 926 518 708 -31 932 276 b 607 785 922 708 797 799 b 322 681 501 778 396 733 b 89 319 197 593 99 451 b 64 340 86 288 64 315 b 281 708 63 479 153 617 b 611 819 374 775 503 818 b 996 468 833 819 996 693 z m 819 968 b 811 1013 829 976 829 1000 b 771 1018 804 1014 786 1025 b 667 929 744 983 703 961 b 590 875 651 917 592 879 b 596 860 585 871 578 860 b 818 965 619 861 788 942 z "},"Ô":{"ha":853,"x_min":0,"x_max":0,"o":"m 996 468 b 535 -106 996 176 751 -56 b 474 649 51 -218 -15 533 b 649 617 528 660 604 663 b 660 590 668 596 665 590 b 638 601 654 590 646 597 b 550 608 610 611 575 614 b 519 -74 144 513 42 -185 b 926 518 708 -31 932 276 b 607 785 922 708 797 799 b 322 681 501 778 396 733 b 89 319 197 593 99 451 b 64 340 86 288 64 315 b 281 708 63 479 153 617 b 611 819 374 775 503 818 b 996 468 833 819 996 693 z m 849 888 b 738 1017 825 926 764 1006 b 583 894 710 1014 607 914 b 596 874 569 882 554 847 b 721 968 639 903 675 940 b 835 867 736 950 819 885 b 849 888 857 847 857 875 z "},"Ö":{"ha":853,"x_min":0,"x_max":0,"o":"m 996 468 b 535 -106 996 176 751 -56 b 474 649 51 -218 -15 533 b 649 617 528 660 604 663 b 660 590 668 596 665 590 b 638 601 654 590 646 597 b 550 608 610 611 575 614 b 519 -74 144 513 42 -185 b 926 518 708 -31 932 276 b 607 785 922 708 797 799 b 322 681 501 778 396 733 b 89 319 197 593 99 451 b 64 340 86 288 64 315 b 281 708 63 479 153 617 b 611 819 374 775 503 818 b 996 468 833 819 996 693 z m 647 951 b 631 976 647 972 675 1013 b 564 921 624 971 564 928 b 611 899 564 899 592 899 b 647 951 624 899 647 938 z m 868 951 b 850 976 868 972 896 1013 b 785 921 843 971 785 928 b 832 899 785 899 811 899 b 868 951 842 899 868 938 z "},"Ò":{"ha":853,"x_min":0,"x_max":0,"o":"m 996 468 b 535 -106 996 176 751 -56 b 474 649 51 -218 -15 533 b 649 617 528 660 604 663 b 660 590 668 596 665 590 b 638 601 654 590 646 597 b 550 608 610 611 575 614 b 519 -74 144 513 42 -185 b 926 518 708 -31 932 276 b 607 785 922 708 797 799 b 322 681 501 778 396 733 b 89 319 197 593 99 451 b 64 340 86 288 64 315 b 281 708 63 479 153 617 b 611 819 374 775 503 818 b 996 468 833 819 996 693 z m 799 893 b 658 999 751 928 704 963 b 578 1031 628 1019 603 1039 b 607 961 528 1013 589 971 b 793 878 667 928 774 878 b 799 893 811 878 806 889 z "},"Õ":{"ha":853,"x_min":0,"x_max":0,"o":"m 996 468 b 535 -106 996 176 751 -56 b 474 649 51 -218 -15 533 b 649 617 528 660 604 663 b 660 590 668 596 665 590 b 638 601 654 590 646 597 b 550 608 610 611 575 614 b 519 -74 144 513 42 -185 b 926 518 708 -31 932 276 b 607 785 922 708 797 799 b 322 681 501 778 396 733 b 89 319 197 593 99 451 b 64 340 86 288 64 315 b 281 708 63 479 153 617 b 611 819 374 775 503 818 b 996 468 833 819 996 693 z m 936 990 b 911 993 939 997 917 1003 b 828 951 896 950 869 940 b 715 1004 790 964 743 993 b 563 903 651 1026 604 963 b 583 899 558 899 578 892 b 653 947 599 922 624 940 b 807 907 704 957 756 926 b 936 990 860 889 911 935 z "},"Ú":{"ha":658,"x_min":0,"x_max":0,"o":"m 626 310 b 883 708 724 401 847 575 b 813 757 903 783 874 824 b 626 310 710 643 661 489 z m 661 672 b 850 825 707 768 767 832 b 926 686 938 819 946 750 b 604 221 878 524 704 351 b 579 -28 590 149 582 40 b 625 -231 578 -122 593 -192 b 693 -236 644 -251 672 -260 b 710 -215 697 -229 703 -222 b 729 -225 724 -201 735 -206 b 711 -251 725 -232 721 -243 b 624 -279 696 -271 651 -281 b 521 -143 561 -278 533 -218 b 533 169 510 -64 515 49 b 158 -44 426 67 290 -44 b 63 46 111 -44 72 -21 b 251 600 40 211 186 438 b 218 600 263 624 250 625 b 29 503 156 547 86 507 b 33 525 8 500 13 524 b 325 746 113 533 300 700 b 413 746 332 767 422 771 b 142 171 382 694 176 361 b 204 4 121 49 154 4 b 540 219 301 4 446 128 b 661 672 568 399 617 581 z m 743 933 b 735 978 753 942 753 965 b 694 983 728 979 710 990 b 590 894 668 949 626 926 b 514 840 575 882 515 844 b 519 825 508 836 501 825 b 742 931 543 826 711 907 z "},"Û":{"ha":658,"x_min":0,"x_max":0,"o":"m 626 310 b 883 708 724 401 847 575 b 813 757 903 783 874 824 b 626 310 710 643 661 489 z m 661 672 b 850 825 707 768 767 832 b 926 686 938 819 946 750 b 604 221 878 524 704 351 b 579 -28 590 149 582 40 b 625 -231 578 -122 593 -192 b 693 -236 644 -251 672 -260 b 710 -215 697 -229 703 -222 b 729 -225 724 -201 735 -206 b 711 -251 725 -232 721 -243 b 624 -279 696 -271 651 -281 b 521 -143 561 -278 533 -218 b 533 169 510 -64 515 49 b 158 -44 426 67 290 -44 b 63 46 111 -44 72 -21 b 251 600 40 211 186 438 b 218 600 263 624 250 625 b 29 503 156 547 86 507 b 33 525 8 500 13 524 b 325 746 113 533 300 700 b 413 746 332 767 422 771 b 142 171 382 694 176 361 b 204 4 121 49 154 4 b 540 219 301 4 446 128 b 661 672 568 399 617 581 z m 724 865 b 613 993 700 903 639 983 b 458 872 585 992 482 892 b 471 851 444 860 429 825 b 596 944 514 881 550 917 b 710 844 611 928 694 861 b 724 865 732 825 732 853 z "},"Ü":{"ha":658,"x_min":0,"x_max":0,"o":"m 626 310 b 883 708 724 401 847 575 b 813 757 903 783 874 824 b 626 310 710 643 661 489 z m 661 672 b 850 825 707 768 767 832 b 926 686 938 819 946 750 b 604 221 878 524 704 351 b 579 -28 590 149 582 40 b 625 -231 578 -122 593 -192 b 693 -236 644 -251 672 -260 b 710 -215 697 -229 703 -222 b 729 -225 724 -201 735 -206 b 711 -251 725 -232 721 -243 b 624 -279 696 -271 651 -281 b 521 -143 561 -278 533 -218 b 533 169 510 -64 515 49 b 158 -44 426 67 290 -44 b 63 46 111 -44 72 -21 b 251 600 40 211 186 438 b 218 600 263 624 250 625 b 29 503 156 547 86 507 b 33 525 8 500 13 524 b 325 746 113 533 300 700 b 413 746 332 767 422 771 b 142 171 382 694 176 361 b 204 4 121 49 154 4 b 540 219 301 4 446 128 b 661 672 568 399 617 581 z m 660 950 b 642 975 660 971 688 1011 b 576 919 635 969 576 926 b 624 896 576 896 604 896 b 660 950 635 896 660 936 z m 881 950 b 863 975 881 971 908 1011 b 797 919 856 969 797 926 b 843 896 797 896 822 896 b 881 950 854 896 881 936 z "},"Ù":{"ha":658,"x_min":0,"x_max":0,"o":"m 626 310 b 883 708 724 401 847 575 b 813 757 903 783 874 824 b 626 310 710 643 661 489 z m 661 672 b 850 825 707 768 767 832 b 926 686 938 819 946 750 b 604 221 878 524 704 351 b 579 -28 590 149 582 40 b 625 -231 578 -122 593 -192 b 693 -236 644 -251 672 -260 b 710 -215 697 -229 703 -222 b 729 -225 724 -201 735 -206 b 711 -251 725 -232 721 -243 b 624 -279 696 -271 651 -281 b 521 -143 561 -278 533 -218 b 533 169 510 -64 515 49 b 158 -44 426 67 290 -44 b 63 46 111 -44 72 -21 b 251 600 40 211 186 438 b 218 600 263 624 250 625 b 29 503 156 547 86 507 b 33 525 8 500 13 524 b 325 746 113 533 300 700 b 413 746 332 767 422 771 b 142 171 382 694 176 361 b 204 4 121 49 154 4 b 540 219 301 4 446 128 b 661 672 568 399 617 581 z m 668 843 b 528 949 621 878 575 913 b 447 979 499 969 472 989 b 478 910 397 963 458 921 b 663 826 536 878 644 826 b 668 843 681 826 675 839 z "},"á":{"ha":635,"x_min":0,"x_max":0,"o":"m 125 -15 b 392 190 236 -15 368 179 b 369 21 374 142 357 58 b 544 4 397 -62 500 -29 b 725 194 614 54 700 146 b 708 206 732 207 715 215 b 501 13 651 125 547 38 b 438 81 457 -11 429 21 b 521 282 443 125 471 211 b 465 315 533 304 479 315 b 328 178 453 315 347 199 b 193 56 292 139 229 86 b 86 18 174 40 106 -10 b 197 247 43 79 158 211 b 439 367 269 311 367 367 b 508 340 465 367 493 364 b 517 347 515 338 517 338 b 493 385 517 361 507 375 b 354 396 457 410 396 407 b 36 32 250 371 -67 163 b 125 -15 57 4 96 -15 z m 639 614 b 631 658 649 622 649 646 b 590 664 624 660 606 671 b 486 575 564 629 522 607 b 410 521 471 563 411 525 b 415 506 404 517 397 506 b 638 611 439 507 607 588 z "},"à":{"ha":635,"x_min":0,"x_max":0,"o":"m 125 -15 b 36 32 96 -15 57 4 b 354 396 -67 163 250 371 b 493 385 396 407 457 410 b 517 347 507 375 517 361 b 508 340 517 338 515 338 b 439 367 493 364 465 367 b 197 247 367 367 269 311 b 86 18 158 211 43 79 b 193 56 106 -10 174 40 b 328 178 229 86 292 139 b 465 315 347 199 453 315 b 521 282 479 315 533 304 b 438 81 471 211 443 125 b 501 13 429 21 457 -11 b 708 206 547 38 651 125 b 725 194 715 215 732 207 b 544 4 700 146 614 54 b 369 21 500 -29 397 -62 b 392 190 357 58 374 142 b 125 -15 368 179 236 -15 z m 500 519 b 360 625 453 554 406 589 b 279 657 329 646 304 665 b 308 588 229 639 290 597 b 494 504 368 554 475 504 b 500 519 513 504 507 517 z "},"â":{"ha":635,"x_min":0,"x_max":0,"o":"m 125 -15 b 392 190 236 -15 368 179 b 369 21 374 142 357 58 b 544 4 397 -62 500 -29 b 725 194 614 54 700 146 b 708 206 732 207 715 215 b 501 13 651 125 547 38 b 438 81 457 -11 429 21 b 521 282 443 125 471 211 b 465 315 533 304 479 315 b 328 178 453 315 347 199 b 193 56 292 139 229 86 b 86 18 174 40 106 -10 b 197 247 43 79 158 211 b 439 367 269 311 367 367 b 508 340 465 367 493 364 b 517 347 515 338 517 338 b 493 385 517 361 507 375 b 354 396 457 410 396 407 b 36 32 250 371 -67 163 b 125 -15 57 4 96 -15 z m 578 517 b 467 644 554 554 493 635 b 313 524 439 643 336 542 b 325 503 299 511 283 476 b 450 596 368 532 404 568 b 564 496 465 579 549 513 b 578 517 586 476 586 504 z "},"ä":{"ha":635,"x_min":0,"x_max":0,"o":"m 125 -15 b 36 32 96 -15 57 4 b 354 396 -67 163 250 371 b 493 385 396 407 457 410 b 517 347 507 375 517 361 b 508 340 517 338 515 338 b 439 367 493 364 465 367 b 197 247 367 367 269 311 b 86 18 158 211 43 79 b 193 56 106 -10 174 40 b 328 178 229 86 292 139 b 465 315 347 199 453 315 b 521 282 479 315 533 304 b 438 81 471 211 443 125 b 501 13 429 21 457 -11 b 708 206 547 38 651 125 b 725 194 715 215 732 207 b 544 4 700 146 614 54 b 369 21 500 -29 397 -62 b 392 190 357 58 374 142 b 125 -15 368 179 236 -15 z m 368 560 b 350 583 368 581 396 621 b 285 528 343 579 285 535 b 332 506 285 506 313 506 b 368 560 343 506 368 546 z m 589 560 b 571 583 589 581 617 621 b 506 528 564 579 506 535 b 551 506 506 506 531 506 b 589 560 563 506 589 546 z "},"ã":{"ha":635,"x_min":0,"x_max":0,"o":"m 125 -15 b 392 190 236 -15 368 179 b 369 21 374 142 357 58 b 544 4 397 -62 500 -29 b 725 194 614 54 700 146 b 708 206 732 207 715 215 b 501 13 651 125 547 38 b 438 81 457 -11 429 21 b 521 282 443 125 471 211 b 465 315 533 304 479 315 b 328 178 453 315 347 199 b 193 56 292 139 229 86 b 86 18 174 40 106 -10 b 197 247 43 79 158 211 b 439 367 269 311 367 367 b 508 340 465 367 493 364 b 517 347 515 338 517 338 b 493 385 517 361 507 375 b 354 396 457 410 396 407 b 36 32 250 371 -67 163 b 125 -15 57 4 96 -15 z m 631 597 b 606 601 633 604 611 610 b 522 560 590 558 564 547 b 410 611 485 572 438 601 b 257 511 346 635 299 569 b 278 506 253 506 272 499 b 347 554 293 531 318 547 b 501 514 399 565 450 533 b 631 597 554 497 606 542 z "},"å":{"ha":635,"x_min":0,"x_max":0,"o":"m 125 -15 b 36 32 96 -15 57 4 b 354 396 -67 163 250 371 b 493 385 396 407 457 410 b 517 347 507 375 517 361 b 508 340 517 338 515 338 b 439 367 493 364 465 367 b 197 247 367 367 269 311 b 86 18 158 211 43 79 b 193 56 106 -10 174 40 b 328 178 229 86 292 139 b 465 315 347 199 453 315 b 521 282 479 315 533 304 b 438 81 471 211 443 125 b 501 13 429 21 457 -11 b 708 206 547 38 651 125 b 725 194 715 215 732 207 b 544 4 700 146 614 54 b 369 21 500 -29 397 -62 b 392 190 357 58 374 142 b 125 -15 368 179 236 -15 z m 585 593 b 496 526 576 568 543 526 b 446 563 464 526 447 544 b 543 664 443 600 492 664 b 585 593 599 664 593 614 z m 624 622 b 544 681 624 665 583 681 b 464 660 514 681 479 672 b 410 589 431 639 413 608 b 453 517 404 553 424 528 b 563 526 485 504 529 506 b 624 622 597 551 624 586 z "},"ç":{"ha":438,"x_min":0,"x_max":0,"o":"m -33 -361 b 346 -243 42 -486 346 -383 b 169 -150 346 -178 283 -128 b 249 -42 181 -135 242 -57 b 236 -29 251 -35 244 -29 b 526 188 363 -1 451 83 b 526 208 529 193 533 206 b 510 206 524 208 517 214 b 238 4 431 104 363 40 b 110 93 158 -18 78 -10 b 390 361 147 219 319 361 b 411 333 404 361 411 346 b 404 306 411 325 406 315 b 410 290 403 301 404 294 b 444 338 419 278 443 329 b 408 400 454 374 433 392 b 47 158 304 435 89 253 b 207 -35 -14 18 79 -50 b 201 -42 203 -36 201 -37 b 132 -164 190 -67 149 -142 b 190 -181 106 -199 140 -190 b 281 -243 246 -168 281 -199 b -14 -350 281 -357 51 -451 b -33 -361 -29 -328 -50 -329 z "},"é":{"ha":443,"x_min":0,"x_max":0,"o":"m 431 271 b 408 400 457 310 465 381 b 47 158 304 435 89 253 b 290 -17 -29 -17 149 -74 b 531 192 388 24 475 100 b 529 208 536 199 536 206 b 514 204 526 211 519 211 b 272 11 464 128 375 53 b 110 93 182 -25 75 -24 b 342 347 140 194 260 310 b 413 339 361 357 411 378 b 350 249 415 308 374 267 b 176 158 299 207 221 163 b 186 139 156 157 165 138 b 431 271 249 144 381 197 z m 544 611 b 536 657 556 621 556 644 b 496 663 529 658 513 669 b 392 574 471 628 429 604 b 315 519 376 561 318 524 b 321 504 311 514 304 504 b 543 610 346 506 514 586 z "},"ê":{"ha":443,"x_min":0,"x_max":0,"o":"m 431 271 b 408 400 457 310 465 381 b 47 158 304 435 89 253 b 290 -17 -29 -17 149 -74 b 531 192 388 24 475 100 b 529 208 536 199 536 206 b 514 204 526 211 519 211 b 272 11 464 128 375 53 b 110 93 182 -25 75 -24 b 342 347 140 194 260 310 b 413 339 361 357 411 378 b 350 249 415 308 374 267 b 176 158 299 207 221 163 b 186 139 156 157 165 138 b 431 271 249 144 381 197 z m 542 544 b 431 672 517 582 457 663 b 276 551 403 671 300 569 b 288 531 263 539 246 504 b 413 624 332 560 368 596 b 528 524 429 607 513 540 b 542 544 550 504 550 532 z "},"ë":{"ha":443,"x_min":0,"x_max":0,"o":"m 431 271 b 186 139 381 197 249 144 b 176 158 165 138 156 157 b 350 249 221 163 299 207 b 413 339 374 267 415 308 b 342 347 411 378 361 357 b 110 93 260 310 140 194 b 272 11 75 -24 182 -25 b 514 204 375 53 464 128 b 529 208 519 211 526 211 b 531 192 536 206 536 199 b 290 -17 475 100 388 24 b 47 158 149 -74 -29 -17 b 408 400 89 253 304 435 b 431 271 465 381 457 310 z m 343 558 b 326 582 343 579 371 618 b 260 526 319 576 260 533 b 307 504 260 504 288 504 b 343 558 319 504 343 544 z m 564 558 b 547 582 564 579 592 618 b 481 526 540 576 481 533 b 528 504 481 504 507 504 b 564 558 538 504 564 544 z "},"è":{"ha":443,"x_min":0,"x_max":0,"o":"m 431 271 b 186 139 381 197 249 144 b 176 158 165 138 156 157 b 350 249 221 163 299 207 b 413 339 374 267 415 308 b 342 347 411 378 361 357 b 110 93 260 310 140 194 b 272 11 75 -24 182 -25 b 514 204 375 53 464 128 b 529 208 519 211 526 211 b 531 192 536 206 536 199 b 290 -17 475 100 388 24 b 47 158 149 -74 -29 -17 b 408 400 89 253 304 435 b 431 271 465 381 457 310 z m 475 521 b 335 628 429 556 382 590 b 256 658 306 649 279 667 b 285 589 204 642 265 600 b 471 506 343 556 451 506 b 475 521 488 506 482 518 z "},"í":{"ha":314,"x_min":0,"x_max":0,"o":"m 404 194 b 388 206 411 207 394 215 b 181 13 329 125 225 38 b 117 81 135 -11 107 21 b 200 282 121 125 158 199 b 228 368 221 325 236 351 b 179 385 221 382 197 386 b 131 303 160 381 146 346 b 128 285 126 294 126 289 b 21 142 107 253 69 201 b 36 122 8 125 22 107 b 90 192 65 156 78 176 b 49 21 61 128 38 53 b 224 4 76 -62 179 -29 b 404 194 293 54 378 146 z m 417 611 b 408 657 426 621 426 644 b 368 663 401 658 383 669 b 264 574 342 628 300 604 b 188 519 249 561 189 524 b 193 504 182 514 175 504 b 415 610 217 506 385 586 z "},"ì":{"ha":314,"x_min":0,"x_max":0,"o":"m 404 194 b 388 206 411 207 394 215 b 181 13 329 125 225 38 b 117 81 135 -11 107 21 b 200 282 121 125 158 199 b 228 368 221 325 236 351 b 179 385 221 382 197 386 b 131 303 160 381 146 346 b 128 285 126 294 126 289 b 21 142 107 253 69 201 b 36 122 8 125 22 107 b 90 192 65 156 78 176 b 49 21 61 128 38 53 b 224 4 76 -62 179 -29 b 404 194 293 54 378 146 z m 336 521 b 196 628 290 556 243 590 b 117 658 167 649 140 667 b 146 589 65 642 126 600 b 332 506 204 556 313 506 b 336 521 349 506 343 518 z "},"î":{"ha":314,"x_min":0,"x_max":0,"o":"m 404 194 b 388 206 411 207 394 215 b 181 13 329 125 225 38 b 117 81 135 -11 107 21 b 200 282 121 125 158 199 b 228 368 221 325 236 351 b 179 385 221 382 197 386 b 131 303 160 381 146 346 b 128 285 126 294 126 289 b 21 142 107 253 69 201 b 36 122 8 125 22 107 b 90 192 65 156 78 176 b 49 21 61 128 38 53 b 224 4 76 -62 179 -29 b 404 194 293 54 378 146 z m 385 546 b 274 674 361 583 300 664 b 119 553 246 672 144 572 b 132 532 106 540 90 506 b 257 625 175 561 211 597 b 371 525 272 608 356 542 b 385 546 394 506 394 533 z "},"ï":{"ha":314,"x_min":0,"x_max":0,"o":"m 404 194 b 388 206 411 207 394 215 b 181 13 329 125 225 38 b 117 81 135 -11 107 21 b 200 282 121 125 158 199 b 228 368 221 325 236 351 b 179 385 221 382 197 386 b 131 303 160 381 146 346 b 128 285 126 294 126 289 b 21 142 107 253 69 201 b 36 122 8 125 22 107 b 90 192 65 156 78 176 b 49 21 61 128 38 53 b 224 4 76 -62 179 -29 b 404 194 293 54 378 146 z m 188 558 b 169 582 188 579 215 618 b 104 526 163 576 104 533 b 151 504 104 504 132 504 b 188 558 163 504 188 544 z m 408 558 b 390 582 408 579 436 618 b 325 526 383 576 325 533 b 371 504 325 504 350 504 b 408 558 382 504 408 544 z "},"ñ":{"ha":568,"x_min":0,"x_max":0,"o":"m 369 268 b 367 -31 335 204 221 -17 b 478 4 406 -35 451 -15 b 658 194 547 54 632 146 b 640 206 665 207 647 215 b 433 13 583 125 478 38 b 369 81 389 -11 361 21 b 401 186 374 107 383 144 b 467 324 419 233 451 276 b 356 357 494 407 436 417 b 100 94 279 297 158 167 b 196 339 117 139 161 263 b 186 379 207 361 208 374 b 113 317 114 399 119 333 b -8 -25 85 240 3 3 b 65 -11 -22 -51 51 -18 b 288 260 92 4 208 188 b 369 268 389 347 394 313 z m 576 594 b 551 597 579 601 557 607 b 468 556 536 554 510 544 b 356 608 431 568 383 597 b 203 507 292 631 244 567 b 224 503 200 503 218 496 b 293 551 239 526 264 544 b 447 511 346 561 396 531 b 576 594 500 493 551 539 z "},"ó":{"ha":488,"x_min":0,"x_max":0,"o":"m 313 100 b 168 -8 271 38 211 -8 b 110 93 117 -8 100 39 b 326 361 132 219 265 361 b 353 324 353 361 356 339 b 376 333 353 313 374 311 b 336 400 382 368 361 392 b 181 347 294 415 232 393 b 58 165 118 292 72 218 b 96 -14 33 79 50 14 b 279 14 142 -43 217 -39 b 333 68 297 31 315 49 b 390 33 343 47 367 33 b 531 131 444 33 500 93 b 578 194 551 156 569 178 b 561 206 585 207 568 215 b 513 146 547 186 529 165 b 394 65 485 117 439 65 b 360 103 376 65 361 76 b 419 289 390 146 439 232 b 363 274 408 326 347 313 b 343 153 369 257 381 228 b 308 108 319 160 300 138 b 313 100 308 104 311 103 z m 561 614 b 551 658 571 622 571 646 b 513 664 544 660 528 671 b 408 575 486 629 444 607 b 332 521 392 563 333 525 b 336 506 326 517 319 506 b 558 611 361 507 529 588 z "},"ô":{"ha":488,"x_min":0,"x_max":0,"o":"m 313 100 b 168 -8 271 38 211 -8 b 110 93 117 -8 100 39 b 326 361 132 219 265 361 b 353 324 353 361 356 339 b 376 333 353 313 374 311 b 336 400 382 368 361 392 b 181 347 294 415 232 393 b 58 165 118 292 72 218 b 96 -14 33 79 50 14 b 279 14 142 -43 217 -39 b 333 68 297 31 315 49 b 390 33 343 47 367 33 b 531 131 444 33 500 93 b 578 194 551 156 569 178 b 561 206 585 207 568 215 b 513 146 547 186 529 165 b 394 65 485 117 439 65 b 360 103 376 65 361 76 b 419 289 390 146 439 232 b 363 274 408 326 347 313 b 343 153 369 257 381 228 b 308 108 319 160 300 138 b 313 100 308 104 311 103 z m 489 546 b 378 674 465 583 404 664 b 224 553 350 672 249 572 b 236 532 210 540 194 506 b 361 625 279 561 315 597 b 475 525 376 608 460 542 b 489 546 499 506 499 533 z "},"ö":{"ha":488,"x_min":0,"x_max":0,"o":"m 313 100 b 308 108 311 103 308 104 b 343 153 300 138 319 160 b 363 274 381 228 369 257 b 419 289 347 313 408 326 b 360 103 439 232 390 146 b 394 65 361 76 376 65 b 513 146 439 65 485 117 b 561 206 529 165 547 186 b 578 194 568 215 585 207 b 531 131 569 178 551 156 b 390 33 500 93 444 33 b 333 68 367 33 343 47 b 279 14 315 49 297 31 b 96 -14 217 -39 142 -43 b 58 165 50 14 33 79 b 181 347 72 218 118 292 b 336 400 232 393 294 415 b 376 333 361 392 382 368 b 353 324 374 311 353 313 b 326 361 356 339 353 361 b 110 93 265 361 132 219 b 168 -8 100 39 117 -8 b 313 100 211 -8 271 38 z m 301 560 b 285 583 301 581 329 621 b 218 528 278 579 218 535 b 265 506 218 506 246 506 b 301 560 278 506 301 546 z m 522 560 b 506 583 522 581 550 621 b 439 528 499 579 439 535 b 486 506 439 506 465 506 b 522 560 496 506 522 546 z "},"ò":{"ha":488,"x_min":0,"x_max":0,"o":"m 313 100 b 308 108 311 103 308 104 b 343 153 300 138 319 160 b 363 274 381 228 369 257 b 419 289 347 313 408 326 b 360 103 439 232 390 146 b 394 65 361 76 376 65 b 513 146 439 65 485 117 b 561 206 529 165 547 186 b 578 194 568 215 585 207 b 531 131 569 178 551 156 b 390 33 500 93 444 33 b 333 68 367 33 343 47 b 279 14 315 49 297 31 b 96 -14 217 -39 142 -43 b 58 165 50 14 33 79 b 181 347 72 218 118 292 b 336 400 232 393 294 415 b 376 333 361 392 382 368 b 353 324 374 311 353 313 b 326 361 356 339 353 361 b 110 93 265 361 132 219 b 168 -8 100 39 117 -8 b 313 100 211 -8 271 38 z m 443 521 b 301 628 396 556 349 590 b 222 658 272 649 246 667 b 251 589 172 642 232 600 b 438 506 311 556 418 506 b 443 521 454 506 450 518 z "},"õ":{"ha":488,"x_min":0,"x_max":0,"o":"m 313 100 b 168 -8 271 38 211 -8 b 110 93 117 -8 100 39 b 326 361 132 219 265 361 b 353 324 353 361 356 339 b 376 333 353 313 374 311 b 336 400 382 368 361 392 b 181 347 294 415 232 393 b 58 165 118 292 72 218 b 96 -14 33 79 50 14 b 279 14 142 -43 217 -39 b 333 68 297 31 315 49 b 390 33 343 47 367 33 b 531 131 444 33 500 93 b 578 194 551 156 569 178 b 561 206 585 207 568 215 b 513 146 547 186 529 165 b 394 65 485 117 439 65 b 360 103 376 65 361 76 b 419 289 390 146 439 232 b 363 274 408 326 347 313 b 343 153 369 257 381 228 b 308 108 319 160 300 138 b 313 100 308 104 311 103 z m 535 590 b 510 594 538 597 515 603 b 426 553 494 551 468 540 b 314 604 389 565 342 594 b 161 504 250 628 203 563 b 182 499 158 499 176 492 b 251 547 197 524 222 540 b 406 507 304 558 354 526 b 535 590 458 490 510 535 z "},"ú":{"ha":618,"x_min":0,"x_max":0,"o":"m 708 194 b 690 206 715 207 697 215 b 485 13 633 125 529 38 b 419 81 439 -11 411 21 b 464 218 426 131 443 178 b 550 368 482 254 533 340 b 478 406 564 393 496 406 b 388 253 460 378 413 289 b 225 56 336 178 276 97 b 110 128 128 -22 65 10 b 246 322 144 221 215 294 b 249 350 256 329 265 343 b 174 350 229 357 197 357 b 107 264 161 346 126 294 b 58 32 57 188 26 83 b 156 -15 76 3 128 -15 b 376 200 269 -15 356 186 b 353 21 357 151 340 58 b 528 4 381 -62 482 -29 b 708 194 597 54 682 146 z m 600 615 b 592 660 611 624 611 649 b 551 665 585 663 568 672 b 447 576 526 631 485 608 b 371 524 432 565 374 526 b 376 507 367 518 360 507 b 599 614 401 510 569 589 z "},"û":{"ha":618,"x_min":0,"x_max":0,"o":"m 708 194 b 690 206 715 207 697 215 b 485 13 633 125 529 38 b 419 81 439 -11 411 21 b 464 218 426 131 443 178 b 550 368 482 254 533 340 b 478 406 564 393 496 406 b 388 253 460 378 413 289 b 225 56 336 178 276 97 b 110 128 128 -22 65 10 b 246 322 144 221 215 294 b 249 350 256 329 265 343 b 174 350 229 357 197 357 b 107 264 161 346 126 294 b 58 32 57 188 26 83 b 156 -15 76 3 128 -15 b 376 200 269 -15 356 186 b 353 21 357 151 340 58 b 528 4 381 -62 482 -29 b 708 194 597 54 682 146 z m 554 544 b 443 672 529 582 468 663 b 288 551 415 671 313 569 b 300 531 274 539 258 504 b 425 624 343 560 381 596 b 540 524 440 607 524 540 b 554 544 563 504 563 532 z "},"ü":{"ha":618,"x_min":0,"x_max":0,"o":"m 708 194 b 690 206 715 207 697 215 b 485 13 633 125 529 38 b 419 81 439 -11 411 21 b 464 218 426 131 443 178 b 550 368 482 254 533 340 b 478 406 564 393 496 406 b 388 253 460 378 413 289 b 225 56 336 178 276 97 b 110 128 128 -22 65 10 b 246 322 144 221 215 294 b 249 350 256 329 265 343 b 174 350 229 357 197 357 b 107 264 161 346 126 294 b 58 32 57 188 26 83 b 156 -15 76 3 128 -15 b 376 200 269 -15 356 186 b 353 21 357 151 340 58 b 528 4 381 -62 482 -29 b 708 194 597 54 682 146 z m 340 558 b 322 582 340 579 368 618 b 257 526 315 576 257 533 b 304 504 257 504 285 504 b 340 558 315 504 340 544 z m 561 558 b 543 582 561 579 589 618 b 478 526 536 576 478 533 b 524 504 478 504 503 504 b 561 558 535 504 561 544 z "},"ù":{"ha":618,"x_min":0,"x_max":0,"o":"m 708 194 b 690 206 715 207 697 215 b 485 13 633 125 529 38 b 419 81 439 -11 411 21 b 464 218 426 131 443 178 b 550 368 482 254 533 340 b 478 406 564 393 496 406 b 388 253 460 378 413 289 b 225 56 336 178 276 97 b 110 128 128 -22 65 10 b 246 322 144 221 215 294 b 249 350 256 329 265 343 b 174 350 229 357 197 357 b 107 264 161 346 126 294 b 58 32 57 188 26 83 b 156 -15 76 3 128 -15 b 376 200 269 -15 356 186 b 353 21 357 151 340 58 b 528 4 381 -62 482 -29 b 708 194 597 54 682 146 z m 493 519 b 353 625 446 554 399 589 b 272 657 322 646 297 665 b 301 588 222 639 283 597 b 488 504 361 554 468 504 b 493 519 506 504 500 517 z "},"Ÿ":{"ha":731,"x_min":0,"x_max":0,"o":"m 964 767 b 828 763 947 768 888 788 b 783 726 811 756 794 746 b 764 697 776 721 771 711 b 728 617 751 674 742 646 b 204 4 606 358 363 4 b 142 171 154 4 121 49 b 413 746 176 360 382 694 b 325 746 422 771 332 767 b 33 525 300 700 113 533 b 29 503 13 524 8 500 b 218 600 86 507 156 547 b 251 600 250 625 263 624 b 63 46 186 438 40 211 b 158 -44 72 -21 111 -44 b 658 396 315 -44 513 174 b 558 44 614 246 576 90 b 97 -246 378 -14 224 -101 b 618 17 -193 -578 311 -764 b 758 60 631 49 739 69 b 765 79 769 54 774 72 b 638 65 750 88 700 81 b 804 583 661 132 769 493 b 958 739 843 690 885 746 b 964 767 978 739 989 761 z m 550 18 b 329 -386 499 -125 426 -268 b 165 -239 151 -604 -19 -467 b 550 18 267 -114 399 -32 z m 543 933 b 526 957 543 954 571 993 b 460 901 519 951 460 908 b 507 879 460 879 488 879 b 543 933 519 879 543 919 z m 764 933 b 746 957 764 954 792 993 b 681 901 739 951 681 908 b 728 879 681 879 707 879 b 764 933 738 879 764 919 z "},"ÿ":{"ha":2083,"x_min":0,"x_max":0,"o":""},"":{"ha":2083,"x_min":0,"x_max":0,"o":""},"≠":{"ha":749,"x_min":0,"x_max":0,"o":"m 288 -31 b 385 122 314 17 347 68 b 638 131 486 124 600 128 b 710 151 647 132 711 135 b 635 169 710 163 681 169 l 418 169 b 533 324 457 222 496 276 b 674 329 596 325 651 326 b 749 351 686 331 749 333 b 674 368 749 360 718 368 l 568 368 l 675 497 b 625 514 703 526 646 535 b 508 368 610 500 564 442 l 269 367 b 257 317 239 367 193 313 b 474 322 281 318 378 319 b 364 169 438 274 399 219 l 231 169 b 218 117 203 169 154 114 b 329 121 235 118 278 118 b 232 -31 279 47 239 -11 b 288 -31 222 -62 271 -60 z "},"∞":{"ha":890,"x_min":0,"x_max":0,"o":"m 375 329 b 110 218 314 267 194 146 b 293 524 15 296 133 560 b 374 343 374 506 364 414 z m 454 374 b 599 492 506 428 540 450 b 751 540 644 524 708 549 b 750 304 853 519 793 361 b 454 313 651 174 468 136 b 454 374 453 332 454 353 z m 376 297 b 496 151 385 218 413 169 b 869 396 649 122 822 283 b 813 574 897 464 913 554 b 604 519 749 586 660 556 b 454 403 550 483 503 454 b 339 576 451 465 436 556 b 156 524 276 589 210 565 b 44 357 103 482 68 415 b 97 156 6 250 26 171 b 376 297 203 132 306 225 z "},"≤":{"ha":707,"x_min":0,"x_max":0,"o":"m 249 317 b 239 239 211 283 200 276 b 460 60 299 179 378 129 b 508 90 507 18 554 49 b 315 304 468 129 371 197 b 654 547 461 443 596 496 b 658 600 711 597 682 614 b 249 317 558 538 367 429 z m 606 -57 b 604 -17 654 -51 663 -17 b 124 -18 547 -17 153 -18 b 111 -69 93 -18 47 -72 b 606 -57 158 -67 542 -62 z "},"≥":{"ha":854,"x_min":0,"x_max":0,"o":"m 606 -57 b 604 -17 654 -51 663 -17 b 124 -18 547 -17 153 -18 b 111 -69 93 -18 47 -72 b 606 -57 158 -67 542 -62 z "},"∂":{"ha":438,"x_min":0,"x_max":0,"o":"m 113 -29 b 439 93 243 -65 367 7 b 586 651 571 246 632 504 b 332 794 558 746 429 881 b 290 615 293 760 278 693 b 336 569 299 565 346 513 b 544 636 299 813 522 850 b 496 292 556 533 536 393 b 390 111 474 233 438 169 b 125 4 346 54 218 -53 b 110 93 104 18 96 46 b 390 361 147 219 319 361 b 425 336 404 361 425 347 b 444 338 425 331 432 317 b 408 400 454 374 433 392 b 47 158 304 435 89 253 b 113 -29 3 58 40 -8 z "},"∏":{"ha":681,"x_min":0,"x_max":0,"o":"m 785 704 b 778 714 785 711 783 714 b 628 653 717 674 667 653 b 460 688 589 653 533 665 b 290 725 388 713 329 725 b 75 625 214 725 142 690 b 76 586 54 604 44 565 b 274 657 133 636 197 657 b 169 10 274 499 228 163 b 201 -3 158 -25 197 -15 b 336 651 257 139 333 476 b 501 611 410 636 465 622 b 415 86 465 507 415 232 b 503 -51 415 -11 453 -51 b 753 167 621 -53 693 83 b 731 178 763 179 763 218 b 521 -14 686 118 600 -15 b 468 72 492 -14 468 10 b 571 601 468 219 535 461 b 764 667 647 596 711 618 b 785 704 778 679 785 692 z "},"π":{"ha":572,"x_min":0,"x_max":0,"o":"m 492 325 b 500 357 496 331 514 357 b 401 317 460 331 426 317 b 288 340 375 317 336 325 b 175 364 239 354 201 364 b 31 297 125 364 76 340 b 24 268 28 294 10 268 b 33 271 26 268 29 269 b 165 318 71 304 114 318 b 163 254 165 296 163 275 b 110 -17 160 163 139 68 b 128 -17 107 -21 121 -25 b 204 256 168 61 200 169 b 207 315 207 275 207 294 b 315 289 256 304 292 296 b 276 42 307 261 276 139 b 335 -43 276 -11 299 -43 b 439 32 382 -43 413 -3 b 485 107 464 63 479 89 b 472 110 489 129 481 124 b 404 14 443 60 418 31 b 346 -24 378 -17 357 -24 b 313 42 322 -24 313 -1 b 329 164 313 76 318 117 l 363 282 b 492 325 413 278 457 292 z "},"∫":{"ha":397,"x_min":0,"x_max":0,"o":"m 160 192 b 13 -225 110 58 63 -90 b -196 -496 -19 -308 -92 -494 b -249 -435 -228 -496 -250 -472 b -297 -440 -247 -378 -300 -407 b -219 -525 -293 -483 -258 -511 b 63 -251 -54 -581 28 -364 b 431 649 158 56 263 371 b 593 776 488 742 557 775 b 633 715 624 776 640 753 b 683 721 624 658 682 686 b 617 804 686 763 654 790 b 294 532 460 861 347 644 b 160 192 246 426 200 299 z "},"√":{"ha":800,"x_min":0,"x_max":0,"o":"m 322 -28 b 715 657 451 204 571 433 b 799 806 757 721 794 776 b 764 824 801 825 793 836 b 728 796 749 817 736 808 b 642 642 717 785 682 718 b 333 67 543 449 446 256 b 251 338 288 124 265 268 b 194 338 238 408 246 428 b 76 108 149 260 85 132 b 89 90 71 93 63 56 b 169 206 92 96 135 163 b 228 211 208 254 210 253 b 253 129 236 188 246 160 b 264 -49 269 67 278 -3 b 269 -83 257 -60 225 -104 b 322 -28 297 -71 308 -53 z "},"≈":{"ha":760,"x_min":0,"x_max":0,"o":"m 649 174 b 613 178 654 181 618 186 b 482 138 589 136 547 125 b 307 186 424 150 350 176 b 69 88 208 208 135 146 b 103 83 64 82 93 75 b 210 132 126 107 167 128 b 451 93 292 144 369 110 b 649 174 531 75 613 118 z m 738 367 b 701 368 743 374 707 379 b 571 329 676 326 635 317 b 396 379 513 340 439 368 b 158 281 297 401 222 339 b 190 275 153 275 182 268 b 299 324 215 299 256 318 b 540 285 381 333 458 304 b 738 367 619 268 701 311 z "},"∆":{"ha":840,"x_min":0,"x_max":0,"o":"m 735 82 b 732 88 732 83 732 86 l 542 747 l 540 749 l 538 749 b 535 750 536 750 536 750 b 507 733 528 750 519 746 b 479 699 494 722 486 711 l 58 35 b 51 21 54 31 51 26 b 56 -8 50 13 50 3 b 72 -24 61 -18 65 -24 l 653 -24 b 704 17 669 -15 688 -1 b 732 76 721 33 731 54 b 735 82 735 79 736 81 z m 111 42 l 482 632 l 649 42 z "}," ":{"ha":304,"x_min":0,"x_max":0,"o":""},"◊":{"ha":2083,"x_min":0,"x_max":0,"o":""},"€":{"ha":749,"x_min":0,"x_max":0,"o":"m 769 201 b 751 221 779 215 778 254 b 535 42 694 146 613 83 b 114 221 271 -100 79 -7 b 444 232 225 225 397 228 b 486 253 457 233 488 235 b 443 269 486 263 488 269 l 126 269 b 168 379 135 304 149 340 l 190 421 b 482 429 299 422 440 426 b 524 451 493 431 524 435 b 481 469 524 461 526 469 b 221 468 446 469 322 469 b 585 739 318 615 464 740 b 690 656 633 736 690 711 b 743 658 690 625 743 629 b 593 767 743 750 653 767 b 139 468 425 767 249 631 l 76 468 b 64 417 47 468 0 414 b 107 419 72 417 89 417 b 93 393 104 410 99 401 b 47 269 71 350 56 308 l 40 269 b 26 218 10 269 -39 215 l 38 219 b 90 33 29 143 50 79 b 294 -51 144 -28 217 -51 b 769 201 475 -51 661 61 z "},"":{"ha":731,"x_min":0,"x_max":0,"o":"m 415 850 b 382 719 381 799 375 742 b 531 919 506 713 572 858 b 415 850 513 926 447 900 z m 440 129 b 514 108 453 121 474 108 b 701 322 599 108 669 226 b 590 476 639 346 593 407 b 681 649 586 568 638 624 b 496 728 621 743 517 736 b 411 700 481 721 440 708 b 342 699 389 694 368 692 b 258 728 313 707 274 721 b 65 622 235 736 128 739 b 128 188 -6 493 40 294 b 242 108 167 142 200 108 b 314 129 281 108 300 121 b 440 129 343 150 408 150 z "},"∑":{"ha":776,"x_min":0,"x_max":0,"o":"m 433 336 b 479 388 488 361 492 371 b 221 631 479 388 244 608 b 550 653 314 649 443 656 b 665 632 607 651 635 653 b 674 551 696 611 683 576 b 696 544 661 524 693 532 b 693 679 710 581 753 625 b 514 713 653 715 596 714 b 197 685 478 711 231 692 b 92 678 181 714 97 719 b 154 604 90 649 119 617 b 397 357 168 589 397 357 b 114 93 397 357 253 222 b -7 -28 56 94 -6 40 b 28 -29 -7 -44 8 -42 b 63 -7 36 -28 49 -21 l 63 -4 b 111 39 83 11 103 28 b 418 -43 140 26 382 -36 b 642 -11 496 -58 575 -62 b 683 79 738 58 700 101 b 501 18 646 24 582 7 b 149 86 403 31 218 60 b 433 336 186 125 433 336 z "},"ª":{"ha":903,"x_min":0,"x_max":0,"o":"m 313 649 b 579 853 424 649 556 843 b 557 685 561 804 544 721 b 732 667 585 601 688 635 b 913 858 801 718 888 810 b 896 868 919 871 903 879 b 689 676 839 789 735 700 b 625 743 644 651 617 685 b 708 944 631 789 658 874 b 653 978 721 968 667 978 b 515 840 640 978 535 861 b 381 719 479 803 417 749 b 274 681 361 704 293 653 b 385 910 231 742 346 874 b 626 1031 457 975 554 1031 b 696 1004 653 1031 681 1026 b 704 1011 703 1000 704 1000 b 681 1047 704 1025 694 1039 b 542 1060 644 1074 583 1069 b 224 694 438 1033 121 825 b 313 649 244 667 283 649 z "},"º":{"ha":801,"x_min":0,"x_max":0,"o":"m 538 789 b 394 681 496 726 438 681 b 335 782 342 681 326 728 b 551 1051 357 908 492 1051 b 578 1013 578 1051 582 1028 b 603 1024 578 1003 599 1000 b 563 1089 607 1058 586 1081 b 406 1038 521 1104 458 1082 b 285 854 343 982 299 907 b 321 676 258 768 276 704 b 506 704 368 646 443 650 b 558 757 522 719 542 739 b 617 722 569 736 592 722 b 757 819 669 722 725 782 b 804 885 778 844 794 867 b 786 894 811 896 793 906 b 738 836 772 875 756 854 b 619 754 710 806 665 754 b 585 792 603 754 586 767 b 646 978 617 836 665 921 b 589 963 633 1017 572 1003 b 569 843 596 947 606 917 b 535 797 544 850 526 826 b 538 789 535 794 536 792 z "},"Ω":{"ha":892,"x_min":0,"x_max":0,"o":"m 69 24 b 64 -18 42 19 6 -18 b 269 -17 121 -18 239 -17 b 300 32 294 -17 336 25 l 294 42 b 264 396 235 115 215 239 b 603 722 321 572 457 722 b 714 371 769 722 756 528 b 522 54 689 271 597 97 b 493 21 508 46 496 32 b 503 -21 471 7 454 -22 b 724 -8 550 -18 660 -14 b 799 14 736 -7 799 -3 b 722 32 799 24 767 32 b 540 31 672 32 583 31 b 776 372 653 107 731 221 b 619 754 829 553 806 743 b 211 435 425 764 278 621 b 264 32 154 278 183 118 b 69 24 211 31 126 26 z "},"Ā":{"ha":653,"x_min":0,"x_max":0,"o":"m 15 17 b 72 -97 15 -35 35 -71 b 197 -132 104 -119 146 -132 b 425 -50 276 -132 353 -104 b 746 282 522 21 635 144 b 911 263 801 275 856 268 b 888 121 899 213 890 165 b 968 -35 878 32 910 -35 b 1104 14 996 -35 1051 -28 b 1269 194 1203 93 1265 185 b 1253 207 1276 211 1258 213 b 1099 49 1217 158 1163 97 b 950 97 1003 -24 938 -43 b 975 257 953 151 964 206 b 1013 256 988 257 1000 256 b 1121 269 1051 254 1092 257 b 1175 310 1146 278 1165 292 b 1160 325 1183 324 1168 339 b 1118 294 1153 313 1138 301 b 1017 281 1090 282 1054 278 b 982 282 1006 281 994 282 l 986 292 b 1193 789 1033 468 1099 632 b 1200 804 1196 796 1200 801 b 1186 818 1200 813 1194 818 b 1114 799 1174 818 1133 810 b 1107 794 1111 797 1110 797 l 1106 794 b 1104 790 1106 792 1104 790 b 725 324 1015 679 871 492 b 468 368 639 340 550 360 b 169 218 328 385 183 386 b 183 132 167 185 172 151 b 208 144 196 114 218 125 b 207 197 200 158 200 178 b 461 311 246 304 364 317 b 694 288 538 306 617 297 b 396 -3 585 163 478 53 b 169 -78 325 -50 243 -78 b 85 -57 135 -78 106 -71 b 43 17 57 -39 43 -17 b 15 17 43 75 15 46 z m 1044 664 b 918 289 1001 554 951 419 l 772 313 b 1051 679 874 438 971 569 b 1044 664 1049 674 1047 669 z m 1292 921 b 1367 943 1301 922 1367 926 b 1290 961 1364 951 1335 961 b 1083 958 1232 961 1114 958 b 1071 908 1056 958 1007 906 b 1292 921 1118 910 1225 915 z "},"ā":{"ha":635,"x_min":0,"x_max":0,"o":"m 125 -15 b 392 190 236 -15 368 179 b 369 21 374 142 357 58 b 544 4 397 -62 500 -29 b 725 194 614 54 700 146 b 708 206 732 207 715 215 b 501 13 651 125 547 38 b 438 81 457 -11 429 21 b 521 282 443 125 471 211 b 465 315 533 304 479 315 b 328 178 453 315 347 199 b 193 56 292 139 229 86 b 86 18 174 40 106 -10 b 197 247 43 79 158 211 b 439 367 269 311 367 367 b 508 340 465 367 493 364 b 517 347 515 338 517 338 b 493 385 517 361 507 375 b 354 396 457 410 396 407 b 36 32 250 371 -67 163 b 125 -15 57 4 96 -15 z m 533 500 b 607 524 543 503 607 506 b 531 540 606 532 576 540 b 325 539 474 540 356 539 b 313 489 297 539 249 485 b 533 500 360 490 467 496 z "},"Ą":{"ha":1179,"x_min":0,"x_max":0,"o":"m 15 17 b 72 -97 15 -35 35 -71 b 197 -132 104 -119 146 -132 b 425 -50 276 -132 353 -104 b 746 282 522 21 635 144 b 911 263 801 275 856 268 b 888 121 899 213 890 165 b 946 -31 878 44 901 -17 b 721 -178 897 -64 800 -122 b 628 -396 632 -239 576 -331 b 717 -442 649 -424 688 -442 b 950 -268 828 -442 929 -293 b 932 -251 968 -247 961 -224 b 679 -410 901 -275 711 -458 b 790 -181 635 -349 750 -217 b 989 -32 860 -115 936 -85 b 1104 14 1021 -29 1063 -18 b 1269 194 1203 93 1265 185 b 1253 207 1276 211 1258 213 b 1099 49 1217 158 1163 97 b 950 97 1003 -24 938 -43 b 975 257 953 151 964 206 b 1013 256 988 257 1000 256 b 1121 269 1051 254 1092 257 b 1175 310 1146 278 1165 292 b 1160 325 1183 324 1168 339 b 1118 294 1153 313 1138 301 b 1017 281 1090 282 1054 278 b 982 282 1006 281 994 282 l 986 292 b 1193 789 1033 468 1099 632 b 1200 804 1196 796 1200 801 b 1186 818 1200 813 1194 818 b 1114 799 1174 818 1133 810 b 1104 790 1111 797 1107 794 b 725 324 1015 679 871 492 b 468 368 639 340 550 360 b 169 218 328 385 183 386 b 183 132 167 185 172 151 b 208 144 196 114 218 125 b 207 197 200 158 200 178 b 461 311 246 304 364 317 b 694 288 538 306 617 297 b 396 -3 585 163 478 53 b 169 -78 325 -50 243 -78 b 85 -57 135 -78 106 -71 b 43 17 57 -39 43 -17 b 15 17 43 75 15 46 z m 1044 664 b 918 289 1001 554 951 419 l 772 313 b 1051 679 874 438 971 569 b 1044 664 1049 674 1047 669 z "},"ą":{"ha":635,"x_min":0,"x_max":0,"o":"m 406 -197 b 200 -326 381 -218 225 -365 b 290 -140 165 -278 257 -169 b 440 -31 342 -93 399 -67 b 544 4 479 -31 521 -15 b 725 194 614 54 700 146 b 708 206 732 207 715 215 b 501 13 651 125 547 38 b 438 81 457 -11 429 21 b 521 282 443 125 471 211 b 465 315 533 304 479 315 b 328 178 453 315 347 199 b 193 56 292 139 229 86 b 86 18 174 40 106 -10 b 197 247 43 79 158 211 b 439 367 269 311 367 367 b 508 340 465 367 493 364 b 517 347 515 338 517 338 b 493 385 517 361 507 375 b 354 396 457 410 396 407 b 36 32 250 371 -67 163 b 125 -15 57 4 96 -15 b 392 190 236 -15 368 179 b 369 21 374 142 357 58 b 408 -24 376 -3 390 -17 b 235 -139 367 -51 293 -97 b 158 -315 161 -189 117 -264 b 231 -354 175 -337 207 -354 b 419 -211 321 -354 403 -232 b 406 -197 436 -196 429 -175 z "},"Č":{"ha":667,"x_min":0,"x_max":0,"o":"m 715 810 b 42 246 443 851 113 535 b 288 -81 -12 21 118 -79 b 842 201 467 -83 697 3 b 822 214 849 213 832 228 b 288 -46 693 32 453 -51 b 110 221 140 -44 50 39 b 714 776 211 539 568 799 b 751 622 790 764 785 686 b 404 401 683 492 549 414 b 397 358 367 399 353 354 b 826 694 536 371 821 533 b 715 810 828 750 792 799 z m 592 1013 b 704 885 618 975 676 894 b 857 1006 731 886 833 986 b 847 1026 874 1018 888 1053 b 722 935 801 997 767 963 b 606 1033 707 951 624 1018 b 592 1013 585 1054 583 1026 z "},"č":{"ha":438,"x_min":0,"x_max":0,"o":"m 526 188 b 526 208 529 193 533 206 b 510 206 524 208 517 214 b 238 4 431 104 363 40 b 110 93 158 -18 78 -10 b 390 361 147 219 319 361 b 411 333 404 361 411 346 b 404 306 411 325 406 315 b 410 290 403 301 404 294 b 444 338 419 278 443 329 b 408 400 454 374 433 392 b 47 158 304 435 89 253 b 218 -32 -15 14 85 -56 b 526 188 356 -8 447 81 z m 286 617 b 399 489 313 579 371 499 b 551 610 425 490 528 590 b 542 631 568 622 582 657 b 417 539 496 601 461 567 b 300 638 401 556 318 622 b 286 617 279 658 278 631 z "},"Ć":{"ha":667,"x_min":0,"x_max":0,"o":"m 715 810 b 42 246 443 851 113 535 b 288 -81 -12 21 118 -79 b 842 201 467 -83 697 3 b 822 214 849 213 832 228 b 288 -46 693 32 453 -51 b 110 221 140 -44 50 39 b 714 776 211 539 568 799 b 751 622 790 764 785 686 b 404 401 683 492 549 414 b 397 358 367 399 353 354 b 826 694 536 371 821 533 b 715 810 828 750 792 799 z m 867 993 b 857 1039 876 1003 876 1026 b 818 1044 850 1040 833 1051 b 714 956 792 1010 750 986 b 638 901 697 943 639 906 b 642 886 632 896 625 886 b 864 992 667 888 835 968 z "},"ć":{"ha":438,"x_min":0,"x_max":0,"o":"m 526 188 b 526 208 529 193 533 206 b 510 206 524 208 517 214 b 238 4 431 104 363 40 b 110 93 158 -18 78 -10 b 390 361 147 219 319 361 b 411 333 404 361 411 346 b 404 306 411 325 406 315 b 410 290 403 301 404 294 b 444 338 419 278 443 329 b 408 400 454 374 433 392 b 47 158 304 435 89 253 b 218 -32 -15 14 85 -56 b 526 188 356 -8 447 81 z m 603 607 b 593 651 613 615 613 639 b 554 657 586 653 569 664 b 450 568 528 622 486 600 b 374 514 433 556 375 518 b 378 499 368 510 361 499 b 600 604 403 500 571 581 z "},"Ź":{"ha":763,"x_min":0,"x_max":0,"o":"m 874 753 b 307 788 708 794 471 843 b 201 596 228 761 144 669 b 218 610 221 572 231 583 b 332 733 196 651 257 714 b 825 693 467 769 690 735 b 481 367 738 649 611 506 b 399 367 454 365 426 365 b 360 394 388 368 382 394 b 283 353 342 396 283 381 b 319 315 283 331 304 315 b 436 318 339 313 383 315 b 128 54 321 194 208 82 b 43 67 90 58 56 72 b 44 -15 0 47 10 -3 b 131 6 57 -21 97 -11 b 842 -294 332 -65 563 -322 b 971 -154 936 -286 979 -219 b 932 -43 965 -121 957 -83 b 910 -49 919 -21 896 -24 b 804 -222 978 -156 876 -212 b 208 7 590 -244 401 -94 b 201 49 194 17 182 32 b 451 254 286 97 382 183 l 517 324 b 757 353 617 331 722 343 b 757 382 814 371 778 381 b 561 372 693 386 625 378 b 874 679 669 496 778 625 b 1024 789 929 667 1031 714 b 874 753 1019 854 901 781 z m 868 992 b 860 1038 878 1000 878 1025 b 819 1042 853 1039 835 1049 b 715 954 793 1007 751 985 b 639 900 700 942 640 903 b 644 885 633 894 626 885 b 867 990 668 886 836 965 z "},"ź":{"ha":586,"x_min":0,"x_max":0,"o":"m 154 318 l 61 190 b 63 167 54 179 57 171 b 90 188 69 160 83 179 b 176 285 114 221 146 257 b 300 324 208 315 242 331 b 419 294 340 318 374 308 b 204 93 363 239 279 157 b 161 56 201 89 183 74 b 72 60 131 65 99 68 b 22 -35 14 40 3 -24 b 132 10 44 -46 90 -22 b 186 -17 153 3 172 -8 b 396 -62 258 -62 322 -87 b 461 -28 408 -58 429 -51 b 683 200 531 24 654 150 b 660 206 690 213 667 215 b 432 -10 607 132 489 24 b 222 28 363 -49 299 -18 l 181 49 b 217 81 196 61 208 74 b 457 285 293 149 392 232 b 576 364 494 276 579 315 b 468 339 572 406 488 357 l 361 364 b 154 318 288 381 221 414 z m 649 608 b 640 653 660 617 660 642 b 600 658 633 656 617 665 b 496 569 575 624 533 601 b 419 517 481 558 422 519 b 425 500 415 511 408 500 b 647 607 450 503 618 582 z "},"Ď":{"ha":788,"x_min":0,"x_max":0,"o":"m 160 410 b 854 768 160 604 554 775 b 1079 207 1228 757 1285 456 b 444 44 940 39 646 -104 b 839 597 503 169 710 597 b 856 601 849 597 857 583 b 774 651 849 638 790 651 b 554 436 701 651 563 482 b 544 379 557 429 563 415 b 403 72 507 301 426 131 b 307 178 397 74 307 146 b 318 222 307 204 307 199 b 321 253 326 242 326 249 b 263 239 311 260 276 249 b 253 211 256 232 250 222 b 264 172 258 197 265 185 b 251 24 257 125 251 83 b 333 -106 251 3 263 -106 b 432 19 371 -106 425 10 b 683 -51 496 -29 589 -51 b 1260 468 965 -51 1260 171 b 1151 701 1260 556 1228 639 b 110 451 919 888 110 790 b 113 429 110 444 113 433 b 267 297 100 344 218 301 b 276 317 286 296 294 308 b 160 410 244 332 160 340 z m 385 40 b 311 -36 378 24 328 -122 b 300 125 299 28 300 107 b 385 40 325 103 364 58 z m 783 993 b 896 865 808 956 868 875 b 1049 986 922 867 1024 968 b 1038 1007 1064 999 1078 1033 b 913 915 993 978 958 943 b 797 1014 897 933 814 999 b 783 993 776 1035 774 1007 z "},"ď":{"ha":978,"x_min":0,"x_max":0,"o":"m 125 -15 b 440 243 208 -15 356 144 b 429 -169 404 153 290 -147 b 521 -156 454 -174 501 -169 b 542 -132 529 -147 536 -139 b 526 -121 550 -115 543 -111 b 506 -136 517 -126 513 -132 b 443 -125 479 -157 454 -147 b 444 67 419 -86 422 -21 b 521 292 461 129 493 226 b 929 683 646 400 847 539 b 889 819 961 740 968 804 b 499 381 729 851 592 596 l 493 385 b 354 396 458 410 396 407 b 36 32 250 371 -67 163 b 125 -15 57 4 96 -15 z m 488 358 l 468 311 b 193 56 385 222 286 132 b 86 18 174 40 106 -10 b 197 247 43 79 158 211 b 439 367 269 311 367 367 b 488 358 457 367 474 365 z m 563 372 b 839 763 635 532 714 667 b 894 708 908 815 929 775 b 563 372 832 590 674 444 z m 1078 725 b 1042 769 1078 740 1064 769 b 1003 756 1035 769 1014 769 b 1010 683 1000 722 1026 729 b 946 576 999 643 974 608 b 915 539 931 560 915 540 b 931 531 915 533 915 519 b 1019 624 940 538 981 579 b 1078 725 1050 663 1078 706 z "},"Ē":{"ha":729,"x_min":0,"x_max":0,"o":"m 628 818 b 417 743 568 832 451 803 b 501 385 356 639 425 472 b 33 108 350 378 33 340 b 349 -104 33 -60 194 -104 b 819 7 478 -104 704 -58 b 985 288 906 56 1058 181 b 968 285 981 292 967 292 b 746 35 989 199 821 74 b 300 -69 656 -11 450 -69 b 93 67 144 -69 92 -8 b 515 340 97 233 376 338 b 640 325 549 333 613 310 b 617 381 667 340 667 375 b 543 394 600 382 551 385 b 564 781 481 476 419 721 b 682 750 614 799 661 769 b 765 631 718 719 743 678 b 808 518 783 594 786 546 b 843 639 850 468 863 593 b 808 704 835 660 825 690 b 783 711 801 708 790 707 b 743 740 767 715 753 729 b 628 818 711 769 676 806 z m 764 900 b 839 922 774 901 839 906 b 763 940 836 931 807 940 b 556 938 704 940 586 938 b 543 888 528 938 479 885 b 764 900 590 889 697 894 z "},"ē":{"ha":443,"x_min":0,"x_max":0,"o":"m 431 271 b 408 400 457 310 465 381 b 47 158 304 435 89 253 b 290 -17 -29 -17 149 -74 b 531 192 388 24 475 100 b 529 208 536 199 536 206 b 514 204 526 211 519 211 b 272 11 464 128 375 53 b 110 93 182 -25 75 -24 b 342 347 140 194 260 310 b 413 339 361 357 411 378 b 350 249 415 308 374 267 b 176 158 299 207 221 163 b 186 139 156 157 165 138 b 431 271 249 144 381 197 z m 501 500 b 576 524 513 503 576 506 b 500 540 575 532 544 540 b 293 539 443 540 325 539 b 281 489 265 539 217 485 b 501 500 328 490 436 496 z "},"Ė":{"ha":729,"x_min":0,"x_max":0,"o":"m 628 818 b 417 743 568 832 451 803 b 501 385 356 639 425 472 b 33 108 350 378 33 340 b 349 -104 33 -60 194 -104 b 819 7 478 -104 704 -58 b 985 288 906 56 1058 181 b 968 285 981 292 967 292 b 746 35 989 199 821 74 b 300 -69 656 -11 450 -69 b 93 67 144 -69 92 -8 b 515 340 97 233 376 338 b 640 325 549 333 613 310 b 617 381 667 340 667 375 b 543 394 600 382 551 385 b 564 781 481 476 419 721 b 682 750 614 799 661 769 b 765 631 718 719 743 678 b 808 518 783 594 786 546 b 843 639 850 468 863 593 b 808 704 835 660 825 690 b 783 711 801 708 790 707 b 743 740 767 715 753 729 b 628 818 711 769 676 806 z m 728 989 b 668 1013 728 1021 736 1067 b 600 944 658 1004 600 954 b 669 910 600 910 642 910 b 728 989 689 910 728 971 z "},"ė":{"ha":443,"x_min":0,"x_max":0,"o":"m 431 271 b 408 400 457 310 465 381 b 47 158 304 435 89 253 b 290 -17 -29 -17 149 -74 b 531 192 388 24 475 100 b 529 208 536 199 536 206 b 514 204 526 211 519 211 b 272 11 464 128 375 53 b 110 93 182 -25 75 -24 b 342 347 140 194 260 310 b 413 339 361 357 411 378 b 350 249 415 308 374 267 b 176 158 299 207 221 163 b 186 139 156 157 165 138 b 431 271 249 144 381 197 z m 464 565 b 424 581 464 588 471 617 b 378 535 417 575 378 540 b 425 511 378 511 406 511 b 464 565 438 511 464 553 z "},"Ě":{"ha":729,"x_min":0,"x_max":0,"o":"m 628 818 b 417 743 568 832 451 803 b 501 385 356 639 425 472 b 33 108 350 378 33 340 b 349 -104 33 -60 194 -104 b 819 7 478 -104 704 -58 b 985 288 906 56 1058 181 b 968 285 981 292 967 292 b 746 35 989 199 821 74 b 300 -69 656 -11 450 -69 b 93 67 144 -69 92 -8 b 515 340 97 233 376 338 b 640 325 549 333 613 310 b 617 381 667 340 667 375 b 543 394 600 382 551 385 b 564 781 481 476 419 721 b 682 750 614 799 661 769 b 765 631 718 719 743 678 b 808 518 783 594 786 546 b 843 639 850 468 863 593 b 808 704 835 660 825 690 b 783 711 801 708 790 707 b 743 740 767 715 753 729 b 628 818 711 769 676 806 z m 579 1007 b 693 879 606 969 665 889 b 846 1000 718 881 821 982 b 835 1021 861 1013 875 1047 b 710 929 790 992 756 957 b 593 1028 694 947 611 1013 b 579 1007 572 1049 571 1021 z "},"ě":{"ha":443,"x_min":0,"x_max":0,"o":"m 431 271 b 408 400 457 310 465 381 b 47 158 304 435 89 253 b 290 -17 -29 -17 149 -74 b 531 192 388 24 475 100 b 529 208 536 199 536 206 b 514 204 526 211 519 211 b 272 11 464 128 375 53 b 110 93 182 -25 75 -24 b 342 347 140 194 260 310 b 413 339 361 357 411 378 b 350 249 415 308 374 267 b 176 158 299 207 221 163 b 186 139 156 157 165 138 b 431 271 249 144 381 197 z m 311 635 b 424 506 336 596 396 517 b 576 628 450 507 551 608 b 565 649 592 639 606 674 b 440 556 521 618 486 583 b 325 656 425 574 342 639 b 311 635 304 676 301 649 z "},"Ę":{"ha":729,"x_min":0,"x_max":0,"o":"m 354 -317 b 100 -475 322 -342 133 -524 b 211 -246 57 -414 172 -282 b 410 -100 281 -183 356 -153 b 819 7 540 -90 721 -49 b 985 288 906 56 1058 181 b 968 285 981 292 967 292 b 746 35 989 199 821 74 b 300 -69 656 -11 450 -69 b 93 67 144 -69 92 -8 b 515 340 97 233 376 338 b 640 325 549 333 613 310 b 617 381 667 340 667 375 b 543 394 600 382 551 385 b 564 781 481 476 419 721 b 682 750 614 799 661 769 b 765 631 718 719 743 678 b 808 518 783 594 786 546 b 843 639 850 468 863 593 b 808 704 835 660 825 690 b 783 711 801 708 790 707 b 743 740 767 715 753 729 b 628 818 711 769 676 806 b 417 743 568 832 451 803 b 501 385 356 639 425 472 b 33 108 350 378 33 340 b 349 -104 33 -60 194 -104 l 357 -104 b 142 -244 307 -136 217 -192 b 50 -461 54 -306 -1 -397 b 139 -508 71 -489 110 -508 b 371 -335 250 -508 350 -358 b 354 -317 390 -314 383 -289 z "},"ę":{"ha":443,"x_min":0,"x_max":0,"o":"m 106 -217 b -101 -344 79 -236 -74 -385 b -11 -160 -136 -294 -42 -189 b 154 -37 49 -106 111 -81 l 154 -36 b 290 -17 197 -42 244 -35 b 531 192 388 24 475 100 b 529 208 536 199 536 206 b 514 204 526 211 519 211 b 272 11 464 128 375 53 b 110 93 182 -25 75 -24 b 342 347 140 194 260 310 b 413 339 361 357 411 378 b 350 249 415 308 374 267 b 176 158 299 207 221 163 b 186 139 156 157 165 138 b 431 271 249 144 381 197 b 408 400 457 310 465 381 b 47 158 304 435 89 253 b 131 -32 0 49 50 -15 b 118 -37 125 -32 121 -35 b -67 -157 78 -64 -1 -112 b -140 -333 -137 -206 -182 -281 b -69 -371 -124 -356 -92 -371 b 119 -231 21 -371 103 -250 b 106 -217 135 -212 131 -194 z "},"ģ":{"ha":578,"x_min":0,"x_max":0,"o":"m 426 546 b 464 500 426 531 440 500 b 501 514 471 500 496 497 b 496 588 513 547 481 540 b 558 693 508 629 533 663 b 590 732 576 713 590 729 b 575 740 590 736 590 750 b 488 646 564 733 524 693 b 426 546 457 608 426 565 z m 382 -69 b 661 178 436 -39 600 108 b 654 211 697 219 690 253 b 410 -8 568 111 446 11 b 547 281 461 101 513 204 b 454 301 554 296 467 333 b 225 75 403 239 313 143 b 89 18 169 32 104 -4 b 200 247 44 79 158 211 b 440 367 271 311 368 367 b 508 340 467 367 494 364 b 519 347 515 338 519 338 b 494 385 519 361 508 375 b 356 396 458 410 396 407 b 38 32 251 371 -64 163 b 126 -15 58 4 97 -15 b 328 124 196 -15 276 67 b 439 254 349 146 401 208 b 300 -69 418 190 364 61 b -4 -306 210 -129 65 -225 b -32 -518 -78 -392 -119 -475 b -4 -528 -25 -522 -14 -525 b 224 -375 90 -544 172 -451 b 382 -69 267 -307 322 -192 z m 274 -122 b 49 -467 215 -240 154 -379 b -18 -490 15 -493 -6 -497 b 28 -328 -62 -467 -28 -383 b 274 -122 100 -254 201 -176 z "},"Į":{"ha":433,"x_min":0,"x_max":0,"o":"m 333 94 b 97 54 251 -14 153 13 b 19 31 82 67 33 63 b 51 -29 0 -17 15 -28 b 215 -28 75 -29 139 -29 b 26 -150 163 -60 89 -106 b -67 -368 -62 -211 -118 -303 b 22 -414 -46 -396 -7 -414 b 256 -240 133 -414 235 -265 b 238 -224 274 -219 267 -196 b -15 -382 207 -247 17 -431 b 96 -153 -60 -321 56 -189 b 272 -25 156 -97 221 -67 b 556 -10 403 -22 542 -17 b 554 24 564 -4 600 26 b 307 18 496 19 408 17 b 360 72 325 32 342 51 b 639 728 482 228 583 558 b 799 708 703 728 763 721 b 807 749 882 681 828 739 b 658 785 771 767 718 781 b 665 803 660 792 663 797 b 589 803 668 826 593 822 b 585 789 586 797 585 794 b 239 596 415 789 231 736 b 243 579 239 590 243 581 b 353 463 244 514 319 469 b 356 476 367 458 371 465 b 272 560 333 490 276 507 b 569 726 267 664 419 714 b 333 94 526 558 443 240 z "},"į":{"ha":314,"x_min":0,"x_max":0,"o":"m 76 -203 b -131 -331 50 -222 -103 -371 b -40 -146 -165 -281 -71 -175 b 117 -31 15 -93 75 -69 b 224 4 154 -32 197 -15 b 404 194 293 54 378 146 b 388 206 411 207 394 215 b 181 13 329 125 225 38 b 117 81 135 -11 107 21 b 200 282 121 125 158 199 b 228 368 221 325 236 351 b 179 385 221 382 197 386 b 131 303 160 381 146 346 b 128 285 126 294 126 289 b 21 142 107 253 69 201 b 36 122 8 125 22 107 b 90 192 65 156 78 176 b 49 21 61 128 38 53 b 86 -24 56 -3 69 -17 b -96 -143 47 -50 -32 -99 b -171 -319 -167 -192 -212 -267 b -99 -357 -153 -342 -122 -357 b 90 -217 -8 -357 72 -236 b 76 -203 106 -199 100 -181 z m 288 525 b 265 556 288 553 322 601 b 182 486 257 549 182 493 b 242 457 182 457 217 457 b 288 525 256 457 288 510 z "},"Ī":{"ha":433,"x_min":0,"x_max":0,"o":"m 333 94 b 97 54 251 -14 153 13 b 19 31 82 67 33 63 b 51 -29 0 -17 15 -28 b 556 -10 117 -31 531 -22 b 554 24 564 -4 600 26 b 307 18 496 19 408 17 b 360 72 325 32 342 51 b 639 728 482 228 583 558 b 799 708 703 728 763 721 b 807 749 882 681 828 739 b 658 785 771 767 718 781 b 665 803 660 792 663 797 b 589 803 668 826 593 822 b 585 789 586 797 585 794 b 239 596 415 789 231 736 b 243 579 239 590 243 581 b 353 463 244 514 319 469 b 356 476 367 458 371 465 b 272 560 333 490 276 507 b 569 726 267 664 419 714 b 333 94 526 558 443 240 z m 749 914 b 822 936 758 915 822 919 b 746 954 821 944 792 954 b 540 951 689 954 571 951 b 528 901 513 951 464 899 b 749 914 575 903 682 908 z "},"ī":{"ha":314,"x_min":0,"x_max":0,"o":"m 404 194 b 388 206 411 207 394 215 b 181 13 329 125 225 38 b 117 81 135 -11 107 21 b 200 282 121 125 158 199 b 228 368 221 325 236 351 b 179 385 221 382 197 386 b 131 303 160 381 146 346 b 128 285 126 294 126 289 b 21 142 107 253 69 201 b 36 122 8 125 22 107 b 90 192 65 156 78 176 b 49 21 61 128 38 53 b 224 4 76 -62 179 -29 b 404 194 293 54 378 146 z m 347 525 b 422 547 357 526 422 531 b 346 565 419 556 390 565 b 139 563 288 565 169 563 b 126 513 111 563 63 510 b 347 525 174 514 281 519 z "},"Ķ":{"ha":735,"x_min":0,"x_max":0,"o":"m 335 646 b 135 132 283 472 221 294 b -143 -160 58 -8 -33 -125 b -236 -160 -172 -169 -214 -164 b -289 -108 -262 -153 -279 -136 b -312 -115 -303 -57 -319 -92 b -236 -196 -300 -157 -275 -183 b -119 -190 -203 -206 -165 -206 b 154 82 -19 -160 72 -51 b 368 344 203 149 288 250 b 658 -62 401 163 482 -62 b 765 21 693 -62 764 -36 b 735 94 765 46 744 83 b 708 86 718 110 689 115 b 696 -25 731 53 764 -25 b 571 58 660 -25 613 7 b 406 392 475 176 446 246 b 656 590 433 422 531 506 b 938 756 771 667 917 746 b 857 808 999 785 972 861 b 399 426 814 788 443 476 l 397 422 b 394 443 396 429 394 436 b 364 435 388 478 368 450 b 363 381 363 419 361 401 b 238 239 313 326 272 282 b 464 785 325 415 389 603 b 375 785 468 811 381 806 b 154 593 332 686 235 601 b 154 569 133 590 133 568 b 335 646 211 575 281 597 z m 279 -150 b 243 -106 279 -135 265 -106 b 204 -119 236 -106 210 -101 b 210 -192 194 -153 225 -146 b 147 -299 197 -233 174 -267 b 117 -336 131 -317 117 -335 b 132 -344 117 -342 117 -356 b 218 -251 142 -337 182 -299 b 279 -150 250 -212 279 -169 z "},"Ļ":{"ha":654,"x_min":0,"x_max":0,"o":"m 294 117 b 297 96 276 111 267 90 b 314 100 301 96 308 97 b 267 -22 300 56 283 17 l 193 24 b 144 47 181 31 158 42 b 208 63 156 53 196 56 b 200 75 232 79 208 79 b 50 75 138 51 71 82 b 38 7 3 61 7 18 b 126 25 50 4 92 11 b 257 -44 168 11 211 -14 b 154 -174 224 -118 188 -171 b 154 -192 144 -174 139 -189 b 290 -67 196 -199 244 -146 b 863 -315 444 -178 625 -335 b 1038 -176 972 -307 1036 -243 b 1017 -65 1040 -142 1036 -106 b 989 -71 1006 -43 978 -46 b 833 -243 1047 -178 918 -236 b 304 -44 632 -260 454 -142 b 383 118 333 6 360 63 b 882 660 613 199 882 417 b 550 713 882 824 710 893 b 401 372 493 649 447 519 b 325 125 389 333 361 232 z m 465 333 b 746 792 501 447 582 792 b 819 632 821 792 835 714 b 399 157 778 414 599 247 b 465 333 431 232 453 299 z m 392 -274 b 356 -229 392 -258 378 -229 b 318 -243 349 -229 322 -225 b 322 -315 307 -275 339 -268 b 260 -421 311 -357 286 -390 b 229 -460 243 -440 229 -458 b 244 -468 229 -465 229 -479 b 332 -375 256 -461 294 -421 b 392 -274 363 -336 392 -293 z "},"ļ":{"ha":293,"x_min":0,"x_max":0,"o":"m 183 329 b 267 490 215 392 251 463 b 482 763 326 597 397 697 b 538 708 543 808 575 776 b 144 233 464 567 281 326 b 183 329 156 264 168 297 z m 124 178 b 575 683 297 322 461 485 b 517 822 625 774 579 822 b 307 671 422 822 360 739 b 40 81 217 551 49 219 b 146 -31 38 17 63 -31 b 232 0 172 -31 204 -21 b 417 192 301 51 389 143 b 401 206 425 207 408 215 b 197 17 354 139 251 46 b 106 114 117 -29 97 46 b 124 178 107 128 114 150 z m 113 -135 b 76 -90 113 -119 99 -90 b 38 -104 69 -90 43 -86 b 43 -176 28 -136 58 -129 b -19 -282 31 -218 7 -251 b -50 -321 -36 -301 -50 -319 b -35 -329 -50 -326 -50 -340 b 51 -236 -25 -322 15 -282 b 113 -135 83 -197 113 -154 z "},"Ľ":{"ha":654,"x_min":0,"x_max":0,"o":"m 294 117 b 297 96 276 111 267 90 b 314 100 301 96 308 97 b 267 -22 300 56 283 17 l 193 24 b 144 47 181 31 158 42 b 208 63 156 53 196 56 b 200 75 232 79 208 79 b 50 75 138 51 71 82 b 38 7 3 61 7 18 b 126 25 50 4 92 11 b 257 -44 168 11 211 -14 b 154 -174 224 -118 188 -171 b 154 -192 144 -174 139 -189 b 290 -67 196 -199 244 -146 b 863 -315 444 -178 625 -335 b 1038 -176 972 -307 1036 -243 b 1017 -65 1040 -142 1036 -106 b 989 -71 1006 -43 978 -46 b 833 -243 1047 -178 918 -236 b 304 -44 632 -260 454 -142 b 383 118 333 6 360 63 b 882 660 613 199 882 417 b 550 713 882 824 710 893 b 401 372 493 649 447 519 b 325 125 389 333 361 232 z m 465 333 b 746 792 501 447 582 792 b 819 632 821 792 835 714 b 399 157 778 414 599 247 b 465 333 431 232 453 299 z m 1069 736 b 1033 782 1069 753 1056 782 b 994 768 1026 782 1006 782 b 1001 694 992 735 1017 742 b 938 589 989 656 965 621 b 906 551 922 572 906 553 b 922 542 906 546 906 532 b 1010 636 932 549 972 590 b 1069 736 1042 674 1069 718 z "},"ľ":{"ha":619,"x_min":0,"x_max":0,"o":"m 183 329 b 267 490 215 392 251 463 b 482 763 326 597 397 697 b 538 708 543 808 575 776 b 144 233 464 567 281 326 b 183 329 156 264 168 297 z m 124 178 b 575 683 297 322 461 485 b 517 822 625 774 579 822 b 307 671 422 822 360 739 b 40 81 217 551 49 219 b 146 -31 38 17 63 -31 b 232 0 172 -31 204 -21 b 417 192 301 51 389 143 b 401 206 425 207 408 215 b 197 17 354 139 251 46 b 106 114 117 -29 97 46 b 124 178 107 128 114 150 z m 738 729 b 701 775 738 746 724 775 b 663 761 694 775 674 775 b 669 688 660 728 686 735 b 606 582 658 649 633 614 b 575 544 590 565 575 546 b 590 535 575 539 575 525 b 679 629 600 542 640 583 b 738 729 710 667 738 711 z "},"Ĺ":{"ha":654,"x_min":0,"x_max":0,"o":"m 294 117 b 297 96 276 111 267 90 b 314 100 301 96 308 97 b 267 -22 300 56 283 17 l 193 24 b 144 47 181 31 158 42 b 208 63 156 53 196 56 b 200 75 232 79 208 79 b 50 75 138 51 71 82 b 38 7 3 61 7 18 b 126 25 50 4 92 11 b 257 -44 168 11 211 -14 b 154 -174 224 -118 188 -171 b 154 -192 144 -174 139 -189 b 290 -67 196 -199 244 -146 b 863 -315 444 -178 625 -335 b 1038 -176 972 -307 1036 -243 b 1017 -65 1040 -142 1036 -106 b 989 -71 1006 -43 978 -46 b 833 -243 1047 -178 918 -236 b 304 -44 632 -260 454 -142 b 383 118 333 6 360 63 b 882 660 613 199 882 417 b 550 713 882 824 710 893 b 401 372 493 649 447 519 b 325 125 389 333 361 232 z m 465 333 b 746 792 501 447 582 792 b 819 632 821 792 835 714 b 399 157 778 414 599 247 b 465 333 431 232 453 299 z m 986 993 b 978 1039 996 1003 996 1026 b 938 1044 971 1040 953 1051 b 833 956 911 1010 869 986 b 757 901 818 943 758 906 b 763 886 751 896 744 886 b 985 992 786 888 954 968 z "},"ĺ":{"ha":293,"x_min":0,"x_max":0,"o":"m 183 329 b 267 490 215 392 251 463 b 482 763 326 597 397 697 b 538 708 543 808 575 776 b 144 233 464 567 281 326 b 183 329 156 264 168 297 z m 124 178 b 575 683 297 322 461 485 b 517 822 625 774 579 822 b 307 671 422 822 360 739 b 40 81 217 551 49 219 b 146 -31 38 17 63 -31 b 232 0 172 -31 204 -21 b 417 192 301 51 389 143 b 401 206 425 207 408 215 b 197 17 354 139 251 46 b 106 114 117 -29 97 46 b 124 178 107 128 114 150 z m 765 999 b 757 1044 776 1007 776 1032 b 717 1049 750 1046 732 1056 b 613 961 690 1014 649 992 b 536 907 597 949 538 910 b 542 892 531 901 524 892 b 764 997 565 893 735 972 z "},"Ņ":{"ha":722,"x_min":0,"x_max":0,"o":"m 369 614 b 186 125 318 440 267 281 b -78 -154 113 -10 26 -122 b -167 -154 -106 -164 -144 -161 b -215 -107 -193 -147 -208 -132 b -237 -112 -229 -57 -244 -90 b -167 -190 -228 -154 -203 -178 b -56 -185 -136 -199 -99 -199 b 228 118 49 -153 144 -29 b 411 532 301 254 354 382 b 683 -93 411 285 464 -93 b 1043 650 881 -93 1061 403 b 1103 610 1061 635 1079 621 b 1132 601 1111 604 1121 601 b 1163 629 1146 603 1163 614 b 1147 643 1161 638 1158 643 b 1131 639 1140 643 1135 639 b 1096 656 1119 639 1111 642 b 960 824 1049 699 1019 824 b 933 797 953 822 931 804 b 971 676 947 757 961 726 b 694 -46 1000 506 874 -46 b 485 656 513 -46 465 525 b 500 754 488 681 492 733 b 410 754 506 781 417 775 b 190 561 368 656 271 569 b 189 538 169 558 168 535 b 369 614 246 542 315 565 z m 479 -178 b 443 -133 479 -162 465 -133 b 404 -147 436 -133 410 -129 b 410 -219 394 -181 425 -174 b 347 -326 397 -261 374 -294 b 315 -364 329 -344 315 -362 b 332 -372 315 -369 315 -383 b 418 -279 342 -365 382 -326 b 479 -178 450 -240 479 -197 z "},"ņ":{"ha":568,"x_min":0,"x_max":0,"o":"m 369 268 b 367 -31 335 204 221 -17 b 478 4 406 -35 451 -15 b 658 194 547 54 632 146 b 640 206 665 207 647 215 b 433 13 583 125 478 38 b 369 81 389 -11 361 21 b 401 186 374 107 383 144 b 467 324 419 233 451 276 b 356 357 494 407 436 417 b 100 94 279 297 158 167 b 196 339 117 139 161 263 b 186 379 207 361 208 374 b 113 317 114 399 119 333 b -8 -25 85 240 3 3 b 65 -11 -22 -51 51 -18 b 288 260 92 4 208 188 b 369 268 389 347 394 313 z m 239 -150 b 203 -106 239 -135 225 -106 b 165 -119 196 -106 169 -101 b 169 -192 154 -153 186 -146 b 107 -299 158 -233 133 -267 b 76 -336 90 -317 76 -335 b 92 -344 76 -342 76 -356 b 179 -251 103 -337 142 -299 b 239 -150 210 -212 239 -169 z "},"Ń":{"ha":722,"x_min":0,"x_max":0,"o":"m 369 614 b 186 125 318 440 267 281 b -78 -154 113 -10 26 -122 b -167 -154 -106 -164 -144 -161 b -215 -107 -193 -147 -208 -132 b -237 -112 -229 -57 -244 -90 b -167 -190 -228 -154 -203 -178 b -56 -185 -136 -199 -99 -199 b 228 118 49 -153 144 -29 b 411 532 301 254 354 382 b 683 -93 411 285 464 -93 b 1043 650 881 -93 1061 403 b 1103 610 1061 635 1079 621 b 1132 601 1111 604 1121 601 b 1163 629 1146 603 1163 614 b 1147 643 1161 638 1158 643 b 1131 639 1140 643 1135 639 b 1096 656 1119 639 1111 642 b 960 824 1049 699 1019 824 b 933 797 953 822 931 804 b 971 676 947 757 961 726 b 694 -46 1000 506 874 -46 b 485 656 513 -46 465 525 b 500 754 488 681 492 733 b 410 754 506 781 417 775 b 190 561 368 656 271 569 b 189 538 169 558 168 535 b 369 614 246 542 315 565 z m 919 940 b 911 985 931 949 931 972 b 871 990 904 986 888 997 b 767 901 846 956 804 933 b 690 847 751 889 693 851 b 696 832 686 843 679 832 b 918 938 721 833 889 914 z "},"ń":{"ha":568,"x_min":0,"x_max":0,"o":"m 369 268 b 367 -31 335 204 221 -17 b 478 4 406 -35 451 -15 b 658 194 547 54 632 146 b 640 206 665 207 647 215 b 433 13 583 125 478 38 b 369 81 389 -11 361 21 b 401 186 374 107 383 144 b 467 324 419 233 451 276 b 356 357 494 407 436 417 b 100 94 279 297 158 167 b 196 339 117 139 161 263 b 186 379 207 361 208 374 b 113 317 114 399 119 333 b -8 -25 85 240 3 3 b 65 -11 -22 -51 51 -18 b 288 260 92 4 208 188 b 369 268 389 347 394 313 z m 557 604 b 549 650 568 614 568 638 b 508 656 542 651 524 663 b 404 567 482 621 440 597 b 328 513 389 554 329 517 b 333 497 322 507 315 497 b 556 603 357 499 526 579 z "},"Ň":{"ha":722,"x_min":0,"x_max":0,"o":"m 369 614 b 186 125 318 440 267 281 b -78 -154 113 -10 26 -122 b -167 -154 -106 -164 -144 -161 b -215 -107 -193 -147 -208 -132 b -237 -112 -229 -57 -244 -90 b -167 -190 -228 -154 -203 -178 b -56 -185 -136 -199 -99 -199 b 228 118 49 -153 144 -29 b 411 532 301 254 354 382 b 683 -93 411 285 464 -93 b 1043 650 881 -93 1061 403 b 1103 610 1061 635 1079 621 b 1132 601 1111 604 1121 601 b 1163 629 1146 603 1163 614 b 1147 643 1161 638 1158 643 b 1131 639 1140 643 1135 639 b 1096 656 1119 639 1111 642 b 960 824 1049 699 1019 824 b 933 797 953 822 931 804 b 971 676 947 757 961 726 b 694 -46 1000 506 874 -46 b 485 656 513 -46 465 525 b 500 754 488 681 492 733 b 410 754 506 781 417 775 b 190 561 368 656 271 569 b 189 538 169 558 168 535 b 369 614 246 542 315 565 z m 632 957 b 744 829 658 919 717 839 b 897 950 771 831 874 931 b 888 971 913 963 926 997 b 763 879 842 942 807 907 b 646 978 746 896 663 963 b 632 957 625 999 624 971 z "},"ň":{"ha":568,"x_min":0,"x_max":0,"o":"m 369 268 b 367 -31 335 204 221 -17 b 478 4 406 -35 451 -15 b 658 194 547 54 632 146 b 640 206 665 207 647 215 b 433 13 583 125 478 38 b 369 81 389 -11 361 21 b 401 186 374 107 383 144 b 467 324 419 233 451 276 b 356 357 494 407 436 417 b 100 94 279 297 158 167 b 196 339 117 139 161 263 b 186 379 207 361 208 374 b 113 317 114 399 119 333 b -8 -25 85 240 3 3 b 65 -11 -22 -51 51 -18 b 288 260 92 4 208 188 b 369 268 389 347 394 313 z m 253 631 b 367 503 279 593 339 513 b 519 624 392 504 494 604 b 508 644 535 636 549 671 b 383 553 464 615 429 581 b 267 651 368 569 285 636 b 253 631 246 672 244 644 z "},"Ő":{"ha":853,"x_min":0,"x_max":0,"o":"m 996 468 b 611 819 996 693 833 819 b 281 708 503 818 374 775 b 64 340 153 617 63 479 b 89 319 64 315 86 288 b 322 681 99 451 197 593 b 607 785 396 733 501 778 b 926 518 797 799 922 708 b 519 -74 932 276 708 -31 b 550 608 42 -185 144 513 b 638 601 575 614 610 611 b 660 590 646 597 654 590 b 649 617 665 590 668 596 b 474 649 604 663 528 660 b 535 -106 -15 533 51 -218 b 996 468 751 -56 996 176 z m 822 1024 b 836 1111 835 1044 888 1111 b 769 1031 774 1111 785 1076 b 721 899 764 1019 736 933 b 743 893 708 874 728 865 b 822 1024 774 949 801 986 z m 667 1024 b 681 1111 679 1044 732 1111 b 613 1031 619 1111 628 1076 b 564 899 610 1019 582 933 b 589 893 551 874 572 865 b 667 1024 619 949 646 986 z "},"ő":{"ha":488,"x_min":0,"x_max":0,"o":"m 313 100 b 168 -8 271 38 211 -8 b 110 93 117 -8 100 39 b 326 361 132 219 265 361 b 353 324 353 361 356 339 b 376 333 353 313 374 311 b 336 400 382 368 361 392 b 181 347 294 415 232 393 b 58 165 118 292 72 218 b 96 -14 33 79 50 14 b 279 14 142 -43 217 -39 b 333 68 297 31 315 49 b 390 33 343 47 367 33 b 531 131 444 33 500 93 b 578 194 551 156 569 178 b 561 206 585 207 568 215 b 513 146 547 186 529 165 b 394 65 485 117 439 65 b 360 103 376 65 361 76 b 419 289 390 146 439 232 b 363 274 408 326 347 313 b 343 153 369 257 381 228 b 308 108 319 160 300 138 b 313 100 308 104 311 103 z m 493 614 b 503 683 501 631 543 683 b 451 618 454 683 464 657 b 413 517 446 611 425 544 b 431 513 403 497 418 490 b 493 614 454 556 475 586 z m 369 614 b 382 683 381 631 422 683 b 328 618 333 683 340 657 b 290 517 326 611 304 544 b 308 513 281 497 297 490 b 369 614 333 556 354 586 z "},"Ō":{"ha":853,"x_min":0,"x_max":0,"o":"m 996 468 b 611 819 996 693 833 819 b 281 708 503 818 374 775 b 64 340 153 617 63 479 b 89 319 64 315 86 288 b 322 681 99 451 197 593 b 607 785 396 733 501 778 b 926 518 797 799 922 708 b 519 -74 932 276 708 -31 b 550 608 42 -185 144 513 b 638 601 575 614 610 611 b 660 590 646 597 654 590 b 649 617 665 590 668 596 b 474 649 604 663 528 660 b 535 -106 -15 533 51 -218 b 996 468 751 -56 996 176 z m 808 913 b 883 935 819 914 883 917 b 807 951 882 943 853 951 b 600 950 750 951 632 950 b 589 900 572 950 524 896 b 808 913 635 901 743 907 z "},"ō":{"ha":488,"x_min":0,"x_max":0,"o":"m 313 100 b 168 -8 271 38 211 -8 b 110 93 117 -8 100 39 b 326 361 132 219 265 361 b 353 324 353 361 356 339 b 376 333 353 313 374 311 b 336 400 382 368 361 392 b 181 347 294 415 232 393 b 58 165 118 292 72 218 b 96 -14 33 79 50 14 b 279 14 142 -43 217 -39 b 333 68 297 31 315 49 b 390 33 343 47 367 33 b 531 131 444 33 500 93 b 578 194 551 156 569 178 b 561 206 585 207 568 215 b 513 146 547 186 529 165 b 394 65 485 117 439 65 b 360 103 376 65 361 76 b 419 289 390 146 439 232 b 363 274 408 326 347 313 b 343 153 369 257 381 228 b 308 108 319 160 300 138 b 313 100 308 104 311 103 z m 461 517 b 536 539 472 518 536 521 b 460 556 535 547 506 556 b 253 554 403 556 285 554 b 242 504 225 554 176 500 b 461 517 288 506 396 511 z "},"Ŕ":{"ha":688,"x_min":0,"x_max":0,"o":"m 389 268 b 614 296 458 271 542 281 b 999 576 792 336 986 424 b 835 774 1006 657 943 736 b 249 739 639 836 389 806 b 44 540 172 700 61 628 b 47 518 44 533 47 519 b 163 372 29 433 119 379 b 172 392 181 368 189 379 b 82 493 144 408 71 426 b 839 725 119 719 614 788 b 917 492 979 683 999 576 b 429 296 811 382 604 315 b 369 301 403 292 382 296 b 647 617 457 454 568 617 b 663 625 654 617 669 603 b 585 672 654 658 599 672 b 406 507 513 672 413 553 b 396 450 408 499 413 485 b 326 319 383 424 356 375 b 293 332 318 326 301 332 b 264 269 246 332 236 288 b 294 261 269 267 281 263 b 181 -36 236 146 174 17 b 235 -53 182 -46 228 -53 b 332 44 272 -53 311 14 b 350 81 333 46 357 74 b 299 33 339 82 319 58 b 253 69 267 -4 221 -10 b 347 261 271 110 306 183 b 357 260 347 261 353 267 b 940 -265 474 107 625 -204 b 1176 -178 1049 -286 1156 -243 b 1186 -67 1188 -147 1194 -111 b 1158 -65 1181 -43 1153 -37 b 964 -197 1183 -183 1049 -212 b 389 268 693 -147 547 74 z m 861 975 b 853 1019 871 983 871 1007 b 813 1025 846 1021 828 1032 b 708 936 786 990 744 968 b 632 882 693 924 633 886 b 638 867 626 878 619 867 b 860 972 661 868 829 949 z "},"ŕ":{"ha":426,"x_min":0,"x_max":0,"o":"m 64 157 b 217 368 119 225 167 297 b 279 361 238 368 257 365 b 290 261 375 346 311 285 b 172 17 239 208 147 107 b 239 -35 182 -22 208 -35 b 347 4 278 -35 322 -15 b 528 194 417 54 501 146 b 510 206 535 207 517 215 b 304 13 453 125 349 38 b 260 90 258 -11 238 28 b 385 297 276 135 322 225 b 383 396 433 353 467 400 b 238 399 333 393 285 396 l 292 485 b 260 519 329 553 300 538 b 147 401 218 500 160 443 b 176 368 142 385 156 371 b 47 172 140 299 97 233 b 64 157 26 146 50 139 z m 613 660 b 604 706 624 669 624 693 b 564 711 597 707 579 718 b 460 622 538 676 496 653 b 383 568 444 610 385 572 b 389 553 378 563 371 553 b 611 658 413 554 582 635 z "},"Ř":{"ha":688,"x_min":0,"x_max":0,"o":"m 389 268 b 614 296 458 271 542 281 b 999 576 792 336 986 424 b 835 774 1006 657 943 736 b 249 739 639 836 389 806 b 44 540 172 700 61 628 b 47 518 44 533 47 519 b 163 372 29 433 119 379 b 172 392 181 368 189 379 b 82 493 144 408 71 426 b 839 725 119 719 614 788 b 917 492 979 683 999 576 b 429 296 811 382 604 315 b 369 301 403 292 382 296 b 647 617 457 454 568 617 b 663 625 654 617 669 603 b 585 672 654 658 599 672 b 406 507 513 672 413 553 b 396 450 408 499 413 485 b 326 319 383 424 356 375 b 293 332 318 326 301 332 b 264 269 246 332 236 288 b 294 261 269 267 281 263 b 181 -36 236 146 174 17 b 235 -53 182 -46 228 -53 b 332 44 272 -53 311 14 b 350 81 333 46 357 74 b 299 33 339 82 319 58 b 253 69 267 -4 221 -10 b 347 261 271 110 306 183 b 357 260 347 261 353 267 b 940 -265 474 107 625 -204 b 1176 -178 1049 -286 1156 -243 b 1186 -67 1188 -147 1194 -111 b 1158 -65 1181 -43 1153 -37 b 964 -197 1183 -183 1049 -212 b 389 268 693 -147 547 74 z m 578 989 b 690 860 604 950 663 871 b 843 982 717 861 819 963 b 833 1003 860 993 874 1028 b 708 910 788 972 753 938 b 592 1010 693 928 610 993 b 578 989 571 1031 569 1003 z "},"ř":{"ha":426,"x_min":0,"x_max":0,"o":"m 64 157 b 217 368 119 225 167 297 b 279 361 238 368 257 365 b 290 261 375 346 311 285 b 172 17 239 208 147 107 b 239 -35 182 -22 208 -35 b 347 4 278 -35 322 -15 b 528 194 417 54 501 146 b 510 206 535 207 517 215 b 304 13 453 125 349 38 b 260 90 258 -11 238 28 b 385 297 276 135 322 225 b 383 396 433 353 467 400 b 238 399 333 393 285 396 l 292 485 b 260 519 329 553 300 538 b 147 401 218 500 160 443 b 176 368 142 385 156 371 b 47 172 140 299 97 233 b 64 157 26 146 50 139 z m 272 664 b 385 535 299 625 357 546 b 538 657 411 538 514 638 b 528 678 554 669 568 704 b 403 586 482 649 447 614 b 286 685 388 603 304 669 b 272 664 265 706 264 678 z "},"Ŗ":{"ha":688,"x_min":0,"x_max":0,"o":"m 389 268 b 614 296 458 271 542 281 b 999 576 792 336 986 424 b 835 774 1006 657 943 736 b 249 739 639 836 389 806 b 44 540 172 700 61 628 b 47 518 44 533 47 519 b 163 372 29 433 119 379 b 172 392 181 368 189 379 b 82 493 144 408 71 426 b 839 725 119 719 614 788 b 917 492 979 683 999 576 b 429 296 811 382 604 315 b 369 301 403 292 382 296 b 647 617 457 454 568 617 b 663 625 654 617 669 603 b 585 672 654 658 599 672 b 406 507 513 672 413 553 b 396 450 408 499 413 485 b 326 319 383 424 356 375 b 293 332 318 326 301 332 b 264 269 246 332 236 288 b 294 261 269 267 281 263 b 181 -36 236 146 174 17 b 235 -53 182 -46 228 -53 b 332 44 272 -53 311 14 b 350 81 333 46 357 74 b 299 33 339 82 319 58 b 253 69 267 -4 221 -10 b 347 261 271 110 306 183 b 357 260 347 261 353 267 b 940 -265 474 107 625 -204 b 1176 -178 1049 -286 1156 -243 b 1186 -67 1188 -147 1194 -111 b 1158 -65 1181 -43 1153 -37 b 964 -197 1183 -183 1049 -212 b 389 268 693 -147 547 74 z m 426 -150 b 390 -106 426 -135 413 -106 b 353 -119 383 -106 357 -101 b 357 -192 342 -153 374 -146 b 294 -299 346 -233 321 -267 b 264 -336 278 -317 264 -335 b 279 -344 264 -342 264 -356 b 367 -251 290 -337 329 -299 b 426 -150 397 -212 426 -169 z "},"ŗ":{"ha":426,"x_min":0,"x_max":0,"o":"m 64 157 b 217 368 119 225 167 297 b 279 361 238 368 257 365 b 290 261 375 346 311 285 b 172 17 239 208 147 107 b 239 -35 182 -22 208 -35 b 347 4 278 -35 322 -15 b 528 194 417 54 501 146 b 510 206 535 207 517 215 b 304 13 453 125 349 38 b 260 90 258 -11 238 28 b 385 297 276 135 322 225 b 383 396 433 353 467 400 b 238 399 333 393 285 396 l 292 485 b 260 519 329 553 300 538 b 147 401 218 500 160 443 b 176 368 142 385 156 371 b 47 172 140 299 97 233 b 64 157 26 146 50 139 z m 142 -121 b 106 -76 142 -106 128 -76 b 68 -90 99 -76 72 -72 b 72 -162 57 -122 89 -115 b 10 -268 61 -204 36 -237 b -21 -307 -7 -287 -21 -306 b -6 -315 -21 -312 -21 -326 b 82 -222 6 -308 44 -268 b 142 -121 113 -183 142 -140 z "},"Š":{"ha":739,"x_min":0,"x_max":0,"o":"m 896 733 b 743 810 896 785 846 810 b 297 575 621 810 297 728 b 756 194 297 396 896 408 b 496 40 715 132 597 74 b 251 0 454 26 346 0 b 165 232 71 0 42 121 b 385 325 228 289 318 325 b 388 346 417 325 431 346 b 154 269 314 346 225 318 b 19 61 76 219 19 146 b 225 -64 19 -21 96 -64 b 758 153 389 -64 626 26 b 822 274 800 194 822 235 b 417 542 822 419 550 479 b 460 686 332 582 349 625 b 742 761 561 742 690 761 b 860 701 811 761 860 742 b 799 614 860 664 799 621 b 871 663 799 586 850 624 b 896 733 889 692 896 708 z m 669 990 b 783 861 696 951 756 872 b 936 983 808 864 911 964 b 925 1004 951 996 965 1031 b 800 913 881 975 846 940 b 683 1011 785 929 701 996 b 669 990 663 1032 661 1004 z "},"š":{"ha":396,"x_min":0,"x_max":0,"o":"m 107 17 b 104 31 117 21 114 33 b 38 -10 78 19 51 4 b 19 -65 22 -28 10 -51 b 119 -81 35 -94 93 -86 b 314 21 188 -65 267 -32 b 204 225 417 136 299 169 b 189 317 165 249 160 276 b 308 417 224 365 263 394 b 460 461 342 433 417 464 b 458 386 499 457 481 408 b 465 365 440 368 458 360 b 508 413 485 378 500 393 b 422 507 540 478 485 507 b 126 308 322 507 140 417 b 51 178 117 281 92 233 b 71 165 42 163 58 150 b 133 261 96 201 118 235 b 181 211 142 240 160 225 b 285 125 207 193 285 164 b 113 -56 285 44 182 -35 b 69 -14 61 -69 49 -42 b 107 17 78 -3 92 10 z m 321 674 b 433 546 347 636 406 556 b 586 667 460 547 563 649 b 576 688 603 679 617 714 b 451 596 531 658 496 624 b 335 694 436 614 353 679 b 321 674 314 715 313 688 z "},"Ś":{"ha":739,"x_min":0,"x_max":0,"o":"m 896 733 b 743 810 896 785 846 810 b 297 575 621 810 297 728 b 756 194 297 396 896 408 b 496 40 715 132 597 74 b 251 0 454 26 346 0 b 165 232 71 0 42 121 b 385 325 228 289 318 325 b 388 346 417 325 431 346 b 154 269 314 346 225 318 b 19 61 76 219 19 146 b 225 -64 19 -21 96 -64 b 758 153 389 -64 626 26 b 822 274 800 194 822 235 b 417 542 822 419 550 479 b 460 686 332 582 349 625 b 742 761 561 742 690 761 b 860 701 811 761 860 742 b 799 614 860 664 799 621 b 871 663 799 586 850 624 b 896 733 889 692 896 708 z m 931 976 b 922 1021 940 985 940 1010 b 882 1026 915 1024 897 1033 b 778 938 856 992 814 969 b 701 885 763 926 703 888 b 707 868 696 879 689 868 b 929 975 731 871 899 950 z "},"ś":{"ha":396,"x_min":0,"x_max":0,"o":"m 107 17 b 104 31 117 21 114 33 b 38 -10 78 19 51 4 b 19 -65 22 -28 10 -51 b 119 -81 35 -94 93 -86 b 314 21 188 -65 267 -32 b 204 225 417 136 299 169 b 189 317 165 249 160 276 b 308 417 224 365 263 394 b 460 461 342 433 417 464 b 458 386 499 457 481 408 b 465 365 440 368 458 360 b 508 413 485 378 500 393 b 422 507 540 478 485 507 b 126 308 322 507 140 417 b 51 178 117 281 92 233 b 71 165 42 163 58 150 b 133 261 96 201 118 235 b 181 211 142 240 160 225 b 285 125 207 193 285 164 b 113 -56 285 44 182 -35 b 69 -14 61 -69 49 -42 b 107 17 78 -3 92 10 z m 593 658 b 585 704 604 667 604 692 b 544 708 578 706 561 715 b 440 621 519 674 478 651 b 364 567 425 608 367 569 b 369 551 360 561 353 551 b 592 657 394 553 563 632 z "},"Ť":{"ha":349,"x_min":0,"x_max":0,"o":"m 328 33 b 283 69 297 -4 250 -10 b 676 617 336 199 549 617 b 694 610 682 617 689 614 b 613 672 700 653 631 672 b 433 507 540 672 443 553 b 425 450 438 499 443 485 b 210 -36 385 368 197 53 b 264 -53 211 -46 256 -53 b 361 44 301 -53 339 14 b 378 81 363 46 388 74 b 328 33 367 82 347 58 z m 922 507 b 982 676 889 558 933 628 b 1054 735 1010 704 1040 721 b 1014 785 1085 768 1049 792 b 957 742 1000 783 982 769 b 397 790 853 743 611 804 b 21 574 218 778 50 713 b 19 551 19 567 19 553 b 125 392 -11 469 78 406 b 138 408 142 386 154 396 b 54 524 110 429 38 456 b 394 735 79 639 228 713 b 939 721 569 761 758 725 b 906 679 931 713 913 692 b 894 500 875 617 876 519 b 922 507 913 478 931 496 z m 579 971 b 693 843 606 933 665 853 b 846 964 718 844 821 944 b 835 985 861 976 875 1011 b 710 893 790 956 756 921 b 593 992 694 910 611 976 b 579 971 572 1013 571 985 z "},"ť":{"ha":640,"x_min":0,"x_max":0,"o":"m 408 399 b 278 389 356 400 321 393 l 260 388 l 326 504 b 356 533 335 521 349 519 b 368 590 364 546 381 574 b 313 604 360 603 333 607 b 256 528 293 601 290 588 l 186 399 b 181 396 183 399 182 399 b 107 371 154 394 118 394 b 126 340 99 353 113 340 b 158 343 133 340 144 340 b 128 285 140 310 128 288 b 21 142 107 253 69 201 b 36 122 8 125 22 107 b 90 192 65 156 78 176 b 49 21 61 128 38 53 b 224 4 76 -62 179 -29 b 404 194 293 54 378 146 b 388 206 411 207 394 215 b 181 13 329 125 225 38 b 117 81 135 -11 107 21 b 200 282 121 125 158 199 b 239 351 204 294 221 318 b 396 375 304 358 375 368 b 408 399 454 389 425 399 z m 617 683 b 579 728 617 699 603 728 b 542 714 572 728 551 728 b 549 642 538 681 564 688 b 485 535 536 601 513 567 b 453 497 468 518 453 499 b 468 489 453 492 453 478 b 557 582 479 496 519 538 b 617 683 589 621 617 664 z "},"Ž":{"ha":763,"x_min":0,"x_max":0,"o":"m 874 753 b 307 788 708 794 471 843 b 201 596 228 761 144 669 b 218 610 221 572 231 583 b 332 733 196 651 257 714 b 825 693 467 769 690 735 b 481 367 738 649 611 506 b 399 367 454 365 426 365 b 360 394 388 368 382 394 b 283 353 342 396 283 381 b 319 315 283 331 304 315 b 436 318 339 313 383 315 b 128 54 321 194 208 82 b 43 67 90 58 56 72 b 44 -15 0 47 10 -3 b 131 6 57 -21 97 -11 b 842 -294 332 -65 563 -322 b 971 -154 936 -286 979 -219 b 932 -43 965 -121 957 -83 b 910 -49 919 -21 896 -24 b 804 -222 978 -156 876 -212 b 208 7 590 -244 401 -94 b 201 49 194 17 182 32 b 451 254 286 97 382 183 l 517 324 b 757 353 617 331 722 343 b 757 382 814 371 778 381 b 561 372 693 386 625 378 b 874 679 669 496 778 625 b 1024 789 929 667 1031 714 b 874 753 1019 854 901 781 z m 639 1018 b 751 889 665 979 724 900 b 904 1011 778 892 881 992 b 894 1032 919 1024 933 1058 b 769 940 849 1003 814 968 b 653 1039 753 957 669 1024 b 639 1018 632 1060 631 1032 z "},"ž":{"ha":586,"x_min":0,"x_max":0,"o":"m 154 318 l 61 190 b 63 167 54 179 57 171 b 90 188 69 160 83 179 b 176 285 114 221 146 257 b 300 324 208 315 242 331 b 419 294 340 318 374 308 b 204 93 363 239 279 157 b 161 56 201 89 183 74 b 72 60 131 65 99 68 b 22 -35 14 40 3 -24 b 132 10 44 -46 90 -22 b 186 -17 153 3 172 -8 b 396 -62 258 -62 322 -87 b 461 -28 408 -58 429 -51 b 683 200 531 24 654 150 b 660 206 690 213 667 215 b 432 -10 607 132 489 24 b 222 28 363 -49 299 -18 l 181 49 b 217 81 196 61 208 74 b 457 285 293 149 392 232 b 576 364 494 276 579 315 b 468 339 572 406 488 357 l 361 364 b 154 318 288 381 221 414 z m 315 611 b 429 483 342 574 401 493 b 582 604 454 485 557 586 b 571 625 597 617 611 651 b 446 533 526 596 492 561 b 329 632 431 551 347 617 b 315 611 308 653 307 625 z "},"Ū":{"ha":658,"x_min":0,"x_max":0,"o":"m 661 672 b 540 219 617 581 568 399 b 204 4 446 128 301 4 b 142 171 154 4 121 49 b 413 746 176 361 382 694 b 325 746 422 771 332 767 b 33 525 300 700 113 533 b 29 503 13 524 8 500 b 218 600 86 507 156 547 b 251 600 250 625 263 624 b 63 46 186 438 40 211 b 158 -44 72 -21 111 -44 b 533 169 290 -44 426 67 b 521 -143 515 49 510 -64 b 624 -279 533 -218 561 -278 b 711 -251 651 -281 696 -271 b 729 -225 721 -243 725 -232 b 710 -215 735 -206 724 -201 b 693 -236 703 -222 697 -229 b 625 -231 672 -260 644 -251 b 579 -28 593 -192 578 -122 b 604 221 582 40 590 149 b 926 686 704 351 878 524 b 850 825 946 750 938 819 b 661 672 767 832 707 768 z m 626 310 b 813 757 661 489 710 643 b 883 708 874 824 903 783 b 626 310 847 575 724 401 z m 765 896 b 840 919 776 899 840 901 b 764 936 839 928 808 936 b 557 935 707 936 589 935 b 544 885 529 935 481 881 b 765 896 592 886 700 892 z "},"ū":{"ha":618,"x_min":0,"x_max":0,"o":"m 708 194 b 690 206 715 207 697 215 b 485 13 633 125 529 38 b 419 81 439 -11 411 21 b 464 218 426 131 443 178 b 550 368 482 254 533 340 b 478 406 564 393 496 406 b 388 253 460 378 413 289 b 225 56 336 178 276 97 b 110 128 128 -22 65 10 b 246 322 144 221 215 294 b 249 350 256 329 265 343 b 174 350 229 357 197 357 b 107 264 161 346 126 294 b 58 32 57 188 26 83 b 156 -15 76 3 128 -15 b 376 200 269 -15 356 186 b 353 21 357 151 340 58 b 528 4 381 -62 482 -29 b 708 194 597 54 682 146 z m 507 519 b 582 542 517 521 582 525 b 506 560 579 551 550 560 b 299 558 447 560 329 558 b 286 507 271 558 222 504 b 507 519 333 510 440 514 z "},"Ů":{"ha":658,"x_min":0,"x_max":0,"o":"m 661 672 b 540 219 617 581 568 399 b 204 4 446 128 301 4 b 142 171 154 4 121 49 b 413 746 176 361 382 694 b 325 746 422 771 332 767 b 33 525 300 700 113 533 b 29 503 13 524 8 500 b 218 600 86 507 156 547 b 251 600 250 625 263 624 b 63 46 186 438 40 211 b 158 -44 72 -21 111 -44 b 533 169 290 -44 426 67 b 521 -143 515 49 510 -64 b 624 -279 533 -218 561 -278 b 711 -251 651 -281 696 -271 b 729 -225 721 -243 725 -232 b 710 -215 735 -206 724 -201 b 693 -236 703 -222 697 -229 b 625 -231 672 -260 644 -251 b 579 -28 593 -192 578 -122 b 604 221 582 40 590 149 b 926 686 704 351 878 524 b 850 825 946 750 938 819 b 661 672 767 832 707 768 z m 626 310 b 813 757 661 489 710 643 b 883 708 874 824 903 783 b 626 310 847 575 724 401 z m 644 899 b 556 832 635 874 603 832 b 506 868 522 832 507 850 b 603 969 501 906 550 969 b 644 899 658 969 653 919 z m 682 928 b 604 986 682 971 642 986 b 522 965 572 986 538 978 b 468 894 489 944 472 914 b 513 822 464 858 482 833 b 621 832 543 810 589 811 b 682 928 656 857 682 892 z "},"ů":{"ha":618,"x_min":0,"x_max":0,"o":"m 708 194 b 690 206 715 207 697 215 b 485 13 633 125 529 38 b 419 81 439 -11 411 21 b 464 218 426 131 443 178 b 550 368 482 254 533 340 b 478 406 564 393 496 406 b 388 253 460 378 413 289 b 225 56 336 178 276 97 b 110 128 128 -22 65 10 b 246 322 144 221 215 294 b 249 350 256 329 265 343 b 174 350 229 357 197 357 b 107 264 161 346 126 294 b 58 32 57 188 26 83 b 156 -15 76 3 128 -15 b 376 200 269 -15 356 186 b 353 21 357 151 340 58 b 528 4 381 -62 482 -29 b 708 194 597 54 682 146 z m 503 581 b 415 514 494 556 461 514 b 364 551 382 514 367 532 b 461 651 361 588 410 651 b 503 581 517 651 513 601 z m 542 610 b 464 669 542 653 501 669 b 382 649 432 669 397 660 b 328 576 349 628 332 596 b 371 504 322 540 342 517 b 481 514 403 492 447 493 b 542 610 515 539 542 574 z "},"Ű":{"ha":658,"x_min":0,"x_max":0,"o":"m 661 672 b 540 219 617 581 568 399 b 204 4 446 128 301 4 b 142 171 154 4 121 49 b 413 746 176 361 382 694 b 325 746 422 771 332 767 b 33 525 300 700 113 533 b 29 503 13 524 8 500 b 218 600 86 507 156 547 b 251 600 250 625 263 624 b 63 46 186 438 40 211 b 158 -44 72 -21 111 -44 b 533 169 290 -44 426 67 b 521 -143 515 49 510 -64 b 624 -279 533 -218 561 -278 b 711 -251 651 -281 696 -271 b 729 -225 721 -243 725 -232 b 710 -215 735 -206 724 -201 b 693 -236 703 -222 697 -229 b 625 -231 672 -260 644 -251 b 579 -28 593 -192 578 -122 b 604 221 582 40 590 149 b 926 686 704 351 878 524 b 850 825 946 750 938 819 b 661 672 767 832 707 768 z m 626 310 b 813 757 661 489 710 643 b 883 708 874 824 903 783 b 626 310 847 575 724 401 z m 729 978 b 743 1067 742 999 793 1067 b 675 985 681 1067 690 1032 b 626 853 669 975 642 888 b 649 847 614 829 633 819 b 729 978 681 903 708 942 z m 572 978 b 586 1067 585 999 639 1067 b 519 985 526 1067 535 1032 b 471 853 515 975 488 888 b 494 847 458 829 479 819 b 572 978 526 903 551 942 z "},"ű":{"ha":618,"x_min":0,"x_max":0,"o":"m 708 194 b 690 206 715 207 697 215 b 485 13 633 125 529 38 b 419 81 439 -11 411 21 b 464 218 426 131 443 178 b 550 368 482 254 533 340 b 478 406 564 393 496 406 b 388 253 460 378 413 289 b 225 56 336 178 276 97 b 110 128 128 -22 65 10 b 246 322 144 221 215 294 b 249 350 256 329 265 343 b 174 350 229 357 197 357 b 107 264 161 346 126 294 b 58 32 57 188 26 83 b 156 -15 76 3 128 -15 b 376 200 269 -15 356 186 b 353 21 357 151 340 58 b 528 4 381 -62 482 -29 b 708 194 597 54 682 146 z m 542 629 b 551 699 550 646 592 699 b 500 635 503 699 513 672 b 461 532 494 628 474 560 b 479 528 451 513 467 506 b 542 629 503 572 524 601 z m 418 629 b 431 699 429 646 471 699 b 376 635 382 699 389 672 b 339 532 375 628 353 560 b 357 528 329 513 346 506 b 418 629 382 572 403 601 z "},"Ų":{"ha":658,"x_min":0,"x_max":0,"o":"m 163 -247 b -90 -406 132 -272 -57 -454 b 21 -176 -133 -344 -19 -212 b 211 -37 86 -115 160 -86 b 533 169 326 -15 440 81 b 521 -143 515 49 510 -64 b 624 -279 533 -218 561 -278 b 711 -251 651 -281 696 -271 b 729 -225 721 -243 725 -232 b 710 -215 735 -206 724 -201 b 693 -236 703 -222 697 -229 b 625 -231 672 -260 644 -251 b 579 -28 593 -192 578 -122 b 604 221 582 40 590 149 b 926 686 704 351 878 524 b 850 825 946 750 938 819 b 661 672 767 832 707 768 b 540 219 617 581 568 399 b 204 4 446 128 301 4 b 142 171 154 4 121 49 b 413 746 176 361 382 694 b 325 746 422 771 332 767 b 33 525 300 700 113 533 b 29 503 13 524 8 500 b 218 600 86 507 156 547 b 251 600 250 625 263 624 b 63 46 186 438 40 211 b 151 -44 71 -17 107 -43 b -49 -175 99 -78 19 -128 b -140 -392 -137 -236 -193 -328 b -53 -439 -119 -419 -82 -439 b 181 -265 58 -439 160 -289 b 163 -247 200 -244 193 -219 z m 626 310 b 813 757 661 489 710 643 b 883 708 874 824 903 783 b 626 310 847 575 724 401 z "},"ų":{"ha":618,"x_min":0,"x_max":0,"o":"m 429 -201 b 222 -329 403 -219 250 -369 b 313 -143 188 -279 281 -174 b 478 -22 371 -90 433 -65 b 528 4 496 -15 514 -7 b 708 194 597 54 682 146 b 690 206 715 207 697 215 b 485 13 633 125 529 38 b 419 81 439 -11 411 21 b 464 218 426 131 443 178 b 550 368 482 254 533 340 b 478 406 564 393 496 406 b 388 253 460 378 413 289 b 225 56 336 178 276 97 b 110 128 128 -22 65 10 b 246 322 144 221 215 294 b 249 350 256 329 265 343 b 174 350 229 357 197 357 b 107 264 161 346 126 294 b 58 32 57 188 26 83 b 156 -15 76 3 128 -15 b 376 200 269 -15 356 186 b 353 21 357 151 340 58 b 426 -31 364 -17 396 -31 b 257 -142 385 -57 314 -100 b 182 -317 186 -190 140 -265 b 253 -356 200 -340 231 -356 b 443 -215 343 -356 425 -233 b 429 -201 458 -197 453 -178 z "},"Ý":{"ha":731,"x_min":0,"x_max":0,"o":"m 964 767 b 828 763 947 768 888 788 b 783 726 811 756 794 746 b 764 697 776 721 771 711 b 728 617 751 674 742 646 b 204 4 606 358 363 4 b 142 171 154 4 121 49 b 413 746 176 360 382 694 b 325 746 422 771 332 767 b 33 525 300 700 113 533 b 29 503 13 524 8 500 b 218 600 86 507 156 547 b 251 600 250 625 263 624 b 63 46 186 438 40 211 b 158 -44 72 -21 111 -44 b 658 396 315 -44 513 174 b 558 44 614 246 576 90 b 97 -246 378 -14 224 -101 b 618 17 -193 -578 311 -764 b 758 60 631 49 739 69 b 765 79 769 54 774 72 b 638 65 750 88 700 81 b 804 583 661 132 769 493 b 958 739 843 690 885 746 b 964 767 978 739 989 761 z m 550 18 b 329 -386 499 -125 426 -268 b 165 -239 151 -604 -19 -467 b 550 18 267 -114 399 -32 z m 835 963 b 826 1007 846 971 846 996 b 786 1013 819 1010 801 1019 b 682 924 760 978 718 956 b 606 871 667 913 607 874 b 611 854 600 865 593 854 b 833 961 635 857 804 936 z "},"ý":{"ha":578,"x_min":0,"x_max":0,"o":"m 382 -69 b 669 190 458 -28 614 115 b 658 214 686 213 675 235 b 410 -8 575 111 444 10 b 578 364 461 101 543 288 b 486 385 585 379 499 417 b 217 65 396 275 321 164 b 103 26 176 26 128 7 b 142 194 65 53 119 165 b 263 313 183 249 231 294 b 168 333 281 326 229 392 b 56 188 124 294 86 249 b 126 -15 15 110 3 -15 b 465 304 253 -15 390 218 b 300 -69 444 240 364 61 b -4 -306 210 -129 65 -225 b -32 -518 -78 -392 -119 -475 b -4 -528 -25 -522 -14 -525 b 224 -375 90 -544 172 -451 b 382 -69 267 -307 322 -192 z m 274 -122 b 63 -468 215 -240 168 -383 b 28 -328 -42 -551 -78 -433 b 274 -122 100 -254 201 -176 z m 626 611 b 618 657 638 621 638 644 b 578 663 611 658 593 669 b 474 574 551 628 510 604 b 397 519 458 561 399 524 b 403 504 392 514 385 504 b 625 610 426 506 596 586 z "},"Ż":{"ha":763,"x_min":0,"x_max":0,"o":"m 874 753 b 307 788 708 794 471 843 b 201 596 228 761 144 669 b 218 610 221 572 231 583 b 332 733 196 651 257 714 b 825 693 467 769 690 735 b 481 367 738 649 611 506 b 399 367 454 365 426 365 b 360 394 388 368 382 394 b 283 353 342 396 283 381 b 319 315 283 331 304 315 b 436 318 339 313 383 315 b 128 54 321 194 208 82 b 43 67 90 58 56 72 b 44 -15 0 47 10 -3 b 131 6 57 -21 97 -11 b 842 -294 332 -65 563 -322 b 971 -154 936 -286 979 -219 b 932 -43 965 -121 957 -83 b 910 -49 919 -21 896 -24 b 804 -222 978 -156 876 -212 b 208 7 590 -244 401 -94 b 201 49 194 17 182 32 b 451 254 286 97 382 183 l 517 324 b 757 353 617 331 722 343 b 757 382 814 371 778 381 b 561 372 693 386 625 378 b 874 679 669 496 778 625 b 1024 789 929 667 1031 714 b 874 753 1019 854 901 781 z m 792 976 b 732 1000 792 1010 800 1054 b 665 933 722 992 665 942 b 735 899 665 899 707 899 b 792 976 753 899 792 958 z "},"ż":{"ha":586,"x_min":0,"x_max":0,"o":"m 154 318 l 61 190 b 63 167 54 179 57 171 b 90 188 69 160 83 179 b 176 285 114 221 146 257 b 300 324 208 315 242 331 b 419 294 340 318 374 308 b 204 93 363 239 279 157 b 161 56 201 89 183 74 b 72 60 131 65 99 68 b 22 -35 14 40 3 -24 b 132 10 44 -46 90 -22 b 186 -17 153 3 172 -8 b 396 -62 258 -62 322 -87 b 461 -28 408 -58 429 -51 b 683 200 531 24 654 150 b 660 206 690 213 667 215 b 432 -10 607 132 489 24 b 222 28 363 -49 299 -18 l 181 49 b 217 81 196 61 208 74 b 457 285 293 149 392 232 b 576 364 494 276 579 315 b 468 339 572 406 488 357 l 361 364 b 154 318 288 381 221 414 z m 508 556 b 468 572 508 579 515 608 b 424 526 461 567 424 532 b 471 503 424 503 451 503 b 508 556 482 503 508 544 z "},"Ģ":{"ha":863,"x_min":0,"x_max":0,"o":"m 369 -246 b 890 17 78 -578 583 -764 b 1031 60 903 49 1010 69 b 1036 79 1042 54 1047 72 b 908 65 1021 88 972 81 b 979 267 933 132 957 200 b 1106 407 1006 344 1049 410 b 1111 426 1124 406 1132 422 b 915 331 1090 428 968 465 b 561 88 797 218 717 135 b 138 235 340 21 138 46 b 843 789 138 514 640 789 b 985 697 906 789 981 771 b 1015 726 988 663 1026 667 b 815 819 1003 806 860 819 b 294 629 619 819 443 761 b 103 240 168 513 103 382 b 468 -4 103 33 297 -37 b 899 263 603 19 753 125 b 832 44 878 188 856 115 b 369 -246 651 -14 494 -101 z m 822 18 b 603 -386 771 -125 697 -268 b 438 -239 424 -604 253 -467 b 822 18 538 -114 669 -32 z m 325 -122 b 288 -78 325 -107 311 -78 b 250 -92 281 -78 256 -74 b 256 -164 239 -125 271 -118 b 193 -271 243 -206 218 -239 b 161 -308 175 -289 161 -307 b 176 -317 161 -314 161 -328 b 264 -224 188 -310 228 -271 b 325 -122 294 -185 325 -142 z "},"Ă":{"ha":653,"x_min":0,"x_max":0,"o":"m 15 17 b 72 -97 15 -35 35 -71 b 197 -132 104 -119 146 -132 b 425 -50 276 -132 353 -104 b 746 282 522 21 635 144 b 911 263 801 275 856 268 b 888 121 899 213 890 165 b 968 -35 878 32 910 -35 b 1104 14 996 -35 1051 -28 b 1269 194 1203 93 1265 185 b 1253 207 1276 211 1258 213 b 1099 49 1217 158 1163 97 b 950 97 1003 -24 938 -43 b 975 257 953 151 964 206 b 1013 256 988 257 1000 256 b 1121 269 1051 254 1092 257 b 1175 310 1146 278 1165 292 b 1160 325 1183 324 1168 339 b 1118 294 1153 313 1138 301 b 1017 281 1090 282 1054 278 b 982 282 1006 281 994 282 l 986 292 b 1193 789 1033 468 1099 632 b 1200 804 1196 796 1200 801 b 1186 818 1200 813 1194 818 b 1114 799 1174 818 1133 810 b 1104 790 1111 797 1107 794 b 725 324 1015 679 871 492 b 468 368 639 340 550 360 b 169 218 328 385 183 386 b 183 132 167 185 172 151 b 208 144 196 114 218 125 b 207 197 200 158 200 178 b 461 311 246 304 364 317 b 694 288 538 306 617 297 b 396 -3 585 163 478 53 b 169 -78 325 -50 243 -78 b 85 -57 135 -78 106 -71 b 43 17 57 -39 43 -17 b 15 17 43 75 15 46 z m 1044 664 b 918 289 1001 554 951 419 l 772 313 b 1051 679 874 438 971 569 b 1044 664 1049 674 1047 669 z m 1432 1075 b 1422 1074 1431 1076 1424 1081 b 1132 1053 1357 872 1128 894 b 1083 1047 1132 1075 1090 1090 b 1440 1060 1049 815 1390 854 b 1432 1075 1440 1063 1439 1072 z "},"Ș":{"ha":739,"x_min":0,"x_max":0,"o":"m 896 733 b 743 810 896 785 846 810 b 297 575 621 810 297 728 b 756 194 297 396 896 408 b 496 40 715 132 597 74 b 251 0 454 26 346 0 b 165 232 71 0 42 121 b 385 325 228 289 318 325 b 388 346 417 325 431 346 b 154 269 314 346 225 318 b 19 61 76 219 19 146 b 225 -64 19 -21 96 -64 b 758 153 389 -64 626 26 b 822 274 800 194 822 235 b 417 542 822 419 550 479 b 460 686 332 582 349 625 b 742 761 561 742 690 761 b 860 701 811 761 860 742 b 799 614 860 664 799 621 b 871 663 799 586 850 624 b 896 733 889 692 896 708 z m 297 -169 b 260 -125 297 -154 283 -125 b 222 -139 253 -125 228 -121 b 228 -211 211 -171 243 -164 b 165 -317 215 -253 190 -286 b 133 -356 147 -336 133 -354 b 149 -364 133 -361 133 -375 b 236 -271 160 -357 200 -317 b 297 -169 267 -232 297 -189 z "},"ă":{"ha":635,"x_min":0,"x_max":0,"o":"m 125 -15 b 392 190 236 -15 368 179 b 369 21 374 142 357 58 b 544 4 397 -62 500 -29 b 725 194 614 54 700 146 b 708 206 732 207 715 215 b 501 13 651 125 547 38 b 438 81 457 -11 429 21 b 521 282 443 125 471 211 b 465 315 533 304 479 315 b 328 178 453 315 347 199 b 193 56 292 139 229 86 b 86 18 174 40 106 -10 b 197 247 43 79 158 211 b 439 367 269 311 367 367 b 508 340 465 367 493 364 b 517 347 515 338 517 338 b 493 385 517 361 507 375 b 354 396 457 410 396 407 b 36 32 250 371 -67 163 b 125 -15 57 4 96 -15 z m 696 686 b 686 685 694 688 688 692 b 396 664 621 483 392 506 b 347 658 396 686 354 701 b 704 671 313 426 654 465 b 696 686 704 674 703 683 z "},"ș":{"ha":396,"x_min":0,"x_max":0,"o":"m 107 17 b 104 31 117 21 114 33 b 38 -10 78 19 51 4 b 19 -65 22 -28 10 -51 b 119 -81 35 -94 93 -86 b 314 21 188 -65 267 -32 b 204 225 417 136 299 169 b 189 317 165 249 160 276 b 308 417 224 365 263 394 b 460 461 342 433 417 464 b 458 386 499 457 481 408 b 465 365 440 368 458 360 b 508 413 485 378 500 393 b 422 507 540 478 485 507 b 126 308 322 507 140 417 b 51 178 117 281 92 233 b 71 165 42 163 58 150 b 133 261 96 201 118 235 b 181 211 142 240 160 225 b 285 125 207 193 285 164 b 113 -56 285 44 182 -35 b 69 -14 61 -69 49 -42 b 107 17 78 -3 92 10 z m 65 -189 b 29 -143 65 -174 51 -143 b -8 -157 22 -143 -4 -140 b -4 -231 -19 -190 13 -183 b -67 -336 -15 -272 -40 -306 b -97 -375 -83 -356 -97 -372 b -82 -383 -97 -379 -97 -393 b 6 -289 -71 -376 -32 -336 b 65 -189 36 -251 65 -208 z "},"Ț":{"ha":349,"x_min":0,"x_max":0,"o":"m 328 33 b 283 69 297 -4 250 -10 b 676 617 336 199 549 617 b 694 610 682 617 689 614 b 613 672 700 653 631 672 b 433 507 540 672 443 553 b 425 450 438 499 443 485 b 210 -36 385 368 197 53 b 264 -53 211 -46 256 -53 b 361 44 301 -53 339 14 b 378 81 363 46 388 74 b 328 33 367 82 347 58 z m 922 507 b 982 676 889 558 933 628 b 1054 735 1010 704 1040 721 b 1014 785 1085 768 1049 792 b 957 742 1000 783 982 769 b 397 790 853 743 611 804 b 21 574 218 778 50 713 b 19 551 19 567 19 553 b 125 392 -11 469 78 406 b 138 408 142 386 154 396 b 54 524 110 429 38 456 b 394 735 79 639 228 713 b 939 721 569 761 758 725 b 906 679 931 713 913 692 b 894 500 875 617 876 519 b 922 507 913 478 931 496 z m 242 -176 b 204 -132 242 -161 228 -132 b 167 -146 197 -132 172 -128 b 172 -218 156 -178 188 -171 b 110 -324 160 -260 135 -293 b 78 -362 92 -343 78 -361 b 93 -371 78 -368 78 -382 b 181 -278 104 -364 144 -324 b 242 -176 211 -239 242 -196 z "},"ț":{"ha":314,"x_min":0,"x_max":0,"o":"m 408 399 b 278 389 356 400 321 393 l 260 388 l 326 504 b 356 533 335 521 349 519 b 368 590 364 546 381 574 b 313 604 360 603 333 607 b 256 528 293 601 290 588 l 186 399 b 181 396 183 399 182 399 b 107 371 154 394 118 394 b 126 340 99 353 113 340 b 158 343 133 340 144 340 b 128 285 140 310 128 288 b 21 142 107 253 69 201 b 36 122 8 125 22 107 b 90 192 65 156 78 176 b 49 21 61 128 38 53 b 224 4 76 -62 179 -29 b 404 194 293 54 378 146 b 388 206 411 207 394 215 b 181 13 329 125 225 38 b 117 81 135 -11 107 21 b 200 282 121 125 158 199 b 239 351 204 294 221 318 b 396 375 304 358 375 368 b 408 399 454 389 425 399 z m 99 -169 b 63 -125 99 -154 85 -125 b 24 -139 56 -125 29 -121 b 29 -211 14 -171 44 -164 b -33 -317 17 -253 -7 -286 b -64 -356 -50 -336 -64 -354 b -49 -364 -64 -361 -64 -375 b 38 -271 -39 -357 1 -317 b 99 -169 69 -232 99 -189 z "},"Ω":{"ha":892,"x_min":0,"x_max":0,"o":"m 69 24 b 64 -18 42 19 6 -18 b 269 -17 121 -18 239 -17 b 300 32 294 -17 336 25 l 294 42 b 264 396 235 115 215 239 b 603 722 321 572 457 722 b 714 371 769 722 756 528 b 522 54 689 271 597 97 b 493 21 508 46 496 32 b 503 -21 471 7 454 -22 b 724 -8 550 -18 660 -14 b 799 14 736 -7 799 -3 b 722 32 799 24 767 32 b 540 31 672 32 583 31 b 776 372 653 107 731 221 b 619 754 829 553 806 743 b 211 435 425 764 278 621 b 264 32 154 278 183 118 b 69 24 211 31 126 26 z "},"Ğ":{"ha":863,"x_min":0,"x_max":0,"o":"m 369 -246 b 890 17 78 -578 583 -764 b 1031 60 903 49 1010 69 b 1036 79 1042 54 1047 72 b 908 65 1021 88 972 81 b 979 267 933 132 957 200 b 1106 407 1006 344 1049 410 b 1111 426 1124 406 1132 422 b 915 331 1090 428 968 465 b 561 88 797 218 717 135 b 138 235 340 21 138 46 b 843 789 138 514 640 789 b 985 697 906 789 981 771 b 1015 726 988 663 1026 667 b 815 819 1003 806 860 819 b 294 629 619 819 443 761 b 103 240 168 513 103 382 b 468 -4 103 33 297 -37 b 899 263 603 19 753 125 b 832 44 878 188 856 115 b 369 -246 651 -14 494 -101 z m 822 18 b 603 -386 771 -125 697 -268 b 438 -239 424 -604 253 -467 b 822 18 538 -114 669 -32 z m 1043 1072 b 1033 1069 1042 1074 1035 1076 b 743 1049 968 868 739 892 b 694 1044 743 1072 701 1088 b 1051 1056 660 811 1001 851 b 1043 1072 1051 1060 1050 1068 z "},"ğ":{"ha":578,"x_min":0,"x_max":0,"o":"m 382 -69 b 661 178 436 -39 600 108 b 654 211 697 219 690 253 b 410 -8 568 111 446 11 b 547 281 461 101 513 204 b 454 301 554 296 467 333 b 225 75 403 239 313 143 b 89 18 169 32 104 -4 b 200 247 44 79 158 211 b 440 367 271 311 368 367 b 508 340 467 367 494 364 b 519 347 515 338 519 338 b 494 385 519 361 508 375 b 356 396 458 410 396 407 b 38 32 251 371 -64 163 b 126 -15 58 4 97 -15 b 328 124 196 -15 276 67 b 439 254 349 146 401 208 b 300 -69 418 190 364 61 b -4 -306 210 -129 65 -225 b -32 -518 -78 -392 -119 -475 b -4 -528 -25 -522 -14 -525 b 224 -375 90 -544 172 -451 b 382 -69 267 -307 322 -192 z m 274 -122 b 49 -467 215 -240 154 -379 b -18 -490 15 -493 -6 -497 b 28 -328 -62 -467 -28 -383 b 274 -122 100 -254 201 -176 z m 688 681 b 676 679 686 683 679 686 b 388 658 613 478 383 500 b 339 653 388 681 346 697 b 696 665 304 421 646 461 b 688 681 696 669 694 678 z "},"İ":{"ha":433,"x_min":0,"x_max":0,"o":"m 333 94 b 97 54 251 -14 153 13 b 19 31 82 67 33 63 b 51 -29 0 -17 15 -28 b 556 -10 117 -31 531 -22 b 554 24 564 -4 600 26 b 307 18 496 19 408 17 b 360 72 325 32 342 51 b 639 728 482 228 583 558 b 799 708 703 728 763 721 b 807 749 882 681 828 739 b 658 785 771 767 718 781 b 665 803 660 792 663 797 b 589 803 668 826 593 822 b 585 789 586 797 585 794 b 239 596 415 789 231 736 b 243 579 239 590 243 581 b 353 463 244 514 319 469 b 356 476 367 458 371 465 b 272 560 333 490 276 507 b 569 726 267 664 419 714 b 333 94 526 558 443 240 z m 750 993 b 693 1014 750 1025 758 1067 b 628 951 683 1007 628 958 b 696 917 628 917 668 917 b 750 993 714 917 750 976 z "},"Ş":{"ha":739,"x_min":0,"x_max":0,"o":"m -22 -378 b 356 -260 51 -503 356 -400 b 181 -168 356 -196 293 -146 b 256 -62 189 -153 243 -85 b 758 153 417 -51 633 33 b 822 274 800 194 822 235 b 417 542 822 419 550 479 b 460 686 332 582 349 625 b 742 761 561 742 690 761 b 860 701 811 761 860 742 b 799 614 860 664 799 621 b 871 663 799 586 850 624 b 896 733 889 692 896 708 b 743 810 896 785 846 810 b 297 575 621 810 297 728 b 756 194 297 396 896 408 b 496 40 715 132 597 74 b 251 0 454 26 346 0 b 165 232 71 0 42 121 b 385 325 228 289 318 325 b 388 346 417 325 431 346 b 154 269 314 346 225 318 b 19 61 76 219 19 146 b 210 -64 19 -17 89 -60 b 142 -182 196 -93 158 -160 b 201 -197 117 -217 151 -208 b 292 -260 257 -185 292 -217 b -4 -368 292 -375 63 -468 b -22 -378 -19 -344 -40 -347 z "},"ş":{"ha":396,"x_min":0,"x_max":0,"o":"m 107 17 b 104 31 117 21 114 33 b 38 -10 78 19 51 4 b 19 -65 22 -28 10 -51 b 119 -81 35 -94 93 -86 b 314 21 188 -65 267 -32 b 204 225 417 136 299 169 b 189 317 165 249 160 276 b 308 417 224 365 263 394 b 460 461 342 433 417 464 b 458 386 499 457 481 408 b 465 365 440 368 458 360 b 508 413 485 378 500 393 b 422 507 540 478 485 507 b 126 308 322 507 140 417 b 51 178 117 281 92 233 b 71 165 42 163 58 150 b 133 261 96 201 118 235 b 181 211 142 240 160 225 b 285 125 207 193 285 164 b 113 -56 285 44 182 -35 b 69 -14 61 -69 49 -42 b 107 17 78 -3 92 10 z m 125 -160 b 96 -122 125 -147 114 -122 b 64 -133 90 -122 68 -119 b 68 -194 56 -161 82 -156 b 17 -281 58 -226 38 -254 b -8 -312 3 -296 -8 -310 b 3 -319 -8 -315 -8 -328 b 75 -243 13 -314 44 -281 b 125 -160 100 -211 125 -175 z "}}}
